{"glyphs":{"0":{"ha":625,"x_min":56,"x_max":569,"o":"m 569 451 q 569 222 569 451 q 313 -7 569 -7 q 56 451 56 -7 q 313 910 56 910 q 569 451 569 910 m 214 189 q 231 151 214 189 q 313 113 247 113 q 411 189 378 113 q 444 451 444 265 q 411 714 444 638 q 313 790 378 790 q 214 714 247 790 q 181 451 181 638 q 214 189 181 265 m 313 383 q 268 401 286 383 q 250 446 250 419 q 268 490 250 472 q 313 508 286 508 q 356 490 338 508 q 375 446 375 472 q 356 401 375 419 q 313 383 338 383 z "},"1":{"ha":625,"x_min":69,"x_max":556,"o":"m 556 0 l 69 0 l 69 119 l 258 119 l 258 400 l 294 664 l 272 678 l 97 678 l 97 797 l 258 797 l 286 903 l 383 903 l 383 119 l 556 119 l 556 0 z "},"2":{"ha":625,"x_min":69,"x_max":556,"o":"m 556 1 l 69 0 l 69 97 q 81 184 69 144 q 118 259 92 224 q 159 310 144 294 q 213 359 174 326 q 254 394 251 392 q 308 440 269 408 q 360 487 346 472 q 394 528 374 501 q 423 585 415 556 q 431 653 431 615 q 394 750 431 715 q 289 783 358 785 l 85 783 l 85 889 q 289 903 174 903 q 483 831 410 903 q 556 653 556 758 q 401 364 556 485 q 358 331 393 357 q 315 296 324 304 q 280 265 306 288 q 247 231 254 243 q 225 199 239 219 q 207 160 211 179 q 203 121 203 142 l 556 121 l 556 1 z "},"3":{"ha":625,"x_min":69,"x_max":556,"o":"m 232 0 q 69 18 132 0 l 69 119 l 232 119 q 381 176 331 119 q 431 308 431 232 q 260 456 431 456 q 196 451 229 456 l 196 590 l 286 688 l 376 763 l 376 783 l 69 783 l 69 903 l 547 903 l 547 788 l 450 682 l 333 585 l 333 564 q 494 490 433 558 q 556 308 556 421 q 470 87 556 174 q 232 0 385 0 z "},"4":{"ha":625,"x_min":69,"x_max":556,"o":"m 485 0 l 360 0 l 360 139 l 69 139 l 69 239 l 272 903 l 381 903 l 381 833 l 286 546 l 196 281 l 196 258 l 360 258 l 360 407 l 485 407 l 485 333 l 471 281 l 485 258 l 556 258 l 556 139 l 485 139 l 471 117 l 485 69 l 485 0 z "},"5":{"ha":625,"x_min":79,"x_max":544,"o":"m 208 0 q 81 14 138 0 l 81 119 l 208 119 q 419 313 419 119 q 377 421 419 375 q 239 467 335 467 q 198 466 226 467 q 154 465 169 465 l 79 539 l 156 903 l 511 903 l 511 783 l 243 783 l 225 692 l 196 600 l 218 586 l 243 586 q 470 507 396 586 q 544 313 544 428 q 528 199 544 251 q 475 101 511 147 q 370 27 439 54 q 208 0 301 0 z "},"6":{"ha":625,"x_min":68,"x_max":558,"o":"m 315 -14 q 216 1 258 -14 q 147 48 174 15 q 103 116 119 81 q 80 213 88 151 q 70 325 72 274 q 68 458 68 376 q 401 903 68 903 q 513 889 463 903 l 513 783 l 401 783 q 249 715 304 783 q 193 554 193 647 l 214 544 q 329 596 253 592 q 496 519 433 596 q 558 311 558 443 q 498 72 558 158 q 315 -14 438 -14 m 315 106 q 435 311 435 106 q 315 476 435 476 q 251 463 282 476 q 207 435 221 449 l 193 421 l 193 297 q 224 150 196 194 q 315 106 253 106 z "},"7":{"ha":625,"x_min":69,"x_max":556,"o":"m 289 0 l 185 0 l 185 68 l 308 428 l 444 761 l 444 783 l 69 783 l 69 903 l 556 903 l 556 778 l 289 0 z "},"8":{"ha":625,"x_min":64,"x_max":561,"o":"m 311 -7 q 135 63 207 -7 q 64 254 64 133 q 175 481 64 381 q 81 675 81 557 q 141 844 81 778 q 311 910 201 910 q 484 842 424 910 q 544 664 544 775 q 449 460 544 556 q 561 254 561 376 q 489 63 561 133 q 311 -7 417 -7 m 206 689 q 235 584 206 617 q 339 519 264 551 q 419 664 419 586 q 394 760 419 729 q 311 790 369 790 q 206 689 206 790 m 189 254 q 311 113 189 113 q 436 254 436 113 q 397 347 436 311 q 278 419 357 383 q 189 254 189 353 z "},"9":{"ha":625,"x_min":69,"x_max":556,"o":"m 210 0 l 210 69 q 304 206 257 121 q 372 347 351 290 l 358 364 q 165 391 260 315 q 69 629 69 467 q 135 831 69 751 q 313 910 201 910 q 490 831 424 910 q 556 629 556 751 q 301 0 556 322 l 210 0 m 224 510 q 238 488 224 510 q 310 461 253 465 q 411 465 367 457 q 425 537 418 485 q 431 629 432 589 q 399 740 429 690 q 313 790 369 790 q 228 741 261 790 q 194 629 194 692 q 224 510 194 556 z "},"\r":{"ha":625,"x_min":0,"x_max":0,"o":""}," ":{"ha":625,"x_min":0,"x_max":0,"o":""},"!":{"ha":625,"x_min":222,"x_max":403,"o":"m 358 250 l 264 250 l 250 667 l 250 903 l 375 903 l 375 667 l 358 250 m 403 0 l 222 0 l 222 167 l 403 167 l 403 0 z "},"\"":{"ha":625,"x_min":68,"x_max":558,"o":"m 475 549 l 392 549 l 392 903 l 558 903 l 558 819 l 475 549 m 151 549 l 68 549 l 68 903 l 235 903 l 235 819 l 151 549 z "},"#":{"ha":625,"x_min":28,"x_max":597,"o":"m 194 0 l 69 0 l 85 86 l 124 211 l 113 232 l 28 232 l 50 351 l 135 351 l 154 372 l 150 431 l 176 489 l 165 510 l 56 510 l 78 629 l 188 629 l 206 650 l 214 775 l 239 903 l 364 903 l 336 761 l 299 636 l 308 615 l 375 615 l 393 636 l 403 761 l 431 903 l 556 903 l 532 775 l 494 650 l 504 629 l 597 629 l 575 510 l 482 510 l 465 489 l 468 431 l 443 372 l 451 351 l 563 351 l 540 232 l 429 232 l 413 211 l 406 86 l 386 0 l 261 0 l 281 86 l 319 225 l 308 246 l 242 246 l 224 225 l 210 86 l 194 0 m 276 510 l 246 351 l 340 351 l 371 510 l 276 510 z "},"$":{"ha":625,"x_min":92,"x_max":518,"o":"m 369 0 l 250 0 l 250 111 q 122 126 186 113 l 122 231 l 268 231 q 367 244 340 231 q 393 306 393 257 q 388 342 393 328 q 363 366 382 356 q 326 381 343 376 q 268 396 310 386 q 92 592 92 438 q 242 779 92 739 l 242 903 l 361 903 l 361 792 q 469 778 425 792 l 469 672 l 369 672 q 246 656 279 672 q 213 592 213 640 q 217 558 213 571 q 240 535 222 544 q 270 522 257 526 q 319 510 283 518 q 518 306 518 458 q 369 122 518 158 l 369 0 z "},"%":{"ha":625,"x_min":69,"x_max":556,"o":"m 310 538 q 292 509 310 538 q 208 481 274 481 q 106 538 143 481 q 69 696 69 594 q 106 853 69 796 q 208 910 143 910 q 310 853 274 910 q 347 696 347 796 q 310 538 347 594 m 556 833 l 429 529 l 364 563 l 406 729 l 475 903 l 556 903 l 556 833 m 167 696 q 208 572 167 572 q 250 696 250 572 q 208 818 250 818 q 167 696 167 818 m 519 51 q 500 23 519 51 q 417 -6 482 -6 q 315 51 351 -6 q 278 210 278 108 q 315 367 278 310 q 417 424 351 424 q 519 367 482 424 q 556 210 556 310 q 519 51 556 108 m 150 0 l 69 0 l 69 69 l 193 392 l 258 357 l 218 190 l 150 0 m 375 210 q 417 86 375 86 q 458 210 458 86 q 417 332 458 332 q 375 210 375 332 z "},"&":{"ha":625,"x_min":69,"x_max":556,"o":"m 311 0 q 135 70 201 0 q 69 263 69 140 q 93 397 69 338 q 168 458 117 457 l 168 479 q 93 547 117 493 q 69 668 69 600 q 133 839 69 775 q 311 903 196 903 q 417 889 358 903 l 417 783 l 311 783 q 194 668 194 783 q 311 543 194 543 l 433 543 l 433 694 l 556 694 l 556 263 q 489 70 556 140 q 311 0 422 0 m 311 124 q 433 263 433 124 l 433 424 l 311 424 q 193 263 193 424 q 222 156 193 189 q 311 124 251 124 z "},"'":{"ha":625,"x_min":229,"x_max":396,"o":"m 313 549 l 229 549 l 229 903 l 396 903 l 396 819 l 313 549 z "},"(":{"ha":625,"x_min":69,"x_max":556,"o":"m 556 -174 l 432 -174 q 69 463 71 38 q 432 1099 71 888 l 556 1099 l 556 1029 q 372 899 446 968 q 262 757 299 831 q 211 615 225 683 q 197 463 197 547 q 211 310 197 378 q 262 168 225 242 q 372 26 299 94 q 556 -104 446 -43 l 556 -174 z "},")":{"ha":625,"x_min":69,"x_max":556,"o":"m 193 -174 l 69 -174 l 69 -104 q 253 26 179 -43 q 363 168 326 94 q 414 310 400 242 q 428 463 428 378 q 414 615 428 547 q 363 757 400 683 q 253 899 326 831 q 69 1029 179 968 l 69 1099 l 193 1099 q 556 463 554 888 q 193 -174 554 38 z "},"*":{"ha":625,"x_min":121,"x_max":504,"o":"m 363 554 l 260 554 l 260 607 l 275 658 l 254 658 l 190 585 l 121 585 l 121 688 l 178 693 l 239 717 l 239 738 l 178 761 l 121 769 l 121 872 l 190 872 l 254 794 l 275 794 l 260 846 l 260 903 l 363 903 l 363 846 l 347 794 l 368 794 l 435 872 l 504 872 l 504 769 l 447 761 l 385 738 l 385 717 l 447 693 l 504 688 l 504 585 l 435 585 l 368 658 l 347 658 l 363 607 l 363 554 z "},"+":{"ha":625,"x_min":69,"x_max":556,"o":"m 372 208 l 253 208 l 253 392 l 69 392 l 69 511 l 253 511 l 253 694 l 372 694 l 372 511 l 556 511 l 556 392 l 372 392 l 372 208 z "},",":{"ha":625,"x_min":215,"x_max":410,"o":"m 326 -194 l 215 -194 l 215 -125 l 243 160 l 410 160 l 410 76 l 326 -194 z "},"-":{"ha":625,"x_min":69,"x_max":556,"o":"m 556 328 l 69 328 l 69 447 l 556 447 l 556 328 z "},".":{"ha":625,"x_min":222,"x_max":403,"o":"m 403 0 l 222 0 l 222 167 l 403 167 l 403 0 z "},"/":{"ha":625,"x_min":146,"x_max":479,"o":"m 251 0 l 146 0 l 146 69 l 374 903 l 479 903 l 479 833 l 251 0 z "},":":{"ha":625,"x_min":222,"x_max":403,"o":"m 403 528 l 222 528 l 222 694 l 403 694 l 403 528 m 403 0 l 222 0 l 222 167 l 403 167 l 403 0 z "},";":{"ha":625,"x_min":215,"x_max":424,"o":"m 424 528 l 243 528 l 243 694 l 424 694 l 424 528 m 326 -194 l 215 -194 l 215 -125 l 243 160 l 410 160 l 410 76 l 326 -194 z "},"<":{"ha":625,"x_min":69,"x_max":556,"o":"m 556 208 l 486 208 l 69 407 l 69 497 l 486 694 l 556 694 l 556 600 l 385 511 l 203 464 l 203 442 l 385 392 l 556 303 l 556 208 z "},"=":{"ha":625,"x_min":69,"x_max":556,"o":"m 556 526 l 69 526 l 69 646 l 556 646 l 556 526 m 556 257 l 69 257 l 69 376 l 556 376 l 556 257 z "},">":{"ha":625,"x_min":69,"x_max":556,"o":"m 139 208 l 69 208 l 69 303 l 240 392 l 422 442 l 422 463 l 240 511 l 69 600 l 69 694 l 139 694 l 556 497 l 556 407 l 139 208 z "},"?":{"ha":625,"x_min":111,"x_max":556,"o":"m 372 264 l 289 264 l 289 333 q 397 484 357 413 q 436 639 436 556 q 400 749 436 715 q 278 783 364 783 l 111 783 l 111 889 q 278 903 178 903 q 484 833 413 903 q 556 639 556 764 q 498 416 556 514 q 372 264 440 318 m 403 0 l 222 0 l 222 167 l 403 167 l 403 0 z "},"@":{"ha":625,"x_min":82,"x_max":568,"o":"m 242 0 q 82 347 82 0 q 256 694 82 694 q 394 681 308 694 l 394 151 q 425 106 394 106 q 457 151 457 106 l 457 694 q 427 873 457 824 q 325 922 397 922 q 193 722 193 922 l 82 722 q 145 951 82 875 q 325 1028 208 1028 q 509 949 450 1028 q 568 694 568 869 l 568 144 q 526 33 568 67 q 425 0 485 0 q 325 51 340 0 l 303 51 q 242 0 292 0 m 251 106 q 283 115 269 106 l 283 589 l 267 589 q 193 347 193 589 q 197 242 193 288 q 208 172 201 197 q 224 131 215 147 q 238 110 232 115 q 251 106 244 106 z "},"A":{"ha":625,"x_min":69,"x_max":556,"o":"m 178 0 l 69 0 l 69 69 l 250 903 l 375 903 l 556 69 l 556 0 l 447 0 l 414 165 l 213 165 l 178 0 m 225 299 l 247 285 l 381 285 l 401 299 l 343 497 l 324 708 l 301 708 l 282 497 l 225 299 z "},"B":{"ha":625,"x_min":69,"x_max":556,"o":"m 556 268 q 475 68 556 136 q 238 0 394 0 l 69 0 l 69 903 l 240 903 q 442 842 369 903 q 514 658 514 782 q 400 493 514 515 l 400 471 q 556 268 556 456 m 194 783 l 194 535 l 224 535 q 285 538 263 535 q 335 551 308 540 q 376 589 363 563 q 389 658 389 615 q 350 756 389 728 q 238 783 311 783 l 194 783 m 194 414 l 194 119 l 238 119 q 431 268 431 119 q 381 386 431 358 q 224 414 331 414 l 194 414 z "},"C":{"ha":625,"x_min":69,"x_max":556,"o":"m 444 -7 q 168 115 267 -7 q 69 451 69 236 q 165 785 69 660 q 444 910 261 910 q 556 896 514 910 l 556 790 l 444 790 q 253 697 313 790 q 194 451 194 603 q 254 207 194 301 q 444 113 314 113 l 556 113 l 556 7 q 444 -7 514 -7 z "},"D":{"ha":625,"x_min":69,"x_max":556,"o":"m 211 -7 q 69 7 121 -7 l 69 896 q 211 910 121 910 q 467 791 378 910 q 556 451 556 672 q 467 112 556 231 q 211 -7 378 -7 m 222 790 l 194 790 l 194 113 l 222 113 q 376 202 321 113 q 431 451 431 292 q 376 701 431 611 q 222 790 321 790 z "},"E":{"ha":625,"x_min":79,"x_max":544,"o":"m 544 0 l 79 0 l 79 903 l 544 903 l 544 783 l 204 783 l 204 518 l 503 518 l 503 399 l 204 399 l 204 119 l 544 119 l 544 0 z "},"F":{"ha":625,"x_min":69,"x_max":556,"o":"m 194 0 l 69 0 l 69 903 l 556 903 l 556 783 l 194 783 l 194 483 l 514 483 l 514 364 l 194 364 l 194 0 z "},"G":{"ha":625,"x_min":69,"x_max":556,"o":"m 444 -7 q 165 118 261 -7 q 69 451 69 243 q 168 788 69 667 q 444 910 267 910 q 556 896 497 910 l 556 790 l 444 790 q 256 692 318 790 q 194 451 194 594 q 252 213 194 308 q 431 113 310 118 l 431 249 l 458 363 l 444 385 l 332 385 l 332 504 l 556 504 l 556 7 q 444 -7 514 -7 z "},"H":{"ha":625,"x_min":69,"x_max":556,"o":"m 194 0 l 69 0 l 69 903 l 194 903 l 194 521 l 431 521 l 431 903 l 556 903 l 556 0 l 431 0 l 431 401 l 194 401 l 194 0 z "},"I":{"ha":625,"x_min":74,"x_max":560,"o":"m 560 0 l 74 0 l 74 122 l 164 122 l 232 94 l 254 108 l 254 794 l 232 808 l 183 781 l 113 781 l 113 903 l 521 903 l 521 781 l 450 781 l 401 808 l 379 794 l 379 108 l 401 94 l 469 122 l 560 122 l 560 0 z "},"J":{"ha":625,"x_min":69,"x_max":556,"o":"m 200 0 q 69 15 128 0 l 69 119 l 200 119 q 377 191 324 119 q 431 460 431 263 l 431 797 l 408 811 l 288 783 l 146 783 l 146 903 l 556 903 l 556 446 q 470 106 556 213 q 200 0 385 0 z "},"K":{"ha":625,"x_min":69,"x_max":553,"o":"m 194 0 l 69 0 l 69 903 l 194 903 l 194 532 l 217 532 l 315 717 l 449 903 l 546 903 l 546 833 l 433 675 l 301 517 l 301 494 l 438 282 l 553 69 l 553 0 l 454 0 l 340 214 l 257 426 l 235 426 l 194 350 l 194 0 z "},"L":{"ha":625,"x_min":69,"x_max":556,"o":"m 556 0 l 69 0 l 69 903 l 194 903 l 194 119 l 556 119 l 556 0 z "},"M":{"ha":625,"x_min":69,"x_max":556,"o":"m 188 0 l 69 0 l 69 903 l 194 903 l 256 713 l 301 522 l 324 522 l 369 713 l 431 903 l 556 903 l 556 0 l 438 0 l 438 310 l 472 619 l 450 619 l 363 314 l 263 314 l 175 619 l 153 619 l 188 310 l 188 0 z "},"N":{"ha":625,"x_min":69,"x_max":556,"o":"m 194 0 l 69 0 l 69 903 l 153 903 l 451 311 l 474 311 l 431 607 l 431 903 l 556 903 l 556 0 l 471 0 l 175 596 l 153 596 l 194 265 l 194 0 z "},"O":{"ha":625,"x_min":63,"x_max":563,"o":"m 563 451 q 563 219 563 451 q 313 -14 563 -14 q 63 451 63 -14 q 313 917 63 917 q 563 451 563 917 m 222 190 q 240 148 222 190 q 313 106 257 106 q 403 190 368 106 q 438 451 438 275 q 403 713 438 628 q 313 797 368 797 q 222 713 257 797 q 188 451 188 628 q 222 190 188 275 z "},"P":{"ha":625,"x_min":69,"x_max":556,"o":"m 194 0 l 69 0 l 69 903 l 238 903 q 473 819 390 903 q 556 593 556 735 q 473 367 556 451 q 238 283 390 283 l 194 283 l 194 0 m 251 782 l 194 782 l 194 404 l 251 404 q 385 457 339 406 q 431 593 431 508 q 385 729 431 678 q 251 782 339 781 z "},"Q":{"ha":625,"x_min":56,"x_max":569,"o":"m 313 -7 q 56 451 56 -7 q 313 910 56 910 q 569 451 569 910 q 525 157 569 283 l 504 132 l 556 69 l 556 0 l 457 0 l 457 44 l 438 44 q 313 -7 390 -7 m 313 113 q 394 139 368 113 l 394 161 l 250 378 l 250 447 l 346 447 l 443 286 l 465 300 q 444 451 444 358 q 407 709 444 628 q 313 790 369 790 q 218 709 256 790 q 181 451 181 628 q 313 113 181 113 z "},"R":{"ha":625,"x_min":69,"x_max":556,"o":"m 194 0 l 69 0 l 69 903 l 238 903 q 474 835 393 903 q 556 635 556 767 q 497 456 556 518 q 342 382 438 393 l 342 360 l 463 224 l 556 69 l 556 0 l 457 0 l 238 367 l 194 367 l 194 0 m 194 783 l 194 486 l 251 486 q 431 635 431 486 q 251 783 431 783 l 194 783 z "},"S":{"ha":625,"x_min":92,"x_max":532,"o":"m 240 -7 q 108 8 176 -7 l 108 113 l 268 113 q 373 149 339 113 q 407 243 407 186 q 374 345 407 306 q 296 408 342 385 q 203 456 250 431 q 124 537 157 482 q 92 675 92 592 q 167 849 92 789 q 356 910 243 910 q 483 896 438 910 l 483 790 l 369 790 q 253 759 294 790 q 213 675 213 728 q 236 592 213 626 q 295 538 260 557 q 372 494 331 519 q 449 444 414 469 q 508 367 485 418 q 532 244 532 315 q 452 58 532 124 q 240 -7 372 -7 z "},"T":{"ha":625,"x_min":69,"x_max":556,"o":"m 379 0 l 254 0 l 254 797 l 232 811 l 161 783 l 69 783 l 69 903 l 556 903 l 556 783 l 464 783 l 400 811 l 379 797 l 379 0 z "},"U":{"ha":625,"x_min":69,"x_max":556,"o":"m 493 72 q 462 32 493 72 q 313 -7 431 -7 q 132 72 194 -7 q 69 294 69 150 l 69 903 l 194 903 l 194 294 q 196 250 194 268 q 203 203 197 232 q 221 157 210 175 q 256 126 232 139 q 313 113 279 113 q 369 126 346 113 q 404 157 393 139 q 422 203 415 175 q 429 250 428 232 q 431 294 431 268 l 431 903 l 556 903 l 556 294 q 493 72 556 150 z "},"V":{"ha":625,"x_min":69,"x_max":556,"o":"m 375 0 l 250 0 l 69 833 l 69 903 l 181 903 l 254 556 l 301 208 l 324 208 l 371 556 l 444 903 l 556 903 l 556 833 l 375 0 z "},"W":{"ha":625,"x_min":69,"x_max":556,"o":"m 229 0 l 111 0 l 69 833 l 69 903 l 185 903 l 194 569 l 181 236 l 203 236 l 265 514 l 360 514 l 422 236 l 444 236 l 431 569 l 440 903 l 556 903 l 556 833 l 514 0 l 396 0 l 354 143 l 324 306 l 301 306 l 271 143 l 229 0 z "},"X":{"ha":625,"x_min":69,"x_max":556,"o":"m 169 0 l 69 0 l 69 69 l 229 451 l 69 833 l 69 903 l 169 903 l 244 722 l 301 543 l 324 543 l 381 722 l 456 903 l 556 903 l 556 833 l 396 451 l 556 69 l 556 0 l 456 0 l 382 179 l 324 360 l 301 360 l 243 179 l 169 0 z "},"Y":{"ha":625,"x_min":69,"x_max":556,"o":"m 375 0 l 250 0 l 250 329 l 69 833 l 69 903 l 174 903 l 251 676 l 301 451 l 324 451 l 374 676 l 451 903 l 556 903 l 556 833 l 375 331 l 375 0 z "},"Z":{"ha":625,"x_min":69,"x_max":556,"o":"m 556 0 l 69 0 l 69 119 l 246 451 l 436 761 l 436 783 l 83 783 l 83 903 l 556 903 l 556 783 l 379 451 l 190 142 l 190 119 l 556 119 l 556 0 z "},"[":{"ha":625,"x_min":69,"x_max":556,"o":"m 556 -193 l 69 -193 l 69 1085 l 556 1085 l 556 965 l 194 965 l 194 -74 l 556 -74 l 556 -193 z "},"\\":{"ha":625,"x_min":146,"x_max":479,"o":"m 479 0 l 374 0 l 146 833 l 146 903 l 251 903 l 479 69 l 479 0 z "},"]":{"ha":625,"x_min":69,"x_max":556,"o":"m 556 -193 l 69 -193 l 69 -74 l 431 -74 l 431 965 l 69 965 l 69 1085 l 556 1085 l 556 -193 z "},"^":{"ha":625,"x_min":57,"x_max":543,"o":"m 165 403 l 57 403 l 57 472 l 238 1000 l 363 1000 l 543 472 l 543 403 l 435 403 l 356 618 l 311 813 l 289 813 l 244 618 l 165 403 z "},"_":{"ha":625,"x_min":69,"x_max":556,"o":"m 556 -119 l 69 -119 l 69 0 l 556 0 l 556 -119 z "},"`":{"ha":833,"x_min":194,"x_max":429,"o":"m 429 764 l 365 764 l 194 958 l 194 1042 l 313 1042 l 429 833 l 429 764 z "},"a":{"ha":625,"x_min":69,"x_max":556,"o":"m 242 -7 q 119 49 168 -7 q 69 196 69 106 q 311 443 69 379 l 426 443 l 440 465 q 271 582 417 582 l 106 583 l 106 689 q 271 701 174 701 q 478 626 401 701 q 556 408 556 550 l 556 0 l 453 0 l 453 69 l 431 69 q 242 -7 343 -7 m 283 106 q 358 127 315 106 q 431 186 401 149 l 431 346 l 311 313 q 194 196 194 281 q 283 106 194 106 z "},"b":{"ha":625,"x_min":69,"x_max":556,"o":"m 289 0 q 69 14 192 0 l 69 1000 l 194 1000 l 194 790 l 172 636 l 194 636 q 317 694 228 694 q 494 606 432 694 q 556 344 556 517 q 289 0 556 0 m 194 532 l 194 119 l 275 119 q 396 169 361 119 q 431 344 431 218 q 317 575 431 575 q 194 532 243 575 z "},"c":{"ha":625,"x_min":97,"x_max":528,"o":"m 413 -7 q 185 87 272 -7 q 97 347 97 181 q 185 608 97 514 q 413 701 272 701 q 528 688 471 701 l 528 582 l 413 582 q 274 519 325 582 q 222 347 222 457 q 274 175 222 238 q 413 113 325 113 l 528 113 l 528 7 q 413 -7 471 -7 z "},"d":{"ha":625,"x_min":69,"x_max":556,"o":"m 308 -6 q 131 83 193 -6 q 69 344 69 172 q 322 694 69 694 q 431 681 378 694 l 431 1000 l 556 1000 l 556 0 l 453 0 l 453 53 l 431 53 q 308 -6 401 -6 m 308 114 q 431 157 382 114 l 431 575 l 350 575 q 225 528 256 575 q 194 344 194 481 q 222 167 194 221 q 308 114 250 114 z "},"e":{"ha":625,"x_min":75,"x_max":547,"o":"m 360 -7 q 138 85 201 -7 q 75 347 75 178 q 318 701 75 701 q 502 616 447 701 q 547 321 557 531 l 369 278 l 208 267 l 186 253 q 237 159 186 204 q 360 114 288 114 l 519 114 l 519 8 q 360 -7 431 -7 m 200 369 l 431 419 q 403 543 435 504 q 318 582 371 582 q 200 369 201 582 z "},"f":{"ha":625,"x_min":69,"x_max":556,"o":"m 542 0 l 69 0 l 69 119 l 222 119 l 222 575 l 200 589 l 146 575 l 69 575 l 69 694 l 217 694 q 278 931 222 856 q 457 1007 335 1007 q 556 993 504 1007 l 556 888 l 478 888 q 370 847 399 888 q 340 694 342 806 l 363 681 l 440 694 l 542 694 l 542 575 l 347 575 l 347 119 l 542 119 l 542 0 z "},"g":{"ha":625,"x_min":69,"x_max":556,"o":"m 246 -306 q 156 -292 193 -306 l 156 -186 l 246 -186 q 390 -137 349 -186 q 431 53 431 -87 l 408 53 q 308 -6 381 -6 q 131 83 193 -6 q 69 344 69 172 q 135 613 69 524 q 350 701 200 701 q 556 688 442 701 l 556 69 q 481 -221 556 -136 q 246 -306 406 -306 m 308 114 q 431 157 382 114 l 431 582 l 350 582 q 228 528 261 582 q 194 344 194 475 q 308 114 194 114 z "},"h":{"ha":625,"x_min":69,"x_max":556,"o":"m 194 0 l 69 0 l 69 1000 l 194 1000 l 194 822 l 181 629 l 203 629 q 357 701 271 701 q 508 628 460 701 q 556 440 556 556 l 556 0 l 431 0 l 431 440 q 411 551 431 519 q 350 582 392 582 q 194 528 268 582 l 194 0 z "},"i":{"ha":625,"x_min":69,"x_max":556,"o":"m 389 839 l 236 839 l 236 1000 l 389 1000 l 389 839 m 556 0 l 69 0 l 69 122 l 257 122 l 257 346 l 279 561 l 257 575 l 69 575 l 69 694 l 382 694 l 382 122 l 556 122 l 556 0 z "},"j":{"ha":625,"x_min":69,"x_max":535,"o":"m 535 839 l 382 839 l 382 1000 l 535 1000 l 535 839 m 200 -354 q 69 -339 133 -354 l 69 -235 l 200 -235 q 358 -167 314 -235 q 403 64 403 -99 l 403 589 l 381 603 l 250 575 l 97 575 l 97 694 l 528 694 l 528 92 q 450 -245 528 -136 q 200 -354 372 -354 z "},"k":{"ha":625,"x_min":69,"x_max":556,"o":"m 194 0 l 69 0 l 69 1000 l 194 1000 l 194 429 l 217 429 l 321 561 l 446 694 l 547 694 l 547 628 l 454 531 l 342 433 l 342 411 l 460 240 l 556 69 l 556 0 l 456 0 l 360 175 l 282 351 l 260 351 l 194 258 l 194 0 z "},"l":{"ha":625,"x_min":69,"x_max":556,"o":"m 450 0 q 273 72 317 0 q 229 294 229 143 l 229 574 l 251 867 l 229 881 l 69 881 l 69 1000 l 354 1000 l 354 281 q 372 148 354 176 q 450 119 390 119 l 556 119 l 556 14 q 450 0 504 0 z "},"m":{"ha":625,"x_min":69,"x_max":556,"o":"m 181 0 l 69 0 l 71 694 l 164 694 l 164 658 l 186 658 q 269 701 222 701 q 340 658 326 701 l 363 658 q 457 701 406 701 q 527 667 499 701 q 556 569 556 632 l 556 0 l 444 0 l 444 554 q 407 603 444 603 q 364 592 375 603 l 364 0 l 260 0 l 260 554 q 252 592 260 582 q 226 603 244 603 q 179 589 196 603 l 181 0 z "},"n":{"ha":625,"x_min":69,"x_max":556,"o":"m 194 0 l 69 0 l 69 694 l 181 694 l 181 629 l 203 629 q 357 701 269 701 q 508 628 460 701 q 556 440 556 556 l 556 0 l 431 0 l 431 440 q 411 551 431 519 q 350 582 392 582 q 194 528 268 582 l 194 0 z "},"o":{"ha":625,"x_min":69,"x_max":556,"o":"m 492 93 q 460 43 492 93 q 313 -7 428 -7 q 133 94 197 -7 q 69 349 69 194 q 133 601 69 501 q 313 701 197 701 q 492 600 428 701 q 556 346 556 499 q 492 93 556 193 m 227 181 q 243 147 227 181 q 313 113 260 113 q 398 182 365 113 q 431 349 431 251 q 398 513 431 444 q 313 582 365 582 q 227 512 260 582 q 194 346 194 442 q 227 181 194 250 z "},"p":{"ha":625,"x_min":69,"x_max":556,"o":"m 194 -306 l 69 -306 l 69 694 l 172 694 l 172 638 l 194 638 q 317 701 228 701 q 494 609 432 701 q 556 344 556 517 q 303 -6 556 -6 q 194 8 242 -6 l 194 -306 m 194 533 l 194 114 l 275 114 q 395 167 360 114 q 431 344 431 221 q 397 519 431 457 q 313 582 364 582 q 194 533 246 582 z "},"q":{"ha":625,"x_min":69,"x_max":556,"o":"m 556 -306 l 431 -306 l 431 -126 l 453 53 l 431 53 q 308 -6 394 -6 q 131 83 193 -6 q 69 344 69 172 q 322 694 69 694 q 556 681 431 694 l 556 -306 m 308 114 q 431 157 382 114 l 431 575 l 350 575 q 228 524 261 575 q 194 344 194 474 q 308 114 194 114 z "},"r":{"ha":625,"x_min":69,"x_max":556,"o":"m 542 0 l 69 0 l 69 119 l 181 119 l 181 347 l 203 561 l 181 575 l 69 575 l 69 694 l 283 694 l 283 628 l 306 628 q 468 700 368 700 q 556 686 524 700 l 556 581 l 468 581 q 306 515 365 581 l 306 119 l 542 119 l 542 0 z "},"s":{"ha":625,"x_min":97,"x_max":528,"o":"m 278 -7 q 117 7 192 -7 l 117 113 l 278 113 q 403 194 403 113 q 372 263 403 236 q 295 307 340 290 q 205 344 250 324 q 128 407 160 364 q 97 517 97 450 q 342 701 97 701 q 507 688 449 701 l 507 582 l 342 582 q 252 568 282 582 q 222 518 222 554 q 253 461 222 485 q 330 420 285 438 q 420 378 375 403 q 497 306 465 354 q 528 188 528 258 q 459 44 528 94 q 278 -7 390 -7 z "},"t":{"ha":625,"x_min":69,"x_max":556,"o":"m 457 0 q 340 28 388 0 q 267 106 292 56 q 233 215 243 157 q 222 347 222 272 l 244 561 l 222 575 l 69 575 l 69 694 l 222 694 l 222 903 l 347 903 l 347 694 l 542 694 l 542 575 l 347 575 l 347 392 q 369 181 347 243 q 464 119 390 119 l 556 119 l 556 14 q 457 0 504 0 z "},"u":{"ha":625,"x_min":69,"x_max":556,"o":"m 268 -7 q 117 66 165 -7 q 69 254 69 139 l 69 694 l 194 694 l 194 254 q 214 144 194 175 q 275 113 233 113 q 431 167 357 113 l 431 694 l 556 694 l 556 0 l 444 0 l 444 65 l 422 65 q 268 -7 356 -7 z "},"v":{"ha":625,"x_min":69,"x_max":556,"o":"m 375 0 l 250 0 l 69 625 l 69 694 l 178 694 l 246 424 l 301 153 l 324 153 l 378 424 l 447 694 l 556 694 l 556 625 l 375 0 z "},"w":{"ha":625,"x_min":69,"x_max":556,"o":"m 215 0 l 111 0 l 69 625 l 69 694 l 183 694 l 192 457 l 176 219 l 199 219 l 265 403 l 360 403 l 426 219 l 449 219 l 433 457 l 442 694 l 556 694 l 556 625 l 514 0 l 410 0 l 360 125 l 324 254 l 301 254 l 267 126 l 215 0 z "},"x":{"ha":625,"x_min":83,"x_max":569,"o":"m 181 0 l 83 0 l 83 69 l 244 347 l 83 625 l 83 694 l 181 694 l 258 561 l 315 428 l 338 428 l 396 561 l 472 694 l 569 694 l 569 625 l 408 347 l 569 69 l 569 0 l 472 0 l 396 133 l 338 267 l 315 267 l 257 133 l 181 0 z "},"y":{"ha":625,"x_min":69,"x_max":556,"o":"m 283 -306 l 178 -306 l 178 -236 l 267 40 l 69 625 l 69 694 l 172 694 l 324 232 l 451 694 l 556 694 l 556 625 l 283 -306 z "},"z":{"ha":625,"x_min":83,"x_max":542,"o":"m 542 0 l 83 0 l 83 119 l 239 347 l 396 553 l 396 575 l 83 575 l 83 694 l 542 694 l 542 575 l 386 347 l 229 142 l 229 119 l 542 119 l 542 0 z "},"{":{"ha":625,"x_min":69,"x_max":556,"o":"m 439 -186 q 324 -152 369 -186 q 261 -67 278 -118 q 238 43 244 -17 q 242 154 232 103 q 222 324 253 257 q 125 390 190 390 l 69 390 l 69 515 l 125 515 q 222 582 190 515 q 242 751 253 649 q 238 863 232 803 q 261 973 244 922 q 324 1058 278 1024 q 439 1092 369 1092 q 556 1078 519 1092 l 556 972 l 439 972 q 372 922 386 972 q 367 751 357 872 q 335 545 378 617 q 239 457 293 474 l 239 449 q 335 360 293 432 q 367 154 378 289 q 372 -17 357 33 q 439 -67 386 -67 l 556 -67 l 556 -172 q 439 -186 519 -186 z "},"|":{"ha":625,"x_min":250,"x_max":375,"o":"m 375 -165 l 250 -165 l 250 1057 l 375 1057 l 375 -165 z "},"}":{"ha":625,"x_min":69,"x_max":556,"o":"m 186 -186 q 69 -172 106 -186 l 69 -67 l 186 -67 q 253 -17 239 -67 q 258 154 268 33 q 290 360 247 289 q 386 449 332 432 l 386 457 q 290 545 332 474 q 258 751 247 617 q 253 922 268 872 q 186 972 239 972 l 69 972 l 69 1078 q 186 1092 106 1092 q 301 1058 256 1092 q 364 973 347 1024 q 387 863 381 922 q 383 751 393 803 q 403 582 372 649 q 500 515 435 515 l 556 515 l 556 390 l 500 390 q 403 324 435 390 q 383 154 372 257 q 387 43 393 103 q 364 -67 381 -17 q 301 -152 347 -118 q 186 -186 256 -186 z "},"~":{"ha":625,"x_min":69,"x_max":556,"o":"m 417 283 q 299 321 371 283 q 208 358 228 358 q 139 290 154 358 l 69 290 l 69 406 q 208 478 114 478 q 326 440 254 478 q 417 403 397 403 q 486 472 471 403 l 556 472 l 556 357 q 417 283 501 283 z "}," ":{"ha":625,"x_min":0,"x_max":0,"o":""},"¡":{"ha":625,"x_min":222,"x_max":403,"o":"m 403 528 l 222 528 l 222 694 l 403 694 l 403 528 m 375 -292 l 250 -292 l 250 -1 l 265 444 l 360 444 l 375 -1 l 375 -292 z "},"¢":{"ha":625,"x_min":104,"x_max":521,"o":"m 433 0 l 308 0 l 308 122 q 104 450 104 171 q 308 778 104 729 l 308 903 l 433 903 l 433 785 q 521 772 482 782 l 521 667 l 392 667 q 266 617 303 667 q 229 450 229 567 q 266 283 229 333 q 392 233 303 233 l 521 233 l 521 128 q 433 115 482 118 l 433 0 z "},"£":{"ha":625,"x_min":69,"x_max":556,"o":"m 556 119 l 556 0 l 69 0 l 69 119 l 132 119 l 153 133 l 125 203 l 125 278 l 153 347 l 132 361 l 69 361 l 69 481 l 132 481 l 153 494 q 125 650 125 543 q 403 910 125 910 q 542 896 454 910 l 542 793 l 401 792 q 277 757 304 790 q 250 650 250 724 l 250 481 l 458 481 l 458 361 l 250 361 l 250 119 l 556 119 z "},"¤":{"ha":625,"x_min":21,"x_max":604,"o":"m 21 233 l 96 308 q 69 436 69 363 q 96 565 69 504 l 21 640 l 108 728 l 175 656 q 313 693 235 693 q 447 657 392 693 l 517 726 l 604 639 l 529 564 q 556 438 556 510 q 529 310 556 364 l 604 235 l 517 147 l 447 217 q 313 181 392 181 q 178 215 235 181 l 108 146 l 21 233 m 227 341 q 243 321 227 341 q 313 301 260 301 q 398 342 365 301 q 431 438 431 382 q 398 533 431 493 q 313 574 365 574 q 227 533 260 574 q 194 436 194 492 q 227 341 194 381 z "},"¥":{"ha":625,"x_min":69,"x_max":556,"o":"m 375 0 l 250 0 l 250 147 l 97 147 l 97 267 l 174 267 l 236 253 l 250 267 l 250 347 l 97 347 l 97 467 l 175 467 l 244 453 l 258 474 l 69 833 l 69 903 l 169 903 l 253 749 l 303 582 l 325 582 l 375 749 l 456 903 l 556 903 l 556 833 l 368 474 l 382 453 l 451 467 l 528 467 l 528 347 l 375 347 l 375 268 l 389 253 l 451 267 l 528 267 l 528 147 l 375 147 l 375 0 z "},"¦":{"ha":625,"x_min":250,"x_max":375,"o":"m 375 599 l 250 599 l 250 1057 l 375 1057 l 375 599 m 375 -165 l 250 -165 l 250 293 l 375 293 l 375 -165 z "},"§":{"ha":625,"x_min":90,"x_max":572,"o":"m 294 -179 q 135 -164 203 -179 l 135 -60 l 294 -60 q 398 -29 363 -60 q 433 53 433 1 q 431 76 433 64 q 425 97 428 88 q 414 117 422 106 q 401 135 406 128 q 383 154 396 143 q 365 171 371 165 q 343 188 358 176 q 321 205 328 200 q 296 222 314 210 q 272 239 278 235 q 183 308 217 278 q 120 392 150 338 q 90 511 90 447 q 179 713 90 624 q 115 857 115 781 q 188 1028 115 971 q 372 1085 260 1085 q 500 1071 454 1085 l 500 965 l 386 965 q 271 940 306 965 q 236 857 236 914 q 271 790 236 826 q 355 715 306 753 q 453 637 404 678 q 538 543 503 596 q 572 435 572 490 q 485 218 572 328 q 554 50 554 144 q 481 -120 554 -61 q 294 -179 408 -179 m 343 332 q 390 299 374 310 q 451 435 451 360 q 442 476 451 456 q 423 510 433 496 q 390 545 413 525 q 353 576 367 565 q 307 610 339 588 q 263 642 275 632 q 211 513 211 581 q 244 419 211 458 q 343 332 278 379 z "},"¨":{"ha":833,"x_min":97,"x_max":528,"o":"m 528 819 l 375 819 l 375 981 l 528 981 l 528 819 m 250 819 l 97 819 l 97 981 l 250 981 l 250 819 z "},"©":{"ha":625,"x_min":69,"x_max":556,"o":"m 494 119 q 463 59 494 119 q 313 0 432 0 q 131 119 193 0 q 69 456 69 238 q 131 788 69 674 q 313 903 193 903 q 494 788 432 903 q 556 456 556 674 q 494 119 556 238 m 115 456 q 313 42 115 42 q 510 456 510 42 q 463 758 510 656 q 313 861 417 861 q 162 758 208 861 q 115 456 115 656 m 368 160 q 216 236 272 160 q 160 451 160 313 q 213 664 160 585 q 368 743 267 743 q 444 729 403 743 l 444 631 l 403 631 q 299 588 328 631 q 271 451 271 546 q 299 315 271 358 q 403 272 328 272 l 444 272 l 444 174 q 368 160 403 160 z "},"ª":{"ha":625,"x_min":165,"x_max":460,"o":"m 165 603 q 311 751 165 715 l 381 751 l 390 767 q 286 838 372 838 l 189 838 l 189 900 q 286 908 243 908 q 413 862 367 908 q 460 729 460 815 l 460 486 l 399 486 l 399 526 l 385 526 q 271 481 325 481 q 195 515 225 481 q 165 603 165 549 m 240 603 q 294 549 240 549 q 385 597 343 549 l 385 694 l 311 674 q 259 649 278 664 q 240 603 240 633 z "},"«":{"ha":625,"x_min":69,"x_max":556,"o":"m 556 111 l 486 111 l 306 324 l 306 386 l 486 597 l 556 597 l 556 503 l 439 365 l 439 344 l 556 206 l 556 111 m 319 111 l 250 111 l 69 324 l 69 386 l 250 597 l 319 597 l 319 503 l 203 365 l 203 344 l 319 206 l 319 111 z "},"¬":{"ha":625,"x_min":69,"x_max":556,"o":"m 556 271 l 431 271 l 431 526 l 69 526 l 69 646 l 556 646 l 556 271 z "},"­":{"ha":625,"x_min":69,"x_max":556,"o":"m 556 328 l 69 328 l 69 447 l 556 447 l 556 328 z "},"®":{"ha":625,"x_min":69,"x_max":556,"o":"m 483 536 q 446 509 483 536 q 313 482 410 482 q 142 536 215 482 q 69 694 69 590 q 142 851 69 799 q 313 904 214 904 q 483 851 411 904 q 556 694 556 799 q 483 536 556 590 m 167 561 q 197 538 167 561 q 313 515 228 515 q 458 561 397 515 q 519 694 519 607 q 459 827 519 783 q 313 871 399 871 q 166 827 226 871 q 106 694 106 783 q 167 561 106 607 m 288 563 l 250 563 l 250 824 l 300 824 q 392 746 392 824 q 329 674 392 679 l 329 667 l 364 628 l 392 582 l 392 563 l 363 563 l 300 669 l 288 669 l 288 563 m 288 789 l 288 703 l 303 703 q 354 746 354 703 q 303 789 354 789 l 288 789 z "},"¯":{"ha":833,"x_min":104,"x_max":521,"o":"m 521 822 l 104 822 l 104 942 l 521 942 l 521 822 z "},"°":{"ha":625,"x_min":160,"x_max":464,"o":"m 419 741 q 397 719 419 741 q 313 697 375 697 q 205 742 250 697 q 160 849 160 786 q 205 956 160 911 q 313 1000 250 1000 q 419 956 375 1000 q 464 849 464 913 q 419 741 464 785 m 313 774 q 362 795 343 774 q 381 849 381 817 q 362 902 381 881 q 313 924 343 924 q 262 902 281 924 q 243 849 243 881 q 262 795 243 817 q 313 774 281 774 z "},"±":{"ha":625,"x_min":69,"x_max":556,"o":"m 372 208 l 253 208 l 253 392 l 69 392 l 69 511 l 253 511 l 253 694 l 372 694 l 372 511 l 556 511 l 556 392 l 372 392 l 372 208 m 556 0 l 69 0 l 69 119 l 556 119 l 556 0 z "},"²":{"ha":625,"x_min":199,"x_max":426,"o":"m 426 486 l 199 486 l 199 532 q 203 567 199 550 q 214 596 208 585 q 231 620 219 607 q 248 639 242 633 q 268 656 254 644 q 285 669 282 667 q 310 691 293 676 q 335 713 328 706 q 351 733 342 719 q 365 759 361 746 q 368 790 368 772 q 301 851 368 853 l 206 851 l 206 901 q 301 907 244 907 q 392 874 358 907 q 426 790 426 840 q 354 656 426 714 q 336 642 350 653 q 318 628 322 632 q 303 615 314 624 q 289 601 293 606 q 278 589 285 597 q 268 574 271 581 q 263 560 265 568 q 261 543 261 551 l 426 543 l 426 486 z "},"³":{"ha":625,"x_min":199,"x_max":426,"o":"m 275 482 q 199 490 232 482 l 199 538 l 275 538 q 344 564 321 538 q 368 626 368 590 q 288 694 368 694 q 258 693 268 694 l 258 757 l 300 803 l 342 838 l 342 847 l 199 847 l 199 903 l 422 903 l 422 850 l 376 800 l 322 754 l 322 744 q 398 710 369 742 q 426 626 426 678 q 387 522 426 563 q 275 482 347 482 z "},"´":{"ha":833,"x_min":194,"x_max":429,"o":"m 258 764 l 194 764 l 194 833 l 311 1042 l 429 1042 l 429 958 l 258 764 z "},"µ":{"ha":625,"x_min":69,"x_max":556,"o":"m 194 -306 l 69 -306 l 69 694 l 194 694 l 194 225 q 271 113 194 113 q 347 225 347 113 l 347 694 l 472 694 l 472 308 q 478 180 472 218 q 497 131 483 142 q 540 119 510 119 l 556 119 l 556 7 q 506 -7 533 -7 q 451 15 475 -7 q 417 69 426 36 l 394 69 q 271 -7 356 -7 q 192 18 226 -7 l 172 0 l 194 -136 l 194 -306 z "},"¶":{"ha":625,"x_min":69,"x_max":556,"o":"m 347 0 l 222 0 l 222 367 q 69 621 69 367 q 278 903 69 903 l 347 903 l 347 0 m 556 0 l 431 0 l 431 903 l 556 903 l 556 0 z "},"·":{"ha":625,"x_min":222,"x_max":403,"o":"m 403 292 l 222 292 l 222 458 l 403 458 l 403 292 z "},"¸":{"ha":833,"x_min":182,"x_max":442,"o":"m 260 -347 q 182 -333 217 -347 l 182 -256 l 260 -256 q 338 -200 338 -256 q 260 -144 338 -144 q 182 -151 224 -144 l 182 44 l 307 44 l 307 -53 q 405 -91 368 -53 q 442 -200 442 -129 q 395 -306 442 -265 q 260 -347 349 -347 z "},"¹":{"ha":625,"x_min":200,"x_max":425,"o":"m 425 486 l 200 486 l 200 542 l 288 542 l 288 671 l 304 793 l 294 799 l 213 799 l 213 854 l 288 854 l 300 903 l 344 903 l 344 542 l 425 542 l 425 486 z "},"º":{"ha":750,"x_min":226,"x_max":524,"o":"m 226 696 q 266 848 226 788 q 375 908 306 908 q 484 847 444 908 q 524 693 524 785 q 484 541 524 601 q 375 481 444 481 q 266 542 306 481 q 226 696 226 603 m 446 696 q 426 794 446 753 q 375 836 406 836 q 324 793 344 836 q 304 693 304 750 q 324 594 304 636 q 375 553 344 553 q 426 595 407 553 q 446 696 446 638 z "},"»":{"ha":625,"x_min":69,"x_max":556,"o":"m 375 111 l 306 111 l 306 206 l 422 344 l 422 365 l 306 503 l 306 597 l 375 597 l 556 386 l 556 324 l 375 111 m 139 111 l 69 111 l 69 206 l 186 344 l 186 365 l 69 503 l 69 597 l 139 597 l 319 386 l 319 324 l 139 111 z "},"¼":{"ha":625,"x_min":69,"x_max":556,"o":"m 296 486 l 71 486 l 71 542 l 158 542 l 158 671 l 175 793 l 165 799 l 83 799 l 83 854 l 158 854 l 171 903 l 215 903 l 215 542 l 296 542 l 296 486 m 556 833 l 429 529 l 378 563 l 419 729 l 489 903 l 556 903 l 556 833 m 522 0 l 464 0 l 464 65 l 328 65 l 328 111 l 422 421 l 474 421 l 474 389 l 429 254 l 388 131 l 388 121 l 464 121 l 464 190 l 522 190 l 522 156 l 515 131 l 522 121 l 556 121 l 556 65 l 522 65 l 515 54 l 522 32 l 522 0 m 136 0 l 69 0 l 69 69 l 193 392 l 244 357 l 204 190 l 136 0 z "},"½":{"ha":635,"x_min":69,"x_max":565,"o":"m 294 486 l 69 486 l 69 542 l 157 542 l 157 671 l 174 793 l 164 799 l 82 799 l 82 854 l 157 854 l 169 903 l 214 903 l 214 542 l 294 542 l 294 486 m 557 833 l 431 529 l 379 563 l 421 729 l 490 903 l 557 903 l 557 833 m 565 0 l 338 0 l 338 46 q 342 81 338 64 q 353 110 347 99 q 369 134 358 121 q 387 153 381 147 q 407 169 393 158 q 424 183 421 181 q 449 205 432 190 q 474 226 467 219 q 490 247 481 233 q 503 273 500 260 q 507 304 507 286 q 440 365 507 367 l 344 365 l 344 415 q 440 421 383 421 q 531 388 497 421 q 565 304 565 354 q 493 169 565 228 q 475 156 489 167 q 457 142 461 146 q 442 128 453 138 q 428 115 432 119 q 417 103 424 111 q 407 88 410 94 q 402 74 404 82 q 400 57 400 65 l 565 57 l 565 0 m 138 0 l 71 0 l 71 69 l 194 392 l 246 357 l 206 190 l 138 0 z "},"¾":{"ha":625,"x_min":69,"x_max":556,"o":"m 556 833 l 429 529 l 378 563 l 419 729 l 489 903 l 556 903 l 556 833 m 146 482 q 69 490 103 482 l 69 538 l 146 538 q 215 564 192 538 q 239 626 239 590 q 158 694 239 694 q 129 693 139 694 l 129 757 l 171 803 l 213 838 l 213 847 l 69 847 l 69 903 l 293 903 l 293 850 l 247 800 l 193 754 l 193 744 q 269 710 240 742 q 297 626 297 678 q 258 522 297 563 q 146 482 218 482 m 522 0 l 464 0 l 464 65 l 328 65 l 328 111 l 422 421 l 474 421 l 474 389 l 429 254 l 388 131 l 388 121 l 464 121 l 464 190 l 522 190 l 522 156 l 515 131 l 522 121 l 556 121 l 556 65 l 522 65 l 515 54 l 522 32 l 522 0 m 136 0 l 69 0 l 69 69 l 193 392 l 244 357 l 204 190 l 136 0 z "},"¿":{"ha":625,"x_min":111,"x_max":556,"o":"m 403 528 l 222 528 l 222 694 l 403 694 l 403 528 m 389 -208 q 183 -139 254 -208 q 111 56 111 -69 q 169 278 111 181 q 294 431 226 376 l 378 431 l 378 361 q 270 210 310 282 q 231 56 231 139 q 267 -55 231 -21 q 389 -89 303 -89 l 556 -89 l 556 -194 q 389 -208 489 -208 z "},"À":{"ha":625,"x_min":69,"x_max":556,"o":"m 344 972 l 281 972 l 110 1167 l 110 1250 l 228 1250 l 344 1042 l 344 972 m 178 0 l 69 0 l 69 69 l 250 903 l 375 903 l 556 69 l 556 0 l 447 0 l 414 165 l 213 165 l 178 0 m 225 299 l 247 285 l 381 285 l 401 299 l 343 497 l 324 708 l 301 708 l 282 497 l 225 299 z "},"Á":{"ha":625,"x_min":69,"x_max":556,"o":"m 343 972 l 279 972 l 279 1042 l 396 1250 l 514 1250 l 514 1167 l 343 972 m 178 0 l 69 0 l 69 69 l 250 903 l 375 903 l 556 69 l 556 0 l 447 0 l 414 165 l 213 165 l 178 0 m 225 299 l 247 285 l 381 285 l 401 299 l 343 497 l 324 708 l 301 708 l 282 497 l 225 299 z "},"Â":{"ha":625,"x_min":69,"x_max":556,"o":"m 196 972 l 97 972 l 97 1042 l 260 1250 l 365 1250 l 528 1042 l 528 972 l 429 972 l 371 1051 l 324 1131 l 301 1131 l 254 1051 l 196 972 m 178 0 l 69 0 l 69 69 l 250 903 l 375 903 l 556 69 l 556 0 l 447 0 l 414 165 l 213 165 l 178 0 m 225 299 l 247 285 l 381 285 l 401 299 l 343 497 l 324 708 l 301 708 l 282 497 l 225 299 z "},"Ã":{"ha":625,"x_min":69,"x_max":556,"o":"m 396 1006 q 297 1043 351 1006 q 215 1081 243 1081 q 160 1013 160 1081 l 90 1013 l 90 1128 q 215 1200 136 1200 q 314 1163 260 1200 q 396 1125 368 1125 q 451 1194 451 1125 l 521 1194 l 521 1079 q 396 1006 467 1006 m 178 0 l 69 0 l 69 69 l 250 903 l 375 903 l 556 69 l 556 0 l 447 0 l 414 165 l 213 165 l 178 0 m 225 299 l 247 285 l 381 285 l 401 299 l 343 497 l 324 708 l 301 708 l 282 497 l 225 299 z "},"Ä":{"ha":625,"x_min":69,"x_max":556,"o":"m 528 1028 l 375 1028 l 375 1189 l 528 1189 l 528 1028 m 250 1028 l 97 1028 l 97 1189 l 250 1189 l 250 1028 m 178 0 l 69 0 l 69 69 l 250 903 l 375 903 l 556 69 l 556 0 l 447 0 l 414 165 l 213 165 l 178 0 m 225 299 l 247 285 l 381 285 l 401 299 l 343 497 l 324 708 l 301 708 l 282 497 l 225 299 z "},"Å":{"ha":625,"x_min":69,"x_max":556,"o":"m 410 1013 q 390 993 410 1013 q 313 972 369 972 q 215 1013 256 972 q 174 1111 174 1054 q 215 1209 174 1168 q 313 1250 256 1250 q 410 1209 369 1250 q 451 1111 451 1168 q 410 1013 451 1054 m 278 1075 q 285 1068 278 1075 q 313 1061 292 1061 q 347 1075 333 1061 q 361 1111 361 1089 q 347 1147 361 1133 q 313 1161 333 1161 q 278 1147 292 1161 q 264 1111 264 1133 q 278 1075 264 1089 m 178 0 l 69 0 l 69 69 l 250 903 l 375 903 l 556 69 l 556 0 l 447 0 l 414 165 l 213 165 l 178 0 m 225 299 l 247 285 l 381 285 l 401 299 l 343 497 l 324 708 l 301 708 l 282 497 l 225 299 z "},"Æ":{"ha":625,"x_min":42,"x_max":583,"o":"m 136 0 l 42 0 l 42 69 l 247 903 l 583 903 l 583 783 l 418 783 l 396 769 l 418 718 l 418 504 l 486 518 l 556 518 l 556 399 l 486 399 l 418 413 l 418 189 l 396 133 l 418 119 l 583 119 l 583 0 l 293 0 l 293 165 l 176 165 l 136 0 m 183 299 l 206 285 l 293 285 l 315 299 l 293 464 l 310 671 l 288 671 l 242 464 l 183 299 z "},"Ç":{"ha":625,"x_min":69,"x_max":556,"o":"m 444 -7 q 396 -4 426 -7 l 396 -53 q 494 -91 457 -53 q 531 -200 531 -129 q 484 -306 531 -265 q 349 -347 438 -347 q 271 -333 306 -347 l 271 -256 l 349 -256 q 426 -200 426 -256 q 349 -144 426 -144 q 271 -151 313 -144 l 271 32 q 122 189 174 81 q 69 451 69 297 q 165 785 69 660 q 444 910 261 910 q 556 896 514 910 l 556 790 l 444 790 q 253 697 313 790 q 194 451 194 603 q 254 207 194 301 q 444 113 314 113 l 556 113 l 556 7 q 444 -7 514 -7 z "},"È":{"ha":625,"x_min":79,"x_max":544,"o":"m 344 972 l 281 972 l 110 1167 l 110 1250 l 228 1250 l 344 1042 l 344 972 m 544 0 l 79 0 l 79 903 l 544 903 l 544 783 l 204 783 l 204 518 l 503 518 l 503 399 l 204 399 l 204 119 l 544 119 l 544 0 z "},"É":{"ha":625,"x_min":79,"x_max":544,"o":"m 343 972 l 279 972 l 279 1042 l 396 1250 l 514 1250 l 514 1167 l 343 972 m 544 0 l 79 0 l 79 903 l 544 903 l 544 783 l 204 783 l 204 518 l 503 518 l 503 399 l 204 399 l 204 119 l 544 119 l 544 0 z "},"Ê":{"ha":625,"x_min":79,"x_max":544,"o":"m 196 972 l 97 972 l 97 1042 l 260 1250 l 365 1250 l 528 1042 l 528 972 l 429 972 l 371 1051 l 324 1131 l 301 1131 l 254 1051 l 196 972 m 544 0 l 79 0 l 79 903 l 544 903 l 544 783 l 204 783 l 204 518 l 503 518 l 503 399 l 204 399 l 204 119 l 544 119 l 544 0 z "},"Ë":{"ha":625,"x_min":79,"x_max":544,"o":"m 528 1028 l 375 1028 l 375 1189 l 528 1189 l 528 1028 m 250 1028 l 97 1028 l 97 1189 l 250 1189 l 250 1028 m 544 0 l 79 0 l 79 903 l 544 903 l 544 783 l 204 783 l 204 518 l 503 518 l 503 399 l 204 399 l 204 119 l 544 119 l 544 0 z "},"Ì":{"ha":625,"x_min":74,"x_max":560,"o":"m 344 972 l 281 972 l 110 1167 l 110 1250 l 228 1250 l 344 1042 l 344 972 m 560 0 l 74 0 l 74 122 l 164 122 l 232 94 l 254 108 l 254 794 l 232 808 l 183 781 l 113 781 l 113 903 l 521 903 l 521 781 l 450 781 l 401 808 l 379 794 l 379 108 l 401 94 l 469 122 l 560 122 l 560 0 z "},"Í":{"ha":625,"x_min":74,"x_max":560,"o":"m 343 972 l 279 972 l 279 1042 l 396 1250 l 514 1250 l 514 1167 l 343 972 m 560 0 l 74 0 l 74 122 l 164 122 l 232 94 l 254 108 l 254 794 l 232 808 l 183 781 l 113 781 l 113 903 l 521 903 l 521 781 l 450 781 l 401 808 l 379 794 l 379 108 l 401 94 l 469 122 l 560 122 l 560 0 z "},"Î":{"ha":625,"x_min":74,"x_max":560,"o":"m 196 972 l 97 972 l 97 1042 l 260 1250 l 365 1250 l 528 1042 l 528 972 l 429 972 l 371 1051 l 324 1131 l 301 1131 l 254 1051 l 196 972 m 560 0 l 74 0 l 74 122 l 164 122 l 232 94 l 254 108 l 254 794 l 232 808 l 183 781 l 113 781 l 113 903 l 521 903 l 521 781 l 450 781 l 401 808 l 379 794 l 379 108 l 401 94 l 469 122 l 560 122 l 560 0 z "},"Ï":{"ha":625,"x_min":74,"x_max":560,"o":"m 528 1028 l 375 1028 l 375 1189 l 528 1189 l 528 1028 m 250 1028 l 97 1028 l 97 1189 l 250 1189 l 250 1028 m 560 0 l 74 0 l 74 122 l 164 122 l 232 94 l 254 108 l 254 794 l 232 808 l 183 781 l 113 781 l 113 903 l 521 903 l 521 781 l 450 781 l 401 808 l 379 794 l 379 108 l 401 94 l 469 122 l 560 122 l 560 0 z "},"Ð":{"ha":625,"x_min":54,"x_max":571,"o":"m 265 0 l 140 0 l 140 390 l 54 390 l 54 510 l 140 510 l 140 903 l 265 903 l 282 903 q 498 785 425 903 q 571 451 571 667 q 498 118 571 236 q 282 0 425 0 l 265 0 m 357 390 l 265 390 l 265 119 l 293 119 q 411 203 376 119 q 446 451 446 286 q 411 700 446 617 q 293 783 376 783 l 265 783 l 265 510 l 357 510 l 357 390 z "},"Ñ":{"ha":625,"x_min":69,"x_max":556,"o":"m 396 1006 q 297 1043 351 1006 q 215 1081 243 1081 q 160 1013 160 1081 l 90 1013 l 90 1128 q 215 1200 136 1200 q 314 1163 260 1200 q 396 1125 368 1125 q 451 1194 451 1125 l 521 1194 l 521 1079 q 396 1006 467 1006 m 194 0 l 69 0 l 69 903 l 153 903 l 451 311 l 474 311 l 431 607 l 431 903 l 556 903 l 556 0 l 471 0 l 175 596 l 153 596 l 194 265 l 194 0 z "},"Ò":{"ha":625,"x_min":63,"x_max":563,"o":"m 344 972 l 281 972 l 110 1167 l 110 1250 l 228 1250 l 344 1042 l 344 972 m 563 451 q 563 219 563 451 q 313 -14 563 -14 q 63 451 63 -14 q 313 917 63 917 q 563 451 563 917 m 222 190 q 240 148 222 190 q 313 106 257 106 q 403 190 368 106 q 438 451 438 275 q 403 713 438 628 q 313 797 368 797 q 222 713 257 797 q 188 451 188 628 q 222 190 188 275 z "},"Ó":{"ha":625,"x_min":63,"x_max":563,"o":"m 343 972 l 279 972 l 279 1042 l 396 1250 l 514 1250 l 514 1167 l 343 972 m 563 451 q 563 219 563 451 q 313 -14 563 -14 q 63 451 63 -14 q 313 917 63 917 q 563 451 563 917 m 222 190 q 240 148 222 190 q 313 106 257 106 q 403 190 368 106 q 438 451 438 275 q 403 713 438 628 q 313 797 368 797 q 222 713 257 797 q 188 451 188 628 q 222 190 188 275 z "},"Ô":{"ha":625,"x_min":63,"x_max":563,"o":"m 196 972 l 97 972 l 97 1042 l 260 1250 l 365 1250 l 528 1042 l 528 972 l 429 972 l 371 1051 l 324 1131 l 301 1131 l 254 1051 l 196 972 m 563 451 q 563 219 563 451 q 313 -14 563 -14 q 63 451 63 -14 q 313 917 63 917 q 563 451 563 917 m 222 190 q 240 148 222 190 q 313 106 257 106 q 403 190 368 106 q 438 451 438 275 q 403 713 438 628 q 313 797 368 797 q 222 713 257 797 q 188 451 188 628 q 222 190 188 275 z "},"Õ":{"ha":625,"x_min":63,"x_max":563,"o":"m 396 1006 q 297 1043 351 1006 q 215 1081 243 1081 q 160 1013 160 1081 l 90 1013 l 90 1128 q 215 1200 136 1200 q 314 1163 260 1200 q 396 1125 368 1125 q 451 1194 451 1125 l 521 1194 l 521 1079 q 396 1006 467 1006 m 563 451 q 563 219 563 451 q 313 -14 563 -14 q 63 451 63 -14 q 313 917 63 917 q 563 451 563 917 m 222 190 q 240 148 222 190 q 313 106 257 106 q 403 190 368 106 q 438 451 438 275 q 403 713 438 628 q 313 797 368 797 q 222 713 257 797 q 188 451 188 628 q 222 190 188 275 z "},"Ö":{"ha":625,"x_min":63,"x_max":563,"o":"m 528 1028 l 375 1028 l 375 1189 l 528 1189 l 528 1028 m 250 1028 l 97 1028 l 97 1189 l 250 1189 l 250 1028 m 563 451 q 563 219 563 451 q 313 -14 563 -14 q 63 451 63 -14 q 313 917 63 917 q 563 451 563 917 m 222 190 q 240 148 222 190 q 313 106 257 106 q 403 190 368 106 q 438 451 438 275 q 403 713 438 628 q 313 797 368 797 q 222 713 257 797 q 188 451 188 628 q 222 190 188 275 z "},"×":{"ha":625,"x_min":100,"x_max":525,"o":"m 200 208 l 100 208 l 100 275 l 232 446 l 232 467 l 100 625 l 100 694 l 199 694 l 265 600 l 299 518 l 319 518 l 354 600 l 426 694 l 525 694 l 525 625 l 386 467 l 386 446 l 525 275 l 525 208 l 425 208 l 354 304 l 319 394 l 299 394 l 264 304 l 200 208 z "},"Ø":{"ha":625,"x_min":63,"x_max":563,"o":"m 149 0 l 67 0 l 67 69 l 104 146 q 63 451 63 256 q 313 917 63 917 q 456 861 400 917 l 476 903 l 558 903 l 558 833 l 521 757 q 563 451 563 647 q 313 -14 563 -14 q 169 42 225 -14 l 149 0 m 188 451 q 193 326 188 375 l 393 733 q 313 797 363 797 q 222 713 257 797 q 188 451 188 628 m 313 106 q 403 190 368 106 q 438 451 438 275 q 432 576 438 528 l 232 169 q 313 106 263 106 z "},"Ù":{"ha":625,"x_min":69,"x_max":556,"o":"m 344 972 l 281 972 l 110 1167 l 110 1250 l 228 1250 l 344 1042 l 344 972 m 493 72 q 462 32 493 72 q 313 -7 431 -7 q 132 72 194 -7 q 69 294 69 150 l 69 903 l 194 903 l 194 294 q 196 250 194 268 q 203 203 197 232 q 221 157 210 175 q 256 126 232 139 q 313 113 279 113 q 369 126 346 113 q 404 157 393 139 q 422 203 415 175 q 429 250 428 232 q 431 294 431 268 l 431 903 l 556 903 l 556 294 q 493 72 556 150 z "},"Ú":{"ha":625,"x_min":69,"x_max":556,"o":"m 343 972 l 279 972 l 279 1042 l 396 1250 l 514 1250 l 514 1167 l 343 972 m 493 72 q 462 32 493 72 q 313 -7 431 -7 q 132 72 194 -7 q 69 294 69 150 l 69 903 l 194 903 l 194 294 q 196 250 194 268 q 203 203 197 232 q 221 157 210 175 q 256 126 232 139 q 313 113 279 113 q 369 126 346 113 q 404 157 393 139 q 422 203 415 175 q 429 250 428 232 q 431 294 431 268 l 431 903 l 556 903 l 556 294 q 493 72 556 150 z "},"Û":{"ha":625,"x_min":69,"x_max":556,"o":"m 196 972 l 97 972 l 97 1042 l 260 1250 l 365 1250 l 528 1042 l 528 972 l 429 972 l 371 1051 l 324 1131 l 301 1131 l 254 1051 l 196 972 m 493 72 q 462 32 493 72 q 313 -7 431 -7 q 132 72 194 -7 q 69 294 69 150 l 69 903 l 194 903 l 194 294 q 196 250 194 268 q 203 203 197 232 q 221 157 210 175 q 256 126 232 139 q 313 113 279 113 q 369 126 346 113 q 404 157 393 139 q 422 203 415 175 q 429 250 428 232 q 431 294 431 268 l 431 903 l 556 903 l 556 294 q 493 72 556 150 z "},"Ü":{"ha":625,"x_min":69,"x_max":556,"o":"m 528 1028 l 375 1028 l 375 1189 l 528 1189 l 528 1028 m 250 1028 l 97 1028 l 97 1189 l 250 1189 l 250 1028 m 493 72 q 462 32 493 72 q 313 -7 431 -7 q 132 72 194 -7 q 69 294 69 150 l 69 903 l 194 903 l 194 294 q 196 250 194 268 q 203 203 197 232 q 221 157 210 175 q 256 126 232 139 q 313 113 279 113 q 369 126 346 113 q 404 157 393 139 q 422 203 415 175 q 429 250 428 232 q 431 294 431 268 l 431 903 l 556 903 l 556 294 q 493 72 556 150 z "},"Ý":{"ha":625,"x_min":69,"x_max":556,"o":"m 343 972 l 279 972 l 279 1042 l 396 1250 l 514 1250 l 514 1167 l 343 972 m 375 0 l 250 0 l 250 329 l 69 833 l 69 903 l 174 903 l 251 676 l 301 451 l 324 451 l 374 676 l 451 903 l 556 903 l 556 833 l 375 331 l 375 0 z "},"Þ":{"ha":625,"x_min":69,"x_max":556,"o":"m 194 0 l 69 0 l 69 1028 l 194 1028 l 194 824 l 238 824 q 473 740 390 824 q 556 514 556 656 q 473 288 556 372 q 238 204 390 204 l 194 204 l 194 0 m 251 703 l 194 703 l 194 325 l 251 325 q 389 374 347 326 q 431 514 431 422 q 389 653 431 606 q 251 703 347 701 z "},"ß":{"ha":625,"x_min":56,"x_max":542,"o":"m 292 -7 q 224 0 256 -7 l 224 113 l 292 113 q 386 148 356 117 q 417 268 417 179 q 373 381 417 347 q 238 414 329 414 l 238 519 q 375 656 375 519 q 373 706 375 688 q 362 745 371 725 q 332 774 353 765 q 278 783 311 783 q 224 774 244 783 q 194 745 203 765 q 183 706 185 725 q 181 656 181 688 l 181 0 l 56 0 l 56 656 q 116 841 56 779 q 278 903 176 903 q 440 841 379 903 q 500 656 500 779 q 431 479 500 539 q 542 268 542 428 q 477 69 542 144 q 292 -7 413 -7 z "},"à":{"ha":625,"x_min":69,"x_max":556,"o":"m 374 764 l 310 764 l 139 958 l 139 1042 l 257 1042 l 374 833 l 374 764 m 242 -7 q 119 49 168 -7 q 69 196 69 106 q 311 443 69 379 l 426 443 l 440 465 q 271 582 417 582 l 106 583 l 106 689 q 271 701 174 701 q 478 626 401 701 q 556 408 556 550 l 556 0 l 453 0 l 453 69 l 431 69 q 242 -7 343 -7 m 283 106 q 358 127 315 106 q 431 186 401 149 l 431 346 l 311 313 q 194 196 194 281 q 283 106 194 106 z "},"á":{"ha":625,"x_min":69,"x_max":556,"o":"m 306 764 l 242 764 l 242 833 l 358 1042 l 476 1042 l 476 958 l 306 764 m 242 -7 q 119 49 168 -7 q 69 196 69 106 q 311 443 69 379 l 426 443 l 440 465 q 271 582 417 582 l 106 583 l 106 689 q 271 701 174 701 q 478 626 401 701 q 556 408 556 550 l 556 0 l 453 0 l 453 69 l 431 69 q 242 -7 343 -7 m 283 106 q 358 127 315 106 q 431 186 401 149 l 431 346 l 311 313 q 194 196 194 281 q 283 106 194 106 z "},"â":{"ha":625,"x_min":69,"x_max":556,"o":"m 196 764 l 97 764 l 97 833 l 260 1042 l 365 1042 l 528 833 l 528 764 l 429 764 l 371 843 l 324 922 l 301 922 l 254 843 l 196 764 m 242 -7 q 119 49 168 -7 q 69 196 69 106 q 311 443 69 379 l 426 443 l 440 465 q 271 582 417 582 l 106 583 l 106 689 q 271 701 174 701 q 478 626 401 701 q 556 408 556 550 l 556 0 l 453 0 l 453 69 l 431 69 q 242 -7 343 -7 m 283 106 q 358 127 315 106 q 431 186 401 149 l 431 346 l 311 313 q 194 196 194 281 q 283 106 194 106 z "},"ã":{"ha":625,"x_min":69,"x_max":556,"o":"m 403 814 q 304 851 358 814 q 222 889 250 889 q 167 821 167 889 l 97 821 l 97 936 q 222 1008 142 1008 q 321 971 267 1008 q 403 933 375 933 q 458 1003 458 933 l 528 1003 l 528 888 q 403 814 474 814 m 242 -7 q 119 49 168 -7 q 69 196 69 106 q 311 443 69 379 l 426 443 l 440 465 q 271 582 417 582 l 106 583 l 106 689 q 271 701 174 701 q 478 626 401 701 q 556 408 556 550 l 556 0 l 453 0 l 453 69 l 431 69 q 242 -7 343 -7 m 283 106 q 358 127 315 106 q 431 186 401 149 l 431 346 l 311 313 q 194 196 194 281 q 283 106 194 106 z "},"ä":{"ha":625,"x_min":69,"x_max":556,"o":"m 528 819 l 375 819 l 375 981 l 528 981 l 528 819 m 250 819 l 97 819 l 97 981 l 250 981 l 250 819 m 242 -7 q 119 49 168 -7 q 69 196 69 106 q 311 443 69 379 l 426 443 l 440 465 q 271 582 417 582 l 106 583 l 106 689 q 271 701 174 701 q 478 626 401 701 q 556 408 556 550 l 556 0 l 453 0 l 453 69 l 431 69 q 242 -7 343 -7 m 283 106 q 358 127 315 106 q 431 186 401 149 l 431 346 l 311 313 q 194 196 194 281 q 283 106 194 106 z "},"å":{"ha":625,"x_min":69,"x_max":556,"o":"m 410 805 q 390 784 410 805 q 313 764 369 764 q 215 805 256 764 q 174 903 174 846 q 215 1001 174 960 q 313 1042 256 1042 q 410 1001 369 1042 q 451 903 451 960 q 410 805 451 846 m 278 867 q 285 860 278 867 q 313 853 292 853 q 347 867 333 853 q 361 903 361 881 q 347 939 361 925 q 313 953 333 953 q 278 939 292 953 q 264 903 264 925 q 278 867 264 881 m 242 -7 q 119 49 168 -7 q 69 196 69 106 q 311 443 69 379 l 426 443 l 440 465 q 271 582 417 582 l 106 583 l 106 689 q 271 701 174 701 q 478 626 401 701 q 556 408 556 550 l 556 0 l 453 0 l 453 69 l 431 69 q 242 -7 343 -7 m 283 106 q 358 127 315 106 q 431 186 401 149 l 431 346 l 311 313 q 194 196 194 281 q 283 106 194 106 z "},"æ":{"ha":625,"x_min":69,"x_max":556,"o":"m 222 -7 q 115 51 160 -7 q 69 194 69 108 q 208 401 69 360 l 264 418 q 239 567 261 531 q 160 604 217 604 l 92 606 l 92 689 q 160 701 126 701 q 304 624 258 701 q 419 701 342 701 q 526 619 497 701 q 556 321 556 536 l 419 278 l 369 267 l 353 239 q 356 210 354 232 q 359 181 358 189 q 364 157 360 174 q 372 134 368 140 q 385 117 376 128 q 403 101 393 106 q 430 94 414 97 q 465 90 446 90 l 535 90 l 535 8 q 465 -7 506 -7 q 328 50 376 -7 q 222 -7 294 -7 m 347 356 l 468 392 q 460 553 468 503 q 419 604 451 604 q 368 540 388 604 q 347 356 349 475 m 167 194 q 187 117 167 143 q 236 90 207 90 q 292 117 264 90 q 264 318 267 188 l 238 310 q 213 300 221 304 q 192 284 206 296 q 173 250 179 272 q 167 194 167 228 z "},"ç":{"ha":625,"x_min":97,"x_max":529,"o":"m 413 -7 l 394 -7 l 394 -53 q 492 -91 456 -53 q 529 -200 529 -129 q 483 -306 529 -265 q 347 -347 436 -347 q 269 -333 304 -347 l 269 -256 l 347 -256 q 425 -200 425 -256 q 347 -144 425 -144 q 269 -151 311 -144 l 269 24 q 143 146 189 63 q 97 347 97 229 q 185 608 97 514 q 413 701 272 701 q 528 688 471 701 l 528 582 l 413 582 q 274 519 325 582 q 222 347 222 457 q 274 175 222 238 q 413 113 325 113 l 528 113 l 528 7 q 413 -7 471 -7 z "},"è":{"ha":625,"x_min":75,"x_max":547,"o":"m 374 764 l 310 764 l 139 958 l 139 1042 l 257 1042 l 374 833 l 374 764 m 360 -7 q 138 85 201 -7 q 75 347 75 178 q 318 701 75 701 q 502 616 447 701 q 547 321 557 531 l 369 278 l 208 267 l 186 253 q 237 159 186 204 q 360 114 288 114 l 519 114 l 519 8 q 360 -7 431 -7 m 200 369 l 431 419 q 403 543 435 504 q 318 582 371 582 q 200 369 201 582 z "},"é":{"ha":625,"x_min":75,"x_max":547,"o":"m 306 764 l 242 764 l 242 833 l 358 1042 l 476 1042 l 476 958 l 306 764 m 360 -7 q 138 85 201 -7 q 75 347 75 178 q 318 701 75 701 q 502 616 447 701 q 547 321 557 531 l 369 278 l 208 267 l 186 253 q 237 159 186 204 q 360 114 288 114 l 519 114 l 519 8 q 360 -7 431 -7 m 200 369 l 431 419 q 403 543 435 504 q 318 582 371 582 q 200 369 201 582 z "},"ê":{"ha":625,"x_min":75,"x_max":547,"o":"m 196 764 l 97 764 l 97 833 l 260 1042 l 365 1042 l 528 833 l 528 764 l 429 764 l 371 843 l 324 922 l 301 922 l 254 843 l 196 764 m 360 -7 q 138 85 201 -7 q 75 347 75 178 q 318 701 75 701 q 502 616 447 701 q 547 321 557 531 l 369 278 l 208 267 l 186 253 q 237 159 186 204 q 360 114 288 114 l 519 114 l 519 8 q 360 -7 431 -7 m 200 369 l 431 419 q 403 543 435 504 q 318 582 371 582 q 200 369 201 582 z "},"ë":{"ha":625,"x_min":75,"x_max":547,"o":"m 528 819 l 375 819 l 375 981 l 528 981 l 528 819 m 250 819 l 97 819 l 97 981 l 250 981 l 250 819 m 360 -7 q 138 85 201 -7 q 75 347 75 178 q 318 701 75 701 q 502 616 447 701 q 547 321 557 531 l 369 278 l 208 267 l 186 253 q 237 159 186 204 q 360 114 288 114 l 519 114 l 519 8 q 360 -7 431 -7 m 200 369 l 431 419 q 403 543 435 504 q 318 582 371 582 q 200 369 201 582 z "},"ì":{"ha":625,"x_min":69,"x_max":556,"o":"m 374 764 l 310 764 l 139 958 l 139 1042 l 257 1042 l 374 833 l 374 764 m 556 0 l 69 0 l 69 122 l 257 122 l 257 346 l 279 561 l 257 575 l 69 575 l 69 694 l 382 694 l 382 122 l 556 122 l 556 0 z "},"í":{"ha":625,"x_min":69,"x_max":556,"o":"m 306 764 l 242 764 l 242 833 l 358 1042 l 476 1042 l 476 958 l 306 764 m 556 0 l 69 0 l 69 122 l 257 122 l 257 346 l 279 561 l 257 575 l 69 575 l 69 694 l 382 694 l 382 122 l 556 122 l 556 0 z "},"î":{"ha":625,"x_min":69,"x_max":556,"o":"m 196 764 l 97 764 l 97 833 l 260 1042 l 365 1042 l 528 833 l 528 764 l 429 764 l 371 843 l 324 922 l 301 922 l 254 843 l 196 764 m 556 0 l 69 0 l 69 122 l 257 122 l 257 346 l 279 561 l 257 575 l 69 575 l 69 694 l 382 694 l 382 122 l 556 122 l 556 0 z "},"ï":{"ha":625,"x_min":69,"x_max":556,"o":"m 528 819 l 375 819 l 375 981 l 528 981 l 528 819 m 250 819 l 97 819 l 97 981 l 250 981 l 250 819 m 556 0 l 69 0 l 69 122 l 257 122 l 257 346 l 279 561 l 257 575 l 69 575 l 69 694 l 382 694 l 382 122 l 556 122 l 556 0 z "},"ð":{"ha":625,"x_min":69,"x_max":556,"o":"m 556 343 q 313 -7 556 -7 q 69 343 69 -7 q 132 599 69 511 q 319 688 194 688 l 326 688 q 247 793 293 739 l 139 733 l 69 733 l 69 828 l 163 879 q 75 953 129 911 l 75 1028 l 169 1028 q 267 938 213 992 l 406 1015 l 475 1015 l 475 917 l 350 849 q 556 343 556 607 m 194 343 q 210 192 194 244 q 248 126 225 140 q 313 113 271 113 q 376 126 353 113 q 415 192 399 140 q 431 343 431 244 q 390 560 431 454 q 319 575 361 575 q 224 525 253 575 q 194 343 194 475 z "},"ñ":{"ha":625,"x_min":69,"x_max":556,"o":"m 401 814 q 303 851 357 814 q 221 889 249 889 q 165 821 165 889 l 96 821 l 96 936 q 221 1008 142 1008 q 319 971 265 1008 q 401 933 374 933 q 457 1003 457 933 l 526 1003 l 526 888 q 401 814 472 814 m 194 0 l 69 0 l 69 694 l 181 694 l 181 629 l 203 629 q 357 701 269 701 q 508 628 460 701 q 556 440 556 556 l 556 0 l 431 0 l 431 440 q 411 551 431 519 q 350 582 392 582 q 194 528 268 582 l 194 0 z "},"ò":{"ha":625,"x_min":69,"x_max":556,"o":"m 374 764 l 310 764 l 139 958 l 139 1042 l 257 1042 l 374 833 l 374 764 m 492 93 q 460 43 492 93 q 313 -7 428 -7 q 133 94 197 -7 q 69 349 69 194 q 133 601 69 501 q 313 701 197 701 q 492 600 428 701 q 556 346 556 499 q 492 93 556 193 m 227 181 q 243 147 227 181 q 313 113 260 113 q 398 182 365 113 q 431 349 431 251 q 398 513 431 444 q 313 582 365 582 q 227 512 260 582 q 194 346 194 442 q 227 181 194 250 z "},"ó":{"ha":625,"x_min":69,"x_max":556,"o":"m 306 764 l 242 764 l 242 833 l 358 1042 l 476 1042 l 476 958 l 306 764 m 492 93 q 460 43 492 93 q 313 -7 428 -7 q 133 94 197 -7 q 69 349 69 194 q 133 601 69 501 q 313 701 197 701 q 492 600 428 701 q 556 346 556 499 q 492 93 556 193 m 227 181 q 243 147 227 181 q 313 113 260 113 q 398 182 365 113 q 431 349 431 251 q 398 513 431 444 q 313 582 365 582 q 227 512 260 582 q 194 346 194 442 q 227 181 194 250 z "},"ô":{"ha":625,"x_min":69,"x_max":556,"o":"m 196 764 l 97 764 l 97 833 l 260 1042 l 365 1042 l 528 833 l 528 764 l 429 764 l 371 843 l 324 922 l 301 922 l 254 843 l 196 764 m 492 93 q 460 43 492 93 q 313 -7 428 -7 q 133 94 197 -7 q 69 349 69 194 q 133 601 69 501 q 313 701 197 701 q 492 600 428 701 q 556 346 556 499 q 492 93 556 193 m 227 181 q 243 147 227 181 q 313 113 260 113 q 398 182 365 113 q 431 349 431 251 q 398 513 431 444 q 313 582 365 582 q 227 512 260 582 q 194 346 194 442 q 227 181 194 250 z "},"õ":{"ha":625,"x_min":69,"x_max":556,"o":"m 403 814 q 304 851 358 814 q 222 889 250 889 q 167 821 167 889 l 97 821 l 97 936 q 222 1008 142 1008 q 321 971 267 1008 q 403 933 375 933 q 458 1003 458 933 l 528 1003 l 528 888 q 403 814 474 814 m 492 93 q 460 43 492 93 q 313 -7 428 -7 q 133 94 197 -7 q 69 349 69 194 q 133 601 69 501 q 313 701 197 701 q 492 600 428 701 q 556 346 556 499 q 492 93 556 193 m 227 181 q 243 147 227 181 q 313 113 260 113 q 398 182 365 113 q 431 349 431 251 q 398 513 431 444 q 313 582 365 582 q 227 512 260 582 q 194 346 194 442 q 227 181 194 250 z "},"ö":{"ha":625,"x_min":69,"x_max":556,"o":"m 528 819 l 375 819 l 375 981 l 528 981 l 528 819 m 250 819 l 97 819 l 97 981 l 250 981 l 250 819 m 492 93 q 460 43 492 93 q 313 -7 428 -7 q 133 94 197 -7 q 69 349 69 194 q 133 601 69 501 q 313 701 197 701 q 492 600 428 701 q 556 346 556 499 q 492 93 556 193 m 227 181 q 243 147 227 181 q 313 113 260 113 q 398 182 365 113 q 431 349 431 251 q 398 513 431 444 q 313 582 365 582 q 227 512 260 582 q 194 346 194 442 q 227 181 194 250 z "},"÷":{"ha":625,"x_min":69,"x_max":556,"o":"m 403 579 l 222 579 l 222 746 l 403 746 l 403 579 m 556 390 l 69 390 l 69 510 l 556 510 l 556 390 m 403 154 l 222 154 l 222 321 l 403 321 l 403 154 z "},"ø":{"ha":625,"x_min":69,"x_max":556,"o":"m 165 0 l 83 0 l 83 69 l 115 124 q 69 349 69 215 q 133 601 69 501 q 313 701 197 701 q 439 660 385 701 l 460 694 l 542 694 l 542 625 l 508 571 q 556 346 556 478 q 492 93 556 193 q 313 -7 428 -7 q 186 35 240 -7 l 165 0 m 194 346 q 201 265 194 307 l 374 551 q 313 582 346 582 q 227 512 260 582 q 194 346 194 442 m 313 113 q 398 182 365 113 q 431 349 431 251 q 424 429 431 388 l 251 143 q 313 113 279 113 z "},"ù":{"ha":625,"x_min":69,"x_max":556,"o":"m 374 764 l 310 764 l 139 958 l 139 1042 l 257 1042 l 374 833 l 374 764 m 268 -7 q 117 66 165 -7 q 69 254 69 139 l 69 694 l 194 694 l 194 254 q 214 144 194 175 q 275 113 233 113 q 431 167 357 113 l 431 694 l 556 694 l 556 0 l 444 0 l 444 65 l 422 65 q 268 -7 356 -7 z "},"ú":{"ha":625,"x_min":69,"x_max":556,"o":"m 306 764 l 242 764 l 242 833 l 358 1042 l 476 1042 l 476 958 l 306 764 m 268 -7 q 117 66 165 -7 q 69 254 69 139 l 69 694 l 194 694 l 194 254 q 214 144 194 175 q 275 113 233 113 q 431 167 357 113 l 431 694 l 556 694 l 556 0 l 444 0 l 444 65 l 422 65 q 268 -7 356 -7 z "},"û":{"ha":625,"x_min":69,"x_max":556,"o":"m 196 764 l 97 764 l 97 833 l 260 1042 l 365 1042 l 528 833 l 528 764 l 429 764 l 371 843 l 324 922 l 301 922 l 254 843 l 196 764 m 268 -7 q 117 66 165 -7 q 69 254 69 139 l 69 694 l 194 694 l 194 254 q 214 144 194 175 q 275 113 233 113 q 431 167 357 113 l 431 694 l 556 694 l 556 0 l 444 0 l 444 65 l 422 65 q 268 -7 356 -7 z "},"ü":{"ha":625,"x_min":69,"x_max":556,"o":"m 528 819 l 375 819 l 375 981 l 528 981 l 528 819 m 250 819 l 97 819 l 97 981 l 250 981 l 250 819 m 268 -7 q 117 66 165 -7 q 69 254 69 139 l 69 694 l 194 694 l 194 254 q 214 144 194 175 q 275 113 233 113 q 431 167 357 113 l 431 694 l 556 694 l 556 0 l 444 0 l 444 65 l 422 65 q 268 -7 356 -7 z "},"ý":{"ha":625,"x_min":69,"x_max":556,"o":"m 306 764 l 242 764 l 242 833 l 358 1042 l 476 1042 l 476 958 l 306 764 m 283 -306 l 178 -306 l 178 -236 l 267 40 l 69 625 l 69 694 l 172 694 l 324 232 l 451 694 l 556 694 l 556 625 l 283 -306 z "},"þ":{"ha":625,"x_min":69,"x_max":556,"o":"m 194 0 l 69 0 l 69 1028 l 194 1028 l 194 818 l 217 818 q 317 868 236 868 q 494 776 432 868 q 556 511 556 683 q 303 161 556 161 q 194 175 242 161 l 194 0 m 194 700 l 194 281 l 275 281 q 400 328 369 281 q 431 511 431 375 q 403 692 431 636 q 317 749 375 749 q 194 700 246 749 z "},"ÿ":{"ha":625,"x_min":69,"x_max":556,"o":"m 528 819 l 375 819 l 375 981 l 528 981 l 528 819 m 250 819 l 97 819 l 97 981 l 250 981 l 250 819 m 283 -306 l 178 -306 l 178 -236 l 267 40 l 69 625 l 69 694 l 172 694 l 324 232 l 451 694 l 556 694 l 556 625 l 283 -306 z "},"Ā":{"ha":625,"x_min":69,"x_max":556,"o":"m 521 1028 l 104 1028 l 104 1147 l 521 1147 l 521 1028 m 178 0 l 69 0 l 69 69 l 250 903 l 375 903 l 556 69 l 556 0 l 447 0 l 414 165 l 213 165 l 178 0 m 225 299 l 247 285 l 381 285 l 401 299 l 343 497 l 324 708 l 301 708 l 282 497 l 225 299 z "},"ā":{"ha":625,"x_min":69,"x_max":556,"o":"m 521 822 l 104 822 l 104 942 l 521 942 l 521 822 m 242 -7 q 119 49 168 -7 q 69 196 69 106 q 311 443 69 379 l 426 443 l 440 465 q 271 582 417 582 l 106 583 l 106 689 q 271 701 174 701 q 478 626 401 701 q 556 408 556 550 l 556 0 l 453 0 l 453 69 l 431 69 q 242 -7 343 -7 m 283 106 q 358 127 315 106 q 431 186 401 149 l 431 346 l 311 313 q 194 196 194 281 q 283 106 194 106 z "},"Ă":{"ha":625,"x_min":69,"x_max":556,"o":"m 313 972 q 142 1050 201 972 q 83 1250 83 1128 l 203 1250 q 313 1092 203 1092 q 422 1250 422 1092 l 542 1250 q 482 1051 542 1129 q 313 972 422 972 m 178 0 l 69 0 l 69 69 l 250 903 l 375 903 l 556 69 l 556 0 l 447 0 l 414 165 l 213 165 l 178 0 m 225 299 l 247 285 l 381 285 l 401 299 l 343 497 l 324 708 l 301 708 l 282 497 l 225 299 z "},"ă":{"ha":625,"x_min":69,"x_max":556,"o":"m 313 764 q 142 842 201 764 q 83 1042 83 919 l 203 1042 q 313 883 203 883 q 422 1042 422 883 l 542 1042 q 482 842 542 921 q 313 764 422 764 m 242 -7 q 119 49 168 -7 q 69 196 69 106 q 311 443 69 379 l 426 443 l 440 465 q 271 582 417 582 l 106 583 l 106 689 q 271 701 174 701 q 478 626 401 701 q 556 408 556 550 l 556 0 l 453 0 l 453 69 l 431 69 q 242 -7 343 -7 m 283 106 q 358 127 315 106 q 431 186 401 149 l 431 346 l 311 313 q 194 196 194 281 q 283 106 194 106 z "},"Ą":{"ha":625,"x_min":69,"x_max":556,"o":"m 178 0 l 69 0 l 69 69 l 250 903 l 375 903 l 556 69 l 556 0 q 453 -75 488 -43 q 413 -146 418 -107 q 428 -210 407 -186 q 493 -235 450 -235 l 547 -235 l 547 -340 q 479 -354 518 -354 q 333 -303 379 -354 q 293 -174 286 -253 q 346 -70 297 -115 q 447 0 394 -25 l 414 165 l 213 165 l 178 0 m 225 299 l 247 285 l 381 285 l 401 299 l 343 497 l 324 708 l 301 708 l 282 497 l 225 299 z "},"ą":{"ha":625,"x_min":69,"x_max":556,"o":"m 242 -7 q 119 49 168 -7 q 69 196 69 106 q 311 443 69 379 l 426 443 l 440 465 q 271 582 417 582 l 106 583 l 106 689 q 271 701 174 701 q 478 626 401 701 q 556 408 556 550 l 556 0 q 453 -75 488 -43 q 413 -146 418 -107 q 428 -210 407 -186 q 493 -235 450 -235 l 547 -235 l 547 -340 q 479 -354 518 -354 q 333 -303 379 -354 q 293 -174 286 -253 q 453 4 301 -74 l 453 69 l 431 69 q 242 -7 343 -7 m 283 106 q 358 127 315 106 q 431 186 401 149 l 431 346 l 311 313 q 194 196 194 281 q 283 106 194 106 z "},"Ć":{"ha":625,"x_min":69,"x_max":590,"o":"m 419 972 l 356 972 l 356 1042 l 472 1250 l 590 1250 l 590 1167 l 419 972 m 444 -7 q 168 115 267 -7 q 69 451 69 236 q 165 785 69 660 q 444 910 261 910 q 556 896 514 910 l 556 790 l 444 790 q 253 697 313 790 q 194 451 194 603 q 254 207 194 301 q 444 113 314 113 l 556 113 l 556 7 q 444 -7 514 -7 z "},"ć":{"ha":625,"x_min":97,"x_max":532,"o":"m 361 764 l 297 764 l 297 833 l 414 1042 l 532 1042 l 532 958 l 361 764 m 413 -7 q 185 87 272 -7 q 97 347 97 181 q 185 608 97 514 q 413 701 272 701 q 528 688 471 701 l 528 582 l 413 582 q 274 519 325 582 q 222 347 222 457 q 274 175 222 238 q 413 113 325 113 l 528 113 l 528 7 q 413 -7 471 -7 z "},"Ĉ":{"ha":625,"x_min":69,"x_max":604,"o":"m 272 972 l 174 972 l 174 1042 l 336 1250 l 442 1250 l 604 1042 l 604 972 l 506 972 l 447 1051 l 400 1131 l 378 1131 l 331 1051 l 272 972 m 444 -7 q 168 115 267 -7 q 69 451 69 236 q 165 785 69 660 q 444 910 261 910 q 556 896 514 910 l 556 790 l 444 790 q 253 697 313 790 q 194 451 194 603 q 254 207 194 301 q 444 113 314 113 l 556 113 l 556 7 q 444 -7 514 -7 z "},"ĉ":{"ha":625,"x_min":97,"x_max":583,"o":"m 251 764 l 153 764 l 153 833 l 315 1042 l 421 1042 l 583 833 l 583 764 l 485 764 l 426 843 l 379 922 l 357 922 l 310 843 l 251 764 m 413 -7 q 185 87 272 -7 q 97 347 97 181 q 185 608 97 514 q 413 701 272 701 q 528 688 471 701 l 528 582 l 413 582 q 274 519 325 582 q 222 347 222 457 q 274 175 222 238 q 413 113 325 113 l 528 113 l 528 7 q 413 -7 471 -7 z "},"Ċ":{"ha":625,"x_min":69,"x_max":556,"o":"m 465 1029 l 313 1029 l 313 1190 l 465 1190 l 465 1029 m 444 -7 q 168 115 267 -7 q 69 451 69 236 q 165 785 69 660 q 444 910 261 910 q 556 896 514 910 l 556 790 l 444 790 q 253 697 313 790 q 194 451 194 603 q 254 207 194 301 q 444 113 314 113 l 556 113 l 556 7 q 444 -7 514 -7 z "},"ċ":{"ha":625,"x_min":97,"x_max":528,"o":"m 444 822 l 292 822 l 292 983 l 444 983 l 444 822 m 413 -7 q 185 87 272 -7 q 97 347 97 181 q 185 608 97 514 q 413 701 272 701 q 528 688 471 701 l 528 582 l 413 582 q 274 519 325 582 q 222 347 222 457 q 274 175 222 238 q 413 113 325 113 l 528 113 l 528 7 q 413 -7 471 -7 z "},"Č":{"ha":625,"x_min":69,"x_max":604,"o":"m 442 972 l 336 972 l 174 1181 l 174 1250 l 272 1250 l 331 1171 l 378 1092 l 400 1092 l 447 1171 l 506 1250 l 604 1250 l 604 1181 l 442 972 m 444 -7 q 168 115 267 -7 q 69 451 69 236 q 165 785 69 660 q 444 910 261 910 q 556 896 514 910 l 556 790 l 444 790 q 253 697 313 790 q 194 451 194 603 q 254 207 194 301 q 444 113 314 113 l 556 113 l 556 7 q 444 -7 514 -7 z "},"č":{"ha":625,"x_min":97,"x_max":583,"o":"m 421 763 l 315 763 l 153 971 l 153 1040 l 251 1040 l 310 961 l 357 882 l 379 882 l 426 961 l 485 1040 l 583 1040 l 583 971 l 421 763 m 413 -7 q 185 87 272 -7 q 97 347 97 181 q 185 608 97 514 q 413 701 272 701 q 528 688 471 701 l 528 582 l 413 582 q 274 519 325 582 q 222 347 222 457 q 274 175 222 238 q 413 113 325 113 l 528 113 l 528 7 q 413 -7 471 -7 z "},"Ď":{"ha":625,"x_min":69,"x_max":556,"o":"m 338 972 l 232 972 l 69 1181 l 69 1250 l 168 1250 l 226 1171 l 274 1092 l 296 1092 l 343 1171 l 401 1250 l 500 1250 l 500 1181 l 338 972 m 211 -7 q 69 7 121 -7 l 69 896 q 211 910 121 910 q 467 791 378 910 q 556 451 556 672 q 467 112 556 231 q 211 -7 378 -7 m 222 790 l 194 790 l 194 113 l 222 113 q 376 202 321 113 q 431 451 431 292 q 376 701 431 611 q 222 790 321 790 z "},"ď":{"ha":625,"x_min":69,"x_max":731,"o":"m 308 -6 q 131 83 193 -6 q 69 344 69 172 q 322 694 69 694 q 431 681 378 694 l 431 1000 l 556 1000 l 556 0 l 453 0 l 453 53 l 431 53 q 308 -6 401 -6 m 675 722 l 592 722 l 592 1000 l 731 1000 l 731 917 l 675 722 m 308 114 q 431 157 382 114 l 431 575 l 350 575 q 225 528 256 575 q 194 344 194 481 q 222 167 194 221 q 308 114 250 114 z "},"Đ":{"ha":625,"x_min":54,"x_max":571,"o":"m 265 0 l 140 0 l 140 390 l 54 390 l 54 510 l 140 510 l 140 903 l 265 903 l 282 903 q 498 785 425 903 q 571 451 571 667 q 498 118 571 236 q 282 0 425 0 l 265 0 m 357 390 l 265 390 l 265 119 l 293 119 q 411 203 376 119 q 446 451 446 286 q 411 700 446 617 q 293 783 376 783 l 265 783 l 265 510 l 357 510 l 357 390 z "},"đ":{"ha":625,"x_min":69,"x_max":556,"o":"m 308 -6 q 131 83 193 -6 q 69 344 69 172 q 322 694 69 694 q 431 681 378 694 l 431 801 l 97 801 l 97 913 l 431 913 l 431 1000 l 556 1000 l 556 0 l 453 0 l 453 53 l 431 53 q 308 -6 401 -6 m 308 114 q 431 157 382 114 l 431 575 l 350 575 q 225 528 256 575 q 194 344 194 481 q 222 167 194 221 q 308 114 250 114 z "},"Ē":{"ha":625,"x_min":79,"x_max":544,"o":"m 521 1028 l 104 1028 l 104 1147 l 521 1147 l 521 1028 m 544 0 l 79 0 l 79 903 l 544 903 l 544 783 l 204 783 l 204 518 l 503 518 l 503 399 l 204 399 l 204 119 l 544 119 l 544 0 z "},"ē":{"ha":625,"x_min":75,"x_max":547,"o":"m 521 822 l 104 822 l 104 942 l 521 942 l 521 822 m 360 -7 q 138 85 201 -7 q 75 347 75 178 q 318 701 75 701 q 502 616 447 701 q 547 321 557 531 l 369 278 l 208 267 l 186 253 q 237 159 186 204 q 360 114 288 114 l 519 114 l 519 8 q 360 -7 431 -7 m 200 369 l 431 419 q 403 543 435 504 q 318 582 371 582 q 200 369 201 582 z "},"Ĕ":{"ha":625,"x_min":79,"x_max":544,"o":"m 313 972 q 142 1050 201 972 q 83 1250 83 1128 l 203 1250 q 313 1092 203 1092 q 422 1250 422 1092 l 542 1250 q 482 1051 542 1129 q 313 972 422 972 m 544 0 l 79 0 l 79 903 l 544 903 l 544 783 l 204 783 l 204 518 l 503 518 l 503 399 l 204 399 l 204 119 l 544 119 l 544 0 z "},"ĕ":{"ha":625,"x_min":75,"x_max":547,"o":"m 313 764 q 142 842 201 764 q 83 1042 83 919 l 203 1042 q 313 883 203 883 q 422 1042 422 883 l 542 1042 q 482 842 542 921 q 313 764 422 764 m 360 -7 q 138 85 201 -7 q 75 347 75 178 q 318 701 75 701 q 502 616 447 701 q 547 321 557 531 l 369 278 l 208 267 l 186 253 q 237 159 186 204 q 360 114 288 114 l 519 114 l 519 8 q 360 -7 431 -7 m 200 369 l 431 419 q 403 543 435 504 q 318 582 371 582 q 200 369 201 582 z "},"Ė":{"ha":625,"x_min":79,"x_max":544,"o":"m 389 1029 l 236 1029 l 236 1190 l 389 1190 l 389 1029 m 544 0 l 79 0 l 79 903 l 544 903 l 544 783 l 204 783 l 204 518 l 503 518 l 503 399 l 204 399 l 204 119 l 544 119 l 544 0 z "},"ė":{"ha":625,"x_min":75,"x_max":547,"o":"m 389 822 l 236 822 l 236 983 l 389 983 l 389 822 m 360 -7 q 138 85 201 -7 q 75 347 75 178 q 318 701 75 701 q 502 616 447 701 q 547 321 557 531 l 369 278 l 208 267 l 186 253 q 237 159 186 204 q 360 114 288 114 l 519 114 l 519 8 q 360 -7 431 -7 m 200 369 l 431 419 q 403 543 435 504 q 318 582 371 582 q 200 369 201 582 z "},"Ę":{"ha":625,"x_min":79,"x_max":544,"o":"m 468 -354 q 322 -303 368 -354 q 282 -174 275 -253 q 335 -70 286 -115 q 436 0 383 -25 l 79 0 l 79 903 l 544 903 l 544 783 l 204 783 l 204 518 l 503 518 l 503 399 l 204 399 l 204 119 l 544 119 l 544 0 q 442 -75 476 -43 q 401 -146 407 -107 q 417 -210 396 -186 q 482 -235 439 -235 l 536 -235 l 536 -340 q 468 -354 507 -354 z "},"ę":{"ha":625,"x_min":75,"x_max":547,"o":"m 360 -7 q 138 85 201 -7 q 75 347 75 178 q 318 701 75 701 q 502 616 447 701 q 547 321 557 531 l 369 278 l 208 267 l 186 253 q 237 159 186 204 q 360 114 288 114 l 519 114 l 519 8 q 417 -67 451 -35 q 376 -137 382 -99 q 392 -202 371 -178 q 457 -226 414 -226 l 511 -226 l 511 -332 q 443 -346 482 -346 q 297 -295 343 -346 q 257 -165 250 -244 q 382 -7 264 -82 l 360 -7 m 200 369 l 431 419 q 403 543 435 504 q 318 582 371 582 q 200 369 201 582 z "},"Ě":{"ha":625,"x_min":79,"x_max":544,"o":"m 365 972 l 260 972 l 97 1181 l 97 1250 l 196 1250 l 254 1171 l 301 1092 l 324 1092 l 371 1171 l 429 1250 l 528 1250 l 528 1181 l 365 972 m 544 0 l 79 0 l 79 903 l 544 903 l 544 783 l 204 783 l 204 518 l 503 518 l 503 399 l 204 399 l 204 119 l 544 119 l 544 0 z "},"ě":{"ha":625,"x_min":75,"x_max":547,"o":"m 365 763 l 260 763 l 97 971 l 97 1040 l 196 1040 l 254 961 l 301 882 l 324 882 l 371 961 l 429 1040 l 528 1040 l 528 971 l 365 763 m 360 -7 q 138 85 201 -7 q 75 347 75 178 q 318 701 75 701 q 502 616 447 701 q 547 321 557 531 l 369 278 l 208 267 l 186 253 q 237 159 186 204 q 360 114 288 114 l 519 114 l 519 8 q 360 -7 431 -7 m 200 369 l 431 419 q 403 543 435 504 q 318 582 371 582 q 200 369 201 582 z "},"Ĝ":{"ha":625,"x_min":69,"x_max":604,"o":"m 272 972 l 174 972 l 174 1042 l 336 1250 l 442 1250 l 604 1042 l 604 972 l 506 972 l 447 1051 l 400 1131 l 378 1131 l 331 1051 l 272 972 m 444 -7 q 165 118 261 -7 q 69 451 69 243 q 168 788 69 667 q 444 910 267 910 q 556 896 497 910 l 556 790 l 444 790 q 256 692 318 790 q 194 451 194 594 q 252 213 194 308 q 431 113 310 118 l 431 249 l 458 363 l 444 385 l 332 385 l 332 504 l 556 504 l 556 7 q 444 -7 514 -7 z "},"ĝ":{"ha":625,"x_min":69,"x_max":556,"o":"m 224 764 l 125 764 l 125 833 l 288 1042 l 393 1042 l 556 833 l 556 764 l 457 764 l 399 843 l 351 922 l 329 922 l 282 843 l 224 764 m 246 -306 q 156 -292 193 -306 l 156 -186 l 246 -186 q 390 -137 349 -186 q 431 53 431 -87 l 408 53 q 308 -6 381 -6 q 131 83 193 -6 q 69 344 69 172 q 135 613 69 524 q 350 701 200 701 q 556 688 442 701 l 556 69 q 481 -221 556 -136 q 246 -306 406 -306 m 308 114 q 431 157 382 114 l 431 582 l 350 582 q 228 528 261 582 q 194 344 194 475 q 308 114 194 114 z "},"Ğ":{"ha":625,"x_min":69,"x_max":618,"o":"m 389 972 q 219 1050 278 972 q 160 1250 160 1128 l 279 1250 q 389 1092 279 1092 q 499 1250 499 1092 l 618 1250 q 558 1051 618 1129 q 389 972 499 972 m 444 -7 q 165 118 261 -7 q 69 451 69 243 q 168 788 69 667 q 444 910 267 910 q 556 896 497 910 l 556 790 l 444 790 q 256 692 318 790 q 194 451 194 594 q 252 213 194 308 q 431 113 310 118 l 431 249 l 458 363 l 444 385 l 332 385 l 332 504 l 556 504 l 556 7 q 444 -7 514 -7 z "},"ğ":{"ha":625,"x_min":69,"x_max":569,"o":"m 340 764 q 170 842 229 764 q 111 1042 111 919 l 231 1042 q 340 883 231 883 q 450 1042 450 883 l 569 1042 q 510 842 569 921 q 340 764 450 764 m 246 -306 q 156 -292 193 -306 l 156 -186 l 246 -186 q 390 -137 349 -186 q 431 53 431 -87 l 408 53 q 308 -6 381 -6 q 131 83 193 -6 q 69 344 69 172 q 135 613 69 524 q 350 701 200 701 q 556 688 442 701 l 556 69 q 481 -221 556 -136 q 246 -306 406 -306 m 308 114 q 431 157 382 114 l 431 582 l 350 582 q 228 528 261 582 q 194 344 194 475 q 308 114 194 114 z "},"Ġ":{"ha":625,"x_min":69,"x_max":556,"o":"m 465 1029 l 313 1029 l 313 1190 l 465 1190 l 465 1029 m 444 -7 q 165 118 261 -7 q 69 451 69 243 q 168 788 69 667 q 444 910 267 910 q 556 896 497 910 l 556 790 l 444 790 q 256 692 318 790 q 194 451 194 594 q 252 213 194 308 q 431 113 310 118 l 431 249 l 458 363 l 444 385 l 332 385 l 332 504 l 556 504 l 556 7 q 444 -7 514 -7 z "},"ġ":{"ha":625,"x_min":69,"x_max":556,"o":"m 417 822 l 264 822 l 264 983 l 417 983 l 417 822 m 246 -306 q 156 -292 193 -306 l 156 -186 l 246 -186 q 390 -137 349 -186 q 431 53 431 -87 l 408 53 q 308 -6 381 -6 q 131 83 193 -6 q 69 344 69 172 q 135 613 69 524 q 350 701 200 701 q 556 688 442 701 l 556 69 q 481 -221 556 -136 q 246 -306 406 -306 m 308 114 q 431 157 382 114 l 431 582 l 350 582 q 228 528 261 582 q 194 344 194 475 q 308 114 194 114 z "},"Ģ":{"ha":625,"x_min":69,"x_max":556,"o":"m 444 -7 q 165 118 261 -7 q 69 451 69 243 q 168 788 69 667 q 444 910 267 910 q 556 896 497 910 l 556 790 l 444 790 q 256 692 318 790 q 194 451 194 594 q 252 213 194 308 q 431 113 310 118 l 431 249 l 458 363 l 444 385 l 332 385 l 332 504 l 556 504 l 556 7 q 444 -7 514 -7 m 249 -347 l 185 -347 l 185 -278 l 301 -69 l 419 -69 l 419 -153 l 249 -347 z "},"ģ":{"ha":625,"x_min":69,"x_max":556,"o":"m 457 764 l 339 764 l 222 972 l 222 1042 l 286 1042 l 457 847 l 457 764 m 246 -306 q 156 -292 193 -306 l 156 -186 l 246 -186 q 390 -137 349 -186 q 431 53 431 -87 l 408 53 q 308 -6 381 -6 q 131 83 193 -6 q 69 344 69 172 q 135 613 69 524 q 350 701 200 701 q 556 688 442 701 l 556 69 q 481 -221 556 -136 q 246 -306 406 -306 m 308 114 q 431 157 382 114 l 431 582 l 350 582 q 228 528 261 582 q 194 344 194 475 q 308 114 194 114 z "},"Ĥ":{"ha":625,"x_min":69,"x_max":556,"o":"m 196 972 l 97 972 l 97 1042 l 260 1250 l 365 1250 l 528 1042 l 528 972 l 429 972 l 371 1051 l 324 1131 l 301 1131 l 254 1051 l 196 972 m 194 0 l 69 0 l 69 903 l 194 903 l 194 521 l 431 521 l 431 903 l 556 903 l 556 0 l 431 0 l 431 401 l 194 401 l 194 0 z "},"ĥ":{"ha":625,"x_min":69,"x_max":556,"o":"m 194 1069 l 96 1069 l 96 1139 l 258 1347 l 364 1347 l 526 1139 l 526 1069 l 428 1069 l 369 1149 l 322 1228 l 300 1228 l 253 1149 l 194 1069 m 194 0 l 69 0 l 69 1000 l 194 1000 l 194 822 l 181 629 l 203 629 q 357 701 271 701 q 508 628 460 701 q 556 440 556 556 l 556 0 l 431 0 l 431 440 q 411 551 431 519 q 350 582 392 582 q 194 528 268 582 l 194 0 z "},"Ħ":{"ha":625,"x_min":69,"x_max":556,"o":"m 139 694 l 69 694 l 69 806 l 139 806 l 139 903 l 250 903 l 250 806 l 375 806 l 375 903 l 486 903 l 486 806 l 556 806 l 556 694 l 486 694 l 486 0 l 375 0 l 375 401 l 250 401 l 250 0 l 139 0 l 139 694 m 236 531 l 250 507 l 375 507 l 389 531 l 375 614 l 375 694 l 250 694 l 250 614 l 236 531 z "},"ħ":{"ha":625,"x_min":69,"x_max":556,"o":"m 194 0 l 69 0 l 69 1000 l 194 1000 l 194 903 l 528 903 l 528 792 l 192 792 l 181 629 l 203 629 q 357 701 271 701 q 508 628 460 701 q 556 440 556 556 l 556 0 l 431 0 l 431 440 q 411 551 431 519 q 350 582 392 582 q 194 528 268 582 l 194 0 z "},"Ĩ":{"ha":625,"x_min":74,"x_max":560,"o":"m 396 1006 q 297 1043 351 1006 q 215 1081 243 1081 q 160 1013 160 1081 l 90 1013 l 90 1128 q 215 1200 136 1200 q 314 1163 260 1200 q 396 1125 368 1125 q 451 1194 451 1125 l 521 1194 l 521 1079 q 396 1006 467 1006 m 560 0 l 74 0 l 74 122 l 164 122 l 232 94 l 254 108 l 254 794 l 232 808 l 183 781 l 113 781 l 113 903 l 521 903 l 521 781 l 450 781 l 401 808 l 379 794 l 379 108 l 401 94 l 469 122 l 560 122 l 560 0 z "},"ĩ":{"ha":625,"x_min":69,"x_max":556,"o":"m 403 814 q 304 851 358 814 q 222 889 250 889 q 167 821 167 889 l 97 821 l 97 936 q 222 1008 142 1008 q 321 971 267 1008 q 403 933 375 933 q 458 1003 458 933 l 528 1003 l 528 888 q 403 814 474 814 m 556 0 l 69 0 l 69 122 l 257 122 l 257 346 l 279 561 l 257 575 l 69 575 l 69 694 l 382 694 l 382 122 l 556 122 l 556 0 z "},"Ī":{"ha":625,"x_min":74,"x_max":560,"o":"m 521 1028 l 104 1028 l 104 1147 l 521 1147 l 521 1028 m 560 0 l 74 0 l 74 122 l 164 122 l 232 94 l 254 108 l 254 794 l 232 808 l 183 781 l 113 781 l 113 903 l 521 903 l 521 781 l 450 781 l 401 808 l 379 794 l 379 108 l 401 94 l 469 122 l 560 122 l 560 0 z "},"ī":{"ha":625,"x_min":69,"x_max":556,"o":"m 521 822 l 104 822 l 104 942 l 521 942 l 521 822 m 556 0 l 69 0 l 69 122 l 257 122 l 257 346 l 279 561 l 257 575 l 69 575 l 69 694 l 382 694 l 382 122 l 556 122 l 556 0 z "},"Ĭ":{"ha":625,"x_min":74,"x_max":560,"o":"m 313 972 q 142 1050 201 972 q 83 1250 83 1128 l 203 1250 q 313 1092 203 1092 q 422 1250 422 1092 l 542 1250 q 482 1051 542 1129 q 313 972 422 972 m 560 0 l 74 0 l 74 122 l 164 122 l 232 94 l 254 108 l 254 794 l 232 808 l 183 781 l 113 781 l 113 903 l 521 903 l 521 781 l 450 781 l 401 808 l 379 794 l 379 108 l 401 94 l 469 122 l 560 122 l 560 0 z "},"ĭ":{"ha":625,"x_min":69,"x_max":556,"o":"m 313 764 q 142 842 201 764 q 83 1042 83 919 l 203 1042 q 313 883 203 883 q 422 1042 422 883 l 542 1042 q 482 842 542 921 q 313 764 422 764 m 556 0 l 69 0 l 69 122 l 257 122 l 257 346 l 279 561 l 257 575 l 69 575 l 69 694 l 382 694 l 382 122 l 556 122 l 556 0 z "},"Į":{"ha":625,"x_min":74,"x_max":560,"o":"m 483 -354 q 337 -303 383 -354 q 297 -174 290 -253 q 350 -70 301 -115 q 451 0 399 -25 l 74 0 l 74 122 l 164 122 l 232 94 l 254 108 l 254 794 l 232 808 l 183 781 l 113 781 l 113 903 l 521 903 l 521 781 l 450 781 l 401 808 l 379 794 l 379 108 l 401 94 l 469 122 l 560 122 l 560 0 q 457 -75 492 -43 q 417 -146 422 -107 q 433 -210 411 -186 q 497 -235 454 -235 l 551 -235 l 551 -340 q 483 -354 522 -354 z "},"į":{"ha":625,"x_min":69,"x_max":556,"o":"m 389 839 l 236 839 l 236 1000 l 389 1000 l 389 839 m 479 -354 q 333 -303 379 -354 q 293 -174 286 -253 q 444 0 301 -79 l 69 0 l 69 122 l 257 122 l 257 346 l 279 561 l 257 575 l 69 575 l 69 694 l 382 694 l 382 122 l 556 122 l 556 0 q 453 -75 488 -43 q 413 -146 418 -107 q 428 -210 407 -186 q 493 -235 450 -235 l 547 -235 l 547 -340 q 479 -354 518 -354 z "},"İ":{"ha":625,"x_min":74,"x_max":560,"o":"m 389 1029 l 236 1029 l 236 1190 l 389 1190 l 389 1029 m 560 0 l 74 0 l 74 122 l 164 122 l 232 94 l 254 108 l 254 794 l 232 808 l 183 781 l 113 781 l 113 903 l 521 903 l 521 781 l 450 781 l 401 808 l 379 794 l 379 108 l 401 94 l 469 122 l 560 122 l 560 0 z "},"ı":{"ha":625,"x_min":69,"x_max":556,"o":"m 556 0 l 69 0 l 69 122 l 257 122 l 257 346 l 279 561 l 257 575 l 69 575 l 69 694 l 382 694 l 382 122 l 556 122 l 556 0 z "},"Ĳ":{"ha":1250,"x_min":74,"x_max":1181,"o":"m 560 0 l 74 0 l 74 122 l 164 122 l 232 94 l 254 108 l 254 794 l 232 808 l 183 781 l 113 781 l 113 903 l 521 903 l 521 781 l 450 781 l 401 808 l 379 794 l 379 108 l 401 94 l 469 122 l 560 122 l 560 0 m 825 0 q 694 15 753 0 l 694 119 l 825 119 q 1002 191 949 119 q 1056 460 1056 263 l 1056 797 l 1033 811 l 913 783 l 771 783 l 771 903 l 1181 903 l 1181 446 q 1095 106 1181 213 q 825 0 1010 0 z "},"ĳ":{"ha":1250,"x_min":69,"x_max":1160,"o":"m 389 839 l 236 839 l 236 1000 l 389 1000 l 389 839 m 1160 839 l 1007 839 l 1007 1000 l 1160 1000 l 1160 839 m 556 0 l 69 0 l 69 122 l 257 122 l 257 346 l 279 561 l 257 575 l 69 575 l 69 694 l 382 694 l 382 122 l 556 122 l 556 0 m 825 -354 q 694 -339 758 -354 l 694 -235 l 825 -235 q 983 -167 939 -235 q 1028 64 1028 -99 l 1028 589 l 1006 603 l 875 575 l 722 575 l 722 694 l 1153 694 l 1153 92 q 1075 -245 1153 -136 q 825 -354 997 -354 z "},"Ĵ":{"ha":625,"x_min":69,"x_max":556,"o":"m 224 972 l 125 972 l 125 1042 l 288 1250 l 393 1250 l 556 1042 l 556 972 l 457 972 l 399 1051 l 351 1131 l 329 1131 l 282 1051 l 224 972 m 200 0 q 69 15 128 0 l 69 119 l 200 119 q 377 191 324 119 q 431 460 431 263 l 431 797 l 408 811 l 288 783 l 146 783 l 146 903 l 556 903 l 556 446 q 470 106 556 213 q 200 0 385 0 z "},"ĵ":{"ha":625,"x_min":69,"x_max":528,"o":"m 196 764 l 97 764 l 97 833 l 260 1042 l 365 1042 l 528 833 l 528 764 l 429 764 l 371 843 l 324 922 l 301 922 l 254 843 l 196 764 m 200 -354 q 69 -339 133 -354 l 69 -235 l 200 -235 q 358 -167 314 -235 q 403 64 403 -99 l 403 589 l 381 603 l 250 575 l 97 575 l 97 694 l 528 694 l 528 92 q 450 -245 528 -136 q 200 -354 372 -354 z "},"Ķ":{"ha":625,"x_min":69,"x_max":553,"o":"m 194 0 l 69 0 l 69 903 l 194 903 l 194 532 l 217 532 l 315 717 l 449 903 l 546 903 l 546 833 l 433 675 l 301 517 l 301 494 l 438 282 l 553 69 l 553 0 l 454 0 l 340 214 l 257 426 l 235 426 l 194 350 l 194 0 m 201 -347 l 138 -347 l 138 -278 l 254 -69 l 372 -69 l 372 -153 l 201 -347 z "},"ķ":{"ha":625,"x_min":69,"x_max":556,"o":"m 194 0 l 69 0 l 69 1000 l 194 1000 l 194 429 l 217 429 l 321 561 l 446 694 l 547 694 l 547 628 l 454 531 l 342 433 l 342 411 l 460 240 l 556 69 l 556 0 l 456 0 l 360 175 l 282 351 l 260 351 l 194 258 l 194 0 m 239 -347 l 175 -347 l 175 -278 l 292 -69 l 410 -69 l 410 -153 l 239 -347 z "},"Ĺ":{"ha":625,"x_min":69,"x_max":556,"o":"m 163 972 l 99 972 l 99 1042 l 215 1250 l 333 1250 l 333 1167 l 163 972 m 556 0 l 69 0 l 69 903 l 194 903 l 194 119 l 556 119 l 556 0 z "},"ĺ":{"ha":625,"x_min":69,"x_max":556,"o":"m 344 1069 l 281 1069 l 281 1139 l 397 1347 l 515 1347 l 515 1264 l 344 1069 m 450 0 q 273 72 317 0 q 229 294 229 143 l 229 574 l 251 867 l 229 881 l 69 881 l 69 1000 l 354 1000 l 354 281 q 372 148 354 176 q 450 119 390 119 l 556 119 l 556 14 q 450 0 504 0 z "},"Ļ":{"ha":625,"x_min":69,"x_max":556,"o":"m 556 0 l 69 0 l 69 903 l 194 903 l 194 119 l 556 119 l 556 0 m 201 -347 l 138 -347 l 138 -278 l 254 -69 l 372 -69 l 372 -153 l 201 -347 z "},"ļ":{"ha":625,"x_min":69,"x_max":556,"o":"m 450 0 q 273 72 317 0 q 229 294 229 143 l 229 574 l 251 867 l 229 881 l 69 881 l 69 1000 l 354 1000 l 354 281 q 372 148 354 176 q 450 119 390 119 l 556 119 l 556 14 q 450 0 504 0 m 363 -347 l 299 -347 l 299 -278 l 415 -69 l 533 -69 l 533 -153 l 363 -347 z "},"Ľ":{"ha":625,"x_min":69,"x_max":556,"o":"m 556 0 l 69 0 l 69 903 l 194 903 l 194 119 l 556 119 l 556 0 m 500 625 l 417 625 l 417 903 l 556 903 l 556 819 l 500 625 z "},"ľ":{"ha":625,"x_min":69,"x_max":556,"o":"m 450 0 q 273 72 317 0 q 229 294 229 143 l 229 574 l 251 867 l 229 881 l 69 881 l 69 1000 l 354 1000 l 354 281 q 372 148 354 176 q 450 119 390 119 l 556 119 l 556 14 q 450 0 504 0 m 500 722 l 417 722 l 417 1000 l 556 1000 l 556 917 l 500 722 z "},"Ŀ":{"ha":625,"x_min":69,"x_max":557,"o":"m 556 0 l 69 0 l 69 903 l 194 903 l 194 119 l 556 119 l 556 0 m 557 413 l 376 413 l 376 579 l 557 579 l 557 413 z "},"ŀ":{"ha":625,"x_min":69,"x_max":694,"o":"m 450 0 q 273 72 317 0 q 229 294 229 143 l 229 574 l 251 867 l 229 881 l 69 881 l 69 1000 l 354 1000 l 354 281 q 372 148 354 176 q 450 119 390 119 l 556 119 l 556 14 q 450 0 504 0 m 694 413 l 514 413 l 514 579 l 694 579 l 694 413 z "},"Ł":{"ha":625,"x_min":69,"x_max":556,"o":"m 208 0 l 208 450 l 139 413 l 69 413 l 69 507 l 208 585 l 208 903 l 333 903 l 333 654 l 406 694 l 475 694 l 475 596 l 333 518 l 333 119 l 556 119 l 556 0 l 208 0 z "},"ł":{"ha":625,"x_min":69,"x_max":556,"o":"m 144 413 l 75 413 l 75 507 l 231 594 l 251 867 l 229 881 l 69 881 l 69 1000 l 354 1000 l 354 663 l 411 694 l 481 694 l 481 596 l 354 526 l 354 281 q 372 148 354 176 q 450 119 390 119 l 556 119 l 556 14 q 450 0 504 0 q 273 72 317 0 q 229 294 229 143 l 229 458 l 144 413 z "},"Ń":{"ha":625,"x_min":69,"x_max":556,"o":"m 343 972 l 279 972 l 279 1042 l 396 1250 l 514 1250 l 514 1167 l 343 972 m 194 0 l 69 0 l 69 903 l 153 903 l 451 311 l 474 311 l 431 607 l 431 903 l 556 903 l 556 0 l 471 0 l 175 596 l 153 596 l 194 265 l 194 0 z "},"ń":{"ha":625,"x_min":69,"x_max":556,"o":"m 304 764 l 240 764 l 240 833 l 357 1042 l 475 1042 l 475 958 l 304 764 m 194 0 l 69 0 l 69 694 l 181 694 l 181 629 l 203 629 q 357 701 269 701 q 508 628 460 701 q 556 440 556 556 l 556 0 l 431 0 l 431 440 q 411 551 431 519 q 350 582 392 582 q 194 528 268 582 l 194 0 z "},"Ņ":{"ha":625,"x_min":69,"x_max":556,"o":"m 194 0 l 69 0 l 69 903 l 153 903 l 451 311 l 474 311 l 431 607 l 431 903 l 556 903 l 556 0 l 471 0 l 175 596 l 153 596 l 194 265 l 194 0 m 201 -347 l 138 -347 l 138 -278 l 254 -69 l 372 -69 l 372 -153 l 201 -347 z "},"ņ":{"ha":625,"x_min":69,"x_max":556,"o":"m 194 0 l 69 0 l 69 694 l 181 694 l 181 629 l 203 629 q 357 701 269 701 q 508 628 460 701 q 556 440 556 556 l 556 0 l 431 0 l 431 440 q 411 551 431 519 q 350 582 392 582 q 194 528 268 582 l 194 0 m 200 -347 l 136 -347 l 136 -278 l 253 -69 l 371 -69 l 371 -153 l 200 -347 z "},"Ň":{"ha":625,"x_min":69,"x_max":556,"o":"m 365 972 l 260 972 l 97 1181 l 97 1250 l 196 1250 l 254 1171 l 301 1092 l 324 1092 l 371 1171 l 429 1250 l 528 1250 l 528 1181 l 365 972 m 194 0 l 69 0 l 69 903 l 153 903 l 451 311 l 474 311 l 431 607 l 431 903 l 556 903 l 556 0 l 471 0 l 175 596 l 153 596 l 194 265 l 194 0 z "},"ň":{"ha":625,"x_min":69,"x_max":556,"o":"m 364 763 l 258 763 l 96 971 l 96 1040 l 194 1040 l 253 961 l 300 882 l 322 882 l 369 961 l 428 1040 l 526 1040 l 526 971 l 364 763 m 194 0 l 69 0 l 69 694 l 181 694 l 181 629 l 203 629 q 357 701 269 701 q 508 628 460 701 q 556 440 556 556 l 556 0 l 431 0 l 431 440 q 411 551 431 519 q 350 582 392 582 q 194 528 268 582 l 194 0 z "},"Ŋ":{"ha":625,"x_min":69,"x_max":556,"o":"m 194 0 l 69 0 l 69 903 l 174 903 l 436 353 l 458 353 l 431 628 l 431 903 l 556 903 l 556 99 q 508 -238 567 -129 q 283 -347 449 -347 q 153 -332 211 -347 l 153 -228 l 283 -228 q 406 -172 379 -228 q 432 43 433 -115 l 189 568 l 167 568 l 194 285 l 194 0 z "},"ŋ":{"ha":625,"x_min":69,"x_max":556,"o":"m 194 0 l 69 0 l 69 694 l 172 694 l 172 636 l 194 636 q 326 701 235 701 q 502 622 449 701 q 556 413 556 542 l 556 63 q 256 -354 568 -354 q 125 -339 189 -354 l 125 -235 l 256 -235 q 390 -182 351 -235 q 431 0 428 -129 l 431 413 q 410 547 431 511 q 319 582 390 582 q 194 535 249 582 l 194 0 z "},"Ō":{"ha":625,"x_min":63,"x_max":563,"o":"m 521 1028 l 104 1028 l 104 1147 l 521 1147 l 521 1028 m 563 451 q 563 219 563 451 q 313 -14 563 -14 q 63 451 63 -14 q 313 917 63 917 q 563 451 563 917 m 222 190 q 240 148 222 190 q 313 106 257 106 q 403 190 368 106 q 438 451 438 275 q 403 713 438 628 q 313 797 368 797 q 222 713 257 797 q 188 451 188 628 q 222 190 188 275 z "},"ō":{"ha":625,"x_min":69,"x_max":556,"o":"m 521 822 l 104 822 l 104 942 l 521 942 l 521 822 m 492 93 q 460 43 492 93 q 313 -7 428 -7 q 133 94 197 -7 q 69 349 69 194 q 133 601 69 501 q 313 701 197 701 q 492 600 428 701 q 556 346 556 499 q 492 93 556 193 m 227 181 q 243 147 227 181 q 313 113 260 113 q 398 182 365 113 q 431 349 431 251 q 398 513 431 444 q 313 582 365 582 q 227 512 260 582 q 194 346 194 442 q 227 181 194 250 z "},"Ŏ":{"ha":625,"x_min":63,"x_max":563,"o":"m 313 972 q 142 1050 201 972 q 83 1250 83 1128 l 203 1250 q 313 1092 203 1092 q 422 1250 422 1092 l 542 1250 q 482 1051 542 1129 q 313 972 422 972 m 563 451 q 563 219 563 451 q 313 -14 563 -14 q 63 451 63 -14 q 313 917 63 917 q 563 451 563 917 m 222 190 q 240 148 222 190 q 313 106 257 106 q 403 190 368 106 q 438 451 438 275 q 403 713 438 628 q 313 797 368 797 q 222 713 257 797 q 188 451 188 628 q 222 190 188 275 z "},"ŏ":{"ha":625,"x_min":69,"x_max":556,"o":"m 313 764 q 142 842 201 764 q 83 1042 83 919 l 203 1042 q 313 883 203 883 q 422 1042 422 883 l 542 1042 q 482 842 542 921 q 313 764 422 764 m 492 93 q 460 43 492 93 q 313 -7 428 -7 q 133 94 197 -7 q 69 349 69 194 q 133 601 69 501 q 313 701 197 701 q 492 600 428 701 q 556 346 556 499 q 492 93 556 193 m 227 181 q 243 147 227 181 q 313 113 260 113 q 398 182 365 113 q 431 349 431 251 q 398 513 431 444 q 313 582 365 582 q 227 512 260 582 q 194 346 194 442 q 227 181 194 250 z "},"Ő":{"ha":625,"x_min":63,"x_max":563,"o":"m 433 972 l 369 972 l 369 1042 l 444 1250 l 563 1250 l 563 1167 l 433 972 m 211 972 l 147 972 l 147 1042 l 222 1250 l 340 1250 l 340 1167 l 211 972 m 563 451 q 563 219 563 451 q 313 -14 563 -14 q 63 451 63 -14 q 313 917 63 917 q 563 451 563 917 m 222 190 q 240 148 222 190 q 313 106 257 106 q 403 190 368 106 q 438 451 438 275 q 403 713 438 628 q 313 797 368 797 q 222 713 257 797 q 188 451 188 628 q 222 190 188 275 z "},"ő":{"ha":625,"x_min":69,"x_max":569,"o":"m 440 764 l 376 764 l 376 833 l 451 1042 l 569 1042 l 569 958 l 440 764 m 218 764 l 154 764 l 154 833 l 229 1042 l 347 1042 l 347 958 l 218 764 m 492 93 q 460 43 492 93 q 313 -7 428 -7 q 133 94 197 -7 q 69 349 69 194 q 133 601 69 501 q 313 701 197 701 q 492 600 428 701 q 556 346 556 499 q 492 93 556 193 m 227 181 q 243 147 227 181 q 313 113 260 113 q 398 182 365 113 q 431 349 431 251 q 398 513 431 444 q 313 582 365 582 q 227 512 260 582 q 194 346 194 442 q 227 181 194 250 z "},"Œ":{"ha":625,"x_min":42,"x_max":583,"o":"m 583 -7 l 229 -7 q 80 97 118 -4 q 42 451 42 199 q 81 808 42 707 q 236 910 121 910 l 583 910 l 583 804 l 379 804 l 379 782 q 431 504 431 732 l 453 490 l 507 504 l 583 504 l 583 399 l 507 399 l 453 413 l 431 399 q 379 121 431 171 l 379 99 l 583 99 l 583 -7 m 169 174 q 178 136 169 174 q 236 99 186 99 q 303 174 286 99 q 319 451 319 249 q 303 729 319 654 q 236 804 286 804 q 169 729 186 804 q 153 451 153 654 q 169 174 153 249 z "},"œ":{"ha":625,"x_min":69,"x_max":556,"o":"m 215 -7 q 125 43 158 -7 q 81 166 92 93 q 69 346 69 239 q 76 485 69 425 q 98 596 82 544 q 143 674 114 647 q 215 701 172 701 q 314 640 279 701 q 419 701 350 701 q 526 619 497 701 q 556 321 556 536 l 419 278 l 369 267 l 358 247 q 358 231 358 242 q 356 215 357 221 q 362 164 358 181 q 376 126 365 147 q 408 97 386 106 q 465 89 431 89 l 535 89 l 535 8 q 465 -7 506 -7 q 318 63 365 -7 q 215 -7 282 -7 m 176 156 q 180 123 176 156 q 215 90 185 90 q 255 156 246 90 q 264 346 264 221 q 255 541 264 472 q 215 610 246 610 q 176 542 185 610 q 167 349 167 475 q 176 156 167 222 m 361 356 l 468 392 q 460 557 468 504 q 419 610 451 610 q 361 356 364 610 z "},"Ŕ":{"ha":625,"x_min":69,"x_max":556,"o":"m 343 972 l 279 972 l 279 1042 l 396 1250 l 514 1250 l 514 1167 l 343 972 m 194 0 l 69 0 l 69 903 l 238 903 q 474 835 393 903 q 556 635 556 767 q 497 456 556 518 q 342 382 438 393 l 342 360 l 463 224 l 556 69 l 556 0 l 457 0 l 238 367 l 194 367 l 194 0 m 194 783 l 194 486 l 251 486 q 431 635 431 486 q 251 783 431 783 l 194 783 z "},"ŕ":{"ha":625,"x_min":69,"x_max":556,"o":"m 306 764 l 242 764 l 242 833 l 358 1042 l 476 1042 l 476 958 l 306 764 m 542 0 l 69 0 l 69 119 l 181 119 l 181 347 l 203 561 l 181 575 l 69 575 l 69 694 l 283 694 l 283 628 l 306 628 q 468 700 368 700 q 556 686 524 700 l 556 581 l 468 581 q 306 515 365 581 l 306 119 l 542 119 l 542 0 z "},"Ŗ":{"ha":625,"x_min":69,"x_max":556,"o":"m 194 0 l 69 0 l 69 903 l 238 903 q 474 835 393 903 q 556 635 556 767 q 497 456 556 518 q 342 382 438 393 l 342 360 l 463 224 l 556 69 l 556 0 l 457 0 l 238 367 l 194 367 l 194 0 m 194 783 l 194 486 l 251 486 q 431 635 431 486 q 251 783 431 783 l 194 783 m 214 -347 l 150 -347 l 150 -278 l 267 -69 l 385 -69 l 385 -153 l 214 -347 z "},"ŗ":{"ha":625,"x_min":61,"x_max":556,"o":"m 542 0 l 69 0 l 69 119 l 181 119 l 181 347 l 203 561 l 181 575 l 69 575 l 69 694 l 283 694 l 283 628 l 306 628 q 468 700 368 700 q 556 686 524 700 l 556 581 l 468 581 q 306 515 365 581 l 306 119 l 542 119 l 542 0 m 125 -347 l 61 -347 l 61 -278 l 178 -69 l 296 -69 l 296 -153 l 125 -347 z "},"Ř":{"ha":625,"x_min":69,"x_max":556,"o":"m 365 972 l 260 972 l 97 1181 l 97 1250 l 196 1250 l 254 1171 l 301 1092 l 324 1092 l 371 1171 l 429 1250 l 528 1250 l 528 1181 l 365 972 m 194 0 l 69 0 l 69 903 l 238 903 q 474 835 393 903 q 556 635 556 767 q 497 456 556 518 q 342 382 438 393 l 342 360 l 463 224 l 556 69 l 556 0 l 457 0 l 238 367 l 194 367 l 194 0 m 194 783 l 194 486 l 251 486 q 431 635 431 486 q 251 783 431 783 l 194 783 z "},"ř":{"ha":625,"x_min":69,"x_max":556,"o":"m 365 763 l 260 763 l 97 971 l 97 1040 l 196 1040 l 254 961 l 301 882 l 324 882 l 371 961 l 429 1040 l 528 1040 l 528 971 l 365 763 m 542 0 l 69 0 l 69 119 l 181 119 l 181 347 l 203 561 l 181 575 l 69 575 l 69 694 l 283 694 l 283 628 l 306 628 q 468 700 368 700 q 556 686 524 700 l 556 581 l 468 581 q 306 515 365 581 l 306 119 l 542 119 l 542 0 z "},"Ś":{"ha":625,"x_min":92,"x_max":532,"o":"m 343 972 l 279 972 l 279 1042 l 396 1250 l 514 1250 l 514 1167 l 343 972 m 240 -7 q 108 8 176 -7 l 108 113 l 268 113 q 373 149 339 113 q 407 243 407 186 q 374 345 407 306 q 296 408 342 385 q 203 456 250 431 q 124 537 157 482 q 92 675 92 592 q 167 849 92 789 q 356 910 243 910 q 483 896 438 910 l 483 790 l 369 790 q 253 759 294 790 q 213 675 213 728 q 236 592 213 626 q 295 538 260 557 q 372 494 331 519 q 449 444 414 469 q 508 367 485 418 q 532 244 532 315 q 452 58 532 124 q 240 -7 372 -7 z "},"ś":{"ha":625,"x_min":97,"x_max":528,"o":"m 306 764 l 242 764 l 242 833 l 358 1042 l 476 1042 l 476 958 l 306 764 m 278 -7 q 117 7 192 -7 l 117 113 l 278 113 q 403 194 403 113 q 372 263 403 236 q 295 307 340 290 q 205 344 250 324 q 128 407 160 364 q 97 517 97 450 q 342 701 97 701 q 507 688 449 701 l 507 582 l 342 582 q 252 568 282 582 q 222 518 222 554 q 253 461 222 485 q 330 420 285 438 q 420 378 375 403 q 497 306 465 354 q 528 188 528 258 q 459 44 528 94 q 278 -7 390 -7 z "},"Ŝ":{"ha":625,"x_min":92,"x_max":532,"o":"m 196 972 l 97 972 l 97 1042 l 260 1250 l 365 1250 l 528 1042 l 528 972 l 429 972 l 371 1051 l 324 1131 l 301 1131 l 254 1051 l 196 972 m 240 -7 q 108 8 176 -7 l 108 113 l 268 113 q 373 149 339 113 q 407 243 407 186 q 374 345 407 306 q 296 408 342 385 q 203 456 250 431 q 124 537 157 482 q 92 675 92 592 q 167 849 92 789 q 356 910 243 910 q 483 896 438 910 l 483 790 l 369 790 q 253 759 294 790 q 213 675 213 728 q 236 592 213 626 q 295 538 260 557 q 372 494 331 519 q 449 444 414 469 q 508 367 485 418 q 532 244 532 315 q 452 58 532 124 q 240 -7 372 -7 z "},"ŝ":{"ha":625,"x_min":97,"x_max":528,"o":"m 196 764 l 97 764 l 97 833 l 260 1042 l 365 1042 l 528 833 l 528 764 l 429 764 l 371 843 l 324 922 l 301 922 l 254 843 l 196 764 m 278 -7 q 117 7 192 -7 l 117 113 l 278 113 q 403 194 403 113 q 372 263 403 236 q 295 307 340 290 q 205 344 250 324 q 128 407 160 364 q 97 517 97 450 q 342 701 97 701 q 507 688 449 701 l 507 582 l 342 582 q 252 568 282 582 q 222 518 222 554 q 253 461 222 485 q 330 420 285 438 q 420 378 375 403 q 497 306 465 354 q 528 188 528 258 q 459 44 528 94 q 278 -7 390 -7 z "},"Ş":{"ha":625,"x_min":92,"x_max":532,"o":"m 303 -347 q 225 -333 260 -347 l 225 -256 l 303 -256 q 381 -200 381 -256 q 303 -144 381 -144 q 225 -151 267 -144 l 225 -7 q 108 8 168 -4 l 108 113 l 268 113 q 373 149 339 113 q 407 243 407 186 q 374 345 407 306 q 296 408 342 385 q 203 456 250 431 q 124 537 157 482 q 92 675 92 592 q 167 849 92 789 q 356 910 243 910 q 483 896 438 910 l 483 790 l 369 790 q 253 759 294 790 q 213 675 213 728 q 236 592 213 626 q 295 538 260 557 q 372 494 331 519 q 449 444 414 469 q 508 367 485 418 q 532 244 532 315 q 484 91 532 151 q 350 7 436 31 l 350 -53 q 448 -91 411 -53 q 485 -200 485 -129 q 438 -306 485 -265 q 303 -347 392 -347 z "},"ş":{"ha":625,"x_min":97,"x_max":528,"o":"m 321 -347 q 243 -333 278 -347 l 243 -256 l 321 -256 q 399 -200 399 -256 q 321 -144 399 -144 q 243 -151 285 -144 l 243 -7 q 117 7 179 -4 l 117 113 l 278 113 q 403 194 403 113 q 372 263 403 236 q 295 307 340 290 q 205 344 250 324 q 128 407 160 364 q 97 517 97 450 q 342 701 97 701 q 507 688 449 701 l 507 582 l 342 582 q 252 568 282 582 q 222 518 222 554 q 253 461 222 485 q 330 420 285 438 q 420 378 375 403 q 497 306 465 354 q 528 188 528 258 q 485 68 528 115 q 368 3 443 21 l 368 -53 q 466 -91 429 -53 q 503 -200 503 -129 q 456 -306 503 -265 q 321 -347 410 -347 z "},"Š":{"ha":625,"x_min":92,"x_max":532,"o":"m 365 972 l 260 972 l 97 1181 l 97 1250 l 196 1250 l 254 1171 l 301 1092 l 324 1092 l 371 1171 l 429 1250 l 528 1250 l 528 1181 l 365 972 m 240 -7 q 108 8 176 -7 l 108 113 l 268 113 q 373 149 339 113 q 407 243 407 186 q 374 345 407 306 q 296 408 342 385 q 203 456 250 431 q 124 537 157 482 q 92 675 92 592 q 167 849 92 789 q 356 910 243 910 q 483 896 438 910 l 483 790 l 369 790 q 253 759 294 790 q 213 675 213 728 q 236 592 213 626 q 295 538 260 557 q 372 494 331 519 q 449 444 414 469 q 508 367 485 418 q 532 244 532 315 q 452 58 532 124 q 240 -7 372 -7 z "},"š":{"ha":625,"x_min":97,"x_max":528,"o":"m 365 763 l 260 763 l 97 971 l 97 1040 l 196 1040 l 254 961 l 301 882 l 324 882 l 371 961 l 429 1040 l 528 1040 l 528 971 l 365 763 m 278 -7 q 117 7 192 -7 l 117 113 l 278 113 q 403 194 403 113 q 372 263 403 236 q 295 307 340 290 q 205 344 250 324 q 128 407 160 364 q 97 517 97 450 q 342 701 97 701 q 507 688 449 701 l 507 582 l 342 582 q 252 568 282 582 q 222 518 222 554 q 253 461 222 485 q 330 420 285 438 q 420 378 375 403 q 497 306 465 354 q 528 188 528 258 q 459 44 528 94 q 278 -7 390 -7 z "},"Ţ":{"ha":625,"x_min":69,"x_max":556,"o":"m 332 -347 q 254 -333 289 -347 l 254 -256 l 332 -256 q 410 -200 410 -256 q 332 -144 410 -144 q 254 -151 296 -144 l 254 797 l 232 811 l 161 783 l 69 783 l 69 903 l 556 903 l 556 783 l 464 783 l 400 811 l 379 797 l 379 -53 q 477 -91 440 -53 q 514 -200 514 -129 q 467 -306 514 -265 q 332 -347 421 -347 z "},"ţ":{"ha":625,"x_min":69,"x_max":589,"o":"m 457 0 l 454 0 l 454 -53 q 552 -91 515 -53 q 589 -200 589 -129 q 542 -306 589 -265 q 407 -347 496 -347 q 329 -333 364 -347 l 329 -256 l 407 -256 q 485 -200 485 -256 q 407 -144 485 -144 q 329 -151 371 -144 l 329 35 q 222 347 222 108 l 244 561 l 222 575 l 69 575 l 69 694 l 222 694 l 222 903 l 347 903 l 347 694 l 542 694 l 542 575 l 347 575 l 347 392 q 369 181 347 243 q 464 119 390 119 l 556 119 l 556 14 q 457 0 504 0 z "},"Ť":{"ha":625,"x_min":69,"x_max":556,"o":"m 365 972 l 260 972 l 97 1181 l 97 1250 l 196 1250 l 254 1171 l 301 1092 l 324 1092 l 371 1171 l 429 1250 l 528 1250 l 528 1181 l 365 972 m 379 0 l 254 0 l 254 797 l 232 811 l 161 783 l 69 783 l 69 903 l 556 903 l 556 783 l 464 783 l 400 811 l 379 797 l 379 0 z "},"ť":{"ha":625,"x_min":69,"x_max":556,"o":"m 499 722 l 415 722 l 415 1000 l 554 1000 l 554 917 l 499 722 m 457 0 q 340 28 388 0 q 267 106 292 56 q 233 215 243 157 q 222 347 222 272 l 244 561 l 222 575 l 69 575 l 69 694 l 222 694 l 222 903 l 347 903 l 347 694 l 542 694 l 542 575 l 347 575 l 347 392 q 369 181 347 243 q 464 119 390 119 l 556 119 l 556 14 q 457 0 504 0 z "},"Ŧ":{"ha":625,"x_min":69,"x_max":556,"o":"m 379 0 l 254 0 l 254 338 l 97 338 l 97 449 l 254 449 l 254 797 l 232 811 l 161 783 l 69 783 l 69 903 l 556 903 l 556 783 l 464 783 l 400 811 l 379 797 l 379 449 l 528 449 l 528 338 l 379 338 l 379 0 z "},"ŧ":{"ha":625,"x_min":69,"x_max":556,"o":"m 457 0 q 222 338 225 0 l 97 338 l 97 449 l 233 449 l 244 561 l 222 575 l 69 575 l 69 694 l 222 694 l 222 903 l 347 903 l 347 694 l 542 694 l 542 575 l 347 575 l 347 449 l 528 449 l 528 338 l 347 338 q 374 170 350 221 q 464 119 397 119 l 556 119 l 556 14 q 457 0 504 0 z "},"Ũ":{"ha":625,"x_min":69,"x_max":556,"o":"m 396 1006 q 297 1043 351 1006 q 215 1081 243 1081 q 160 1013 160 1081 l 90 1013 l 90 1128 q 215 1200 136 1200 q 314 1163 260 1200 q 396 1125 368 1125 q 451 1194 451 1125 l 521 1194 l 521 1079 q 396 1006 467 1006 m 493 72 q 462 32 493 72 q 313 -7 431 -7 q 132 72 194 -7 q 69 294 69 150 l 69 903 l 194 903 l 194 294 q 196 250 194 268 q 203 203 197 232 q 221 157 210 175 q 256 126 232 139 q 313 113 279 113 q 369 126 346 113 q 404 157 393 139 q 422 203 415 175 q 429 250 428 232 q 431 294 431 268 l 431 903 l 556 903 l 556 294 q 493 72 556 150 z "},"ũ":{"ha":625,"x_min":69,"x_max":556,"o":"m 403 814 q 304 851 358 814 q 222 889 250 889 q 167 821 167 889 l 97 821 l 97 936 q 222 1008 142 1008 q 321 971 267 1008 q 403 933 375 933 q 458 1003 458 933 l 528 1003 l 528 888 q 403 814 474 814 m 268 -7 q 117 66 165 -7 q 69 254 69 139 l 69 694 l 194 694 l 194 254 q 214 144 194 175 q 275 113 233 113 q 431 167 357 113 l 431 694 l 556 694 l 556 0 l 444 0 l 444 65 l 422 65 q 268 -7 356 -7 z "},"Ū":{"ha":625,"x_min":69,"x_max":556,"o":"m 521 1028 l 104 1028 l 104 1147 l 521 1147 l 521 1028 m 493 72 q 462 32 493 72 q 313 -7 431 -7 q 132 72 194 -7 q 69 294 69 150 l 69 903 l 194 903 l 194 294 q 196 250 194 268 q 203 203 197 232 q 221 157 210 175 q 256 126 232 139 q 313 113 279 113 q 369 126 346 113 q 404 157 393 139 q 422 203 415 175 q 429 250 428 232 q 431 294 431 268 l 431 903 l 556 903 l 556 294 q 493 72 556 150 z "},"ū":{"ha":625,"x_min":69,"x_max":556,"o":"m 365 763 l 260 763 l 97 971 l 97 1040 l 196 1040 l 254 961 l 301 882 l 324 882 l 371 961 l 429 1040 l 528 1040 l 528 971 l 365 763 m 268 -7 q 117 66 165 -7 q 69 254 69 139 l 69 694 l 194 694 l 194 254 q 214 144 194 175 q 275 113 233 113 q 431 167 357 113 l 431 694 l 556 694 l 556 0 l 444 0 l 444 65 l 422 65 q 268 -7 356 -7 z "},"Ŭ":{"ha":625,"x_min":69,"x_max":556,"o":"m 313 972 q 142 1050 201 972 q 83 1250 83 1128 l 203 1250 q 313 1092 203 1092 q 422 1250 422 1092 l 542 1250 q 482 1051 542 1129 q 313 972 422 972 m 493 72 q 462 32 493 72 q 313 -7 431 -7 q 132 72 194 -7 q 69 294 69 150 l 69 903 l 194 903 l 194 294 q 196 250 194 268 q 203 203 197 232 q 221 157 210 175 q 256 126 232 139 q 313 113 279 113 q 369 126 346 113 q 404 157 393 139 q 422 203 415 175 q 429 250 428 232 q 431 294 431 268 l 431 903 l 556 903 l 556 294 q 493 72 556 150 z "},"ŭ":{"ha":625,"x_min":69,"x_max":556,"o":"m 313 764 q 142 842 201 764 q 83 1042 83 919 l 203 1042 q 313 883 203 883 q 422 1042 422 883 l 542 1042 q 482 842 542 921 q 313 764 422 764 m 268 -7 q 117 66 165 -7 q 69 254 69 139 l 69 694 l 194 694 l 194 254 q 214 144 194 175 q 275 113 233 113 q 431 167 357 113 l 431 694 l 556 694 l 556 0 l 444 0 l 444 65 l 422 65 q 268 -7 356 -7 z "},"Ů":{"ha":625,"x_min":69,"x_max":556,"o":"m 410 1013 q 390 993 410 1013 q 313 972 369 972 q 215 1013 256 972 q 174 1111 174 1054 q 215 1209 174 1168 q 313 1250 256 1250 q 410 1209 369 1250 q 451 1111 451 1168 q 410 1013 451 1054 m 278 1075 q 285 1068 278 1075 q 313 1061 292 1061 q 347 1075 333 1061 q 361 1111 361 1089 q 347 1147 361 1133 q 313 1161 333 1161 q 278 1147 292 1161 q 264 1111 264 1133 q 278 1075 264 1089 m 493 72 q 462 32 493 72 q 313 -7 431 -7 q 132 72 194 -7 q 69 294 69 150 l 69 903 l 194 903 l 194 294 q 196 250 194 268 q 203 203 197 232 q 221 157 210 175 q 256 126 232 139 q 313 113 279 113 q 369 126 346 113 q 404 157 393 139 q 422 203 415 175 q 429 250 428 232 q 431 294 431 268 l 431 903 l 556 903 l 556 294 q 493 72 556 150 z "},"ů":{"ha":625,"x_min":69,"x_max":556,"o":"m 410 805 q 390 784 410 805 q 313 764 369 764 q 215 805 256 764 q 174 903 174 846 q 215 1001 174 960 q 313 1042 256 1042 q 410 1001 369 1042 q 451 903 451 960 q 410 805 451 846 m 278 867 q 285 860 278 867 q 313 853 292 853 q 347 867 333 853 q 361 903 361 881 q 347 939 361 925 q 313 953 333 953 q 278 939 292 953 q 264 903 264 925 q 278 867 264 881 m 268 -7 q 117 66 165 -7 q 69 254 69 139 l 69 694 l 194 694 l 194 254 q 214 144 194 175 q 275 113 233 113 q 431 167 357 113 l 431 694 l 556 694 l 556 0 l 444 0 l 444 65 l 422 65 q 268 -7 356 -7 z "},"Ű":{"ha":625,"x_min":69,"x_max":563,"o":"m 433 972 l 369 972 l 369 1042 l 444 1250 l 563 1250 l 563 1167 l 433 972 m 211 972 l 147 972 l 147 1042 l 222 1250 l 340 1250 l 340 1167 l 211 972 m 493 72 q 462 32 493 72 q 313 -7 431 -7 q 132 72 194 -7 q 69 294 69 150 l 69 903 l 194 903 l 194 294 q 196 250 194 268 q 203 203 197 232 q 221 157 210 175 q 256 126 232 139 q 313 113 279 113 q 369 126 346 113 q 404 157 393 139 q 422 203 415 175 q 429 250 428 232 q 431 294 431 268 l 431 903 l 556 903 l 556 294 q 493 72 556 150 z "},"ű":{"ha":625,"x_min":69,"x_max":569,"o":"m 440 764 l 376 764 l 376 833 l 451 1042 l 569 1042 l 569 958 l 440 764 m 218 764 l 154 764 l 154 833 l 229 1042 l 347 1042 l 347 958 l 218 764 m 268 -7 q 117 66 165 -7 q 69 254 69 139 l 69 694 l 194 694 l 194 254 q 214 144 194 175 q 275 113 233 113 q 431 167 357 113 l 431 694 l 556 694 l 556 0 l 444 0 l 444 65 l 422 65 q 268 -7 356 -7 z "},"Ų":{"ha":625,"x_min":69,"x_max":556,"o":"m 300 -354 q 153 -303 200 -354 q 114 -174 107 -253 q 164 -74 118 -118 q 263 -3 210 -29 q 119 90 168 14 q 69 294 69 167 l 69 903 l 194 903 l 194 294 q 196 250 194 268 q 203 203 197 232 q 221 157 210 175 q 256 126 232 139 q 313 113 279 113 q 369 126 346 113 q 404 157 393 139 q 422 203 415 175 q 429 250 428 232 q 431 294 431 268 l 431 903 l 556 903 l 556 294 q 510 96 556 172 q 376 0 464 19 q 274 -75 308 -43 q 233 -146 239 -107 q 249 -210 228 -186 q 314 -235 271 -235 l 368 -235 l 368 -340 q 300 -354 339 -354 z "},"ų":{"ha":625,"x_min":69,"x_max":556,"o":"m 268 -7 q 117 66 165 -7 q 69 254 69 139 l 69 694 l 194 694 l 194 254 q 214 144 194 175 q 275 113 233 113 q 431 167 357 113 l 431 694 l 556 694 l 556 0 q 453 -75 488 -43 q 413 -146 418 -107 q 428 -210 407 -186 q 493 -235 450 -235 l 547 -235 l 547 -340 q 479 -354 518 -354 q 333 -303 379 -354 q 293 -174 286 -253 q 444 0 301 -78 l 444 65 l 422 65 q 268 -7 356 -7 z "},"Ŵ":{"ha":625,"x_min":69,"x_max":556,"o":"m 196 972 l 97 972 l 97 1042 l 260 1250 l 365 1250 l 528 1042 l 528 972 l 429 972 l 371 1051 l 324 1131 l 301 1131 l 254 1051 l 196 972 m 229 0 l 111 0 l 69 833 l 69 903 l 185 903 l 194 569 l 181 236 l 203 236 l 265 514 l 360 514 l 422 236 l 444 236 l 431 569 l 440 903 l 556 903 l 556 833 l 514 0 l 396 0 l 354 143 l 324 306 l 301 306 l 271 143 l 229 0 z "},"ŵ":{"ha":625,"x_min":69,"x_max":556,"o":"m 196 764 l 97 764 l 97 833 l 260 1042 l 365 1042 l 528 833 l 528 764 l 429 764 l 371 843 l 324 922 l 301 922 l 254 843 l 196 764 m 215 0 l 111 0 l 69 625 l 69 694 l 183 694 l 192 457 l 176 219 l 199 219 l 265 403 l 360 403 l 426 219 l 449 219 l 433 457 l 442 694 l 556 694 l 556 625 l 514 0 l 410 0 l 360 125 l 324 254 l 301 254 l 267 126 l 215 0 z "},"Ŷ":{"ha":625,"x_min":69,"x_max":556,"o":"m 196 972 l 97 972 l 97 1042 l 260 1250 l 365 1250 l 528 1042 l 528 972 l 429 972 l 371 1051 l 324 1131 l 301 1131 l 254 1051 l 196 972 m 375 0 l 250 0 l 250 329 l 69 833 l 69 903 l 174 903 l 251 676 l 301 451 l 324 451 l 374 676 l 451 903 l 556 903 l 556 833 l 375 331 l 375 0 z "},"ŷ":{"ha":625,"x_min":69,"x_max":556,"o":"m 196 764 l 97 764 l 97 833 l 260 1042 l 365 1042 l 528 833 l 528 764 l 429 764 l 371 843 l 324 922 l 301 922 l 254 843 l 196 764 m 283 -306 l 178 -306 l 178 -236 l 267 40 l 69 625 l 69 694 l 172 694 l 324 232 l 451 694 l 556 694 l 556 625 l 283 -306 z "},"Ÿ":{"ha":625,"x_min":69,"x_max":556,"o":"m 528 1028 l 375 1028 l 375 1189 l 528 1189 l 528 1028 m 250 1028 l 97 1028 l 97 1189 l 250 1189 l 250 1028 m 375 0 l 250 0 l 250 329 l 69 833 l 69 903 l 174 903 l 251 676 l 301 451 l 324 451 l 374 676 l 451 903 l 556 903 l 556 833 l 375 331 l 375 0 z "},"Ź":{"ha":625,"x_min":69,"x_max":556,"o":"m 343 972 l 279 972 l 279 1042 l 396 1250 l 514 1250 l 514 1167 l 343 972 m 556 0 l 69 0 l 69 119 l 246 451 l 436 761 l 436 783 l 83 783 l 83 903 l 556 903 l 556 783 l 379 451 l 190 142 l 190 119 l 556 119 l 556 0 z "},"ź":{"ha":625,"x_min":83,"x_max":542,"o":"m 306 764 l 242 764 l 242 833 l 358 1042 l 476 1042 l 476 958 l 306 764 m 542 0 l 83 0 l 83 119 l 239 347 l 396 553 l 396 575 l 83 575 l 83 694 l 542 694 l 542 575 l 386 347 l 229 142 l 229 119 l 542 119 l 542 0 z "},"Ż":{"ha":625,"x_min":69,"x_max":556,"o":"m 389 1029 l 236 1029 l 236 1190 l 389 1190 l 389 1029 m 556 0 l 69 0 l 69 119 l 246 451 l 436 761 l 436 783 l 83 783 l 83 903 l 556 903 l 556 783 l 379 451 l 190 142 l 190 119 l 556 119 l 556 0 z "},"ż":{"ha":625,"x_min":83,"x_max":542,"o":"m 389 822 l 236 822 l 236 983 l 389 983 l 389 822 m 542 0 l 83 0 l 83 119 l 239 347 l 396 553 l 396 575 l 83 575 l 83 694 l 542 694 l 542 575 l 386 347 l 229 142 l 229 119 l 542 119 l 542 0 z "},"Ž":{"ha":625,"x_min":69,"x_max":556,"o":"m 365 972 l 260 972 l 97 1181 l 97 1250 l 196 1250 l 254 1171 l 301 1092 l 324 1092 l 371 1171 l 429 1250 l 528 1250 l 528 1181 l 365 972 m 556 0 l 69 0 l 69 119 l 246 451 l 436 761 l 436 783 l 83 783 l 83 903 l 556 903 l 556 783 l 379 451 l 190 142 l 190 119 l 556 119 l 556 0 z "},"ž":{"ha":625,"x_min":83,"x_max":542,"o":"m 365 763 l 260 763 l 97 971 l 97 1040 l 196 1040 l 254 961 l 301 882 l 324 882 l 371 961 l 429 1040 l 528 1040 l 528 971 l 365 763 m 542 0 l 83 0 l 83 119 l 239 347 l 396 553 l 396 575 l 83 575 l 83 694 l 542 694 l 542 575 l 386 347 l 229 142 l 229 119 l 542 119 l 542 0 z "},"ƒ":{"ha":625,"x_min":69,"x_max":556,"o":"m 151 -7 q 69 7 107 -7 l 69 113 l 117 113 q 224 153 196 113 q 254 306 253 194 l 250 575 l 228 589 l 174 575 l 97 575 l 97 694 l 249 694 q 308 931 254 856 q 475 1007 361 1007 q 556 993 521 1007 l 556 888 l 510 888 q 402 847 431 888 q 372 694 374 806 l 394 681 l 449 694 l 525 694 l 525 575 l 374 575 l 378 306 q 151 -7 378 -7 z "},"Ǽ":{"ha":625,"x_min":42,"x_max":583,"o":"m 343 972 l 279 972 l 279 1042 l 396 1250 l 514 1250 l 514 1167 l 343 972 m 136 0 l 42 0 l 42 69 l 247 903 l 583 903 l 583 783 l 418 783 l 396 769 l 418 718 l 418 504 l 486 518 l 556 518 l 556 399 l 486 399 l 418 413 l 418 189 l 396 133 l 418 119 l 583 119 l 583 0 l 293 0 l 293 165 l 176 165 l 136 0 m 183 299 l 206 285 l 293 285 l 315 299 l 293 464 l 310 671 l 288 671 l 242 464 l 183 299 z "},"ǽ":{"ha":625,"x_min":69,"x_max":556,"o":"m 306 764 l 242 764 l 242 833 l 358 1042 l 476 1042 l 476 958 l 306 764 m 222 -7 q 115 51 160 -7 q 69 194 69 108 q 208 401 69 360 l 264 418 q 239 567 261 531 q 160 604 217 604 l 92 606 l 92 689 q 160 701 126 701 q 304 624 258 701 q 419 701 342 701 q 526 619 497 701 q 556 321 556 536 l 419 278 l 369 267 l 353 239 q 356 210 354 232 q 359 181 358 189 q 364 157 360 174 q 372 134 368 140 q 385 117 376 128 q 403 101 393 106 q 430 94 414 97 q 465 90 446 90 l 535 90 l 535 8 q 465 -7 506 -7 q 328 50 376 -7 q 222 -7 294 -7 m 347 356 l 468 392 q 460 553 468 503 q 419 604 451 604 q 368 540 388 604 q 347 356 349 475 m 167 194 q 187 117 167 143 q 236 90 207 90 q 292 117 264 90 q 264 318 267 188 l 238 310 q 213 300 221 304 q 192 284 206 296 q 173 250 179 272 q 167 194 167 228 z "},"Ǿ":{"ha":625,"x_min":63,"x_max":563,"o":"m 343 972 l 279 972 l 279 1042 l 396 1250 l 514 1250 l 514 1167 l 343 972 m 149 0 l 67 0 l 67 69 l 104 146 q 63 451 63 256 q 313 917 63 917 q 456 861 400 917 l 476 903 l 558 903 l 558 833 l 521 757 q 563 451 563 647 q 313 -14 563 -14 q 169 42 225 -14 l 149 0 m 188 451 q 193 326 188 375 l 393 733 q 313 797 363 797 q 222 713 257 797 q 188 451 188 628 m 313 106 q 403 190 368 106 q 438 451 438 275 q 432 576 438 528 l 232 169 q 313 106 263 106 z "},"ǿ":{"ha":625,"x_min":69,"x_max":556,"o":"m 306 764 l 242 764 l 242 833 l 358 1042 l 476 1042 l 476 958 l 306 764 m 165 0 l 83 0 l 83 69 l 115 124 q 69 349 69 215 q 133 601 69 501 q 313 701 197 701 q 439 660 385 701 l 460 694 l 542 694 l 542 625 l 508 571 q 556 346 556 478 q 492 93 556 193 q 313 -7 428 -7 q 186 35 240 -7 l 165 0 m 194 346 q 201 265 194 307 l 374 551 q 313 582 346 582 q 227 512 260 582 q 194 346 194 442 m 313 113 q 398 182 365 113 q 431 349 431 251 q 424 429 431 388 l 251 143 q 313 113 279 113 z "},"Ș":{"ha":625,"x_min":92,"x_max":532,"o":"m 240 -7 q 108 8 176 -7 l 108 113 l 268 113 q 373 149 339 113 q 407 243 407 186 q 374 345 407 306 q 296 408 342 385 q 203 456 250 431 q 124 537 157 482 q 92 675 92 592 q 167 849 92 789 q 356 910 243 910 q 483 896 438 910 l 483 790 l 369 790 q 253 759 294 790 q 213 675 213 728 q 236 592 213 626 q 295 538 260 557 q 372 494 331 519 q 449 444 414 469 q 508 367 485 418 q 532 244 532 315 q 452 58 532 124 q 240 -7 372 -7 m 176 -347 l 113 -347 l 113 -278 l 229 -69 l 347 -69 l 347 -153 l 176 -347 z "},"ș":{"ha":625,"x_min":97,"x_max":528,"o":"m 278 -7 q 117 7 192 -7 l 117 113 l 278 113 q 403 194 403 113 q 372 263 403 236 q 295 307 340 290 q 205 344 250 324 q 128 407 160 364 q 97 517 97 450 q 342 701 97 701 q 507 688 449 701 l 507 582 l 342 582 q 252 568 282 582 q 222 518 222 554 q 253 461 222 485 q 330 420 285 438 q 420 378 375 403 q 497 306 465 354 q 528 188 528 258 q 459 44 528 94 q 278 -7 390 -7 m 194 -347 l 131 -347 l 131 -278 l 247 -69 l 365 -69 l 365 -153 l 194 -347 z "},"Ț":{"ha":625,"x_min":69,"x_max":556,"o":"m 379 0 l 254 0 l 254 797 l 232 811 l 161 783 l 69 783 l 69 903 l 556 903 l 556 783 l 464 783 l 400 811 l 379 797 l 379 0 m 206 -347 l 142 -347 l 142 -278 l 258 -69 l 376 -69 l 376 -153 l 206 -347 z "},"ț":{"ha":625,"x_min":69,"x_max":556,"o":"m 457 0 q 340 28 388 0 q 267 106 292 56 q 233 215 243 157 q 222 347 222 272 l 244 561 l 222 575 l 69 575 l 69 694 l 222 694 l 222 903 l 347 903 l 347 694 l 542 694 l 542 575 l 347 575 l 347 392 q 369 181 347 243 q 464 119 390 119 l 556 119 l 556 14 q 457 0 504 0 m 281 -347 l 217 -347 l 217 -278 l 333 -69 l 451 -69 l 451 -153 l 281 -347 z "},"ȷ":{"ha":625,"x_min":69,"x_max":528,"o":"m 200 -354 q 69 -339 133 -354 l 69 -235 l 200 -235 q 358 -167 314 -235 q 403 64 403 -99 l 403 589 l 381 603 l 250 575 l 97 575 l 97 694 l 528 694 l 528 92 q 450 -245 528 -136 q 200 -354 372 -354 z "},"ˆ":{"ha":833,"x_min":97,"x_max":528,"o":"m 196 764 l 97 764 l 97 833 l 260 1042 l 365 1042 l 528 833 l 528 764 l 429 764 l 371 843 l 324 922 l 301 922 l 254 843 l 196 764 z "},"ˇ":{"ha":833,"x_min":97,"x_max":528,"o":"m 365 763 l 260 763 l 97 971 l 97 1040 l 196 1040 l 254 961 l 301 882 l 324 882 l 371 961 l 429 1040 l 528 1040 l 528 971 l 365 763 z "},"˘":{"ha":833,"x_min":83,"x_max":542,"o":"m 313 764 q 142 842 201 764 q 83 1042 83 919 l 203 1042 q 313 883 203 883 q 422 1042 422 883 l 542 1042 q 482 842 542 921 q 313 764 422 764 z "},"˙":{"ha":833,"x_min":236,"x_max":389,"o":"m 389 822 l 236 822 l 236 983 l 389 983 l 389 822 z "},"˚":{"ha":833,"x_min":174,"x_max":451,"o":"m 410 805 q 390 784 410 805 q 313 764 369 764 q 215 805 256 764 q 174 903 174 846 q 215 1001 174 960 q 313 1042 256 1042 q 410 1001 369 1042 q 451 903 451 960 q 410 805 451 846 m 278 867 q 285 860 278 867 q 313 853 292 853 q 347 867 333 853 q 361 903 361 881 q 347 939 361 925 q 313 953 333 953 q 278 939 292 953 q 264 903 264 925 q 278 867 264 881 z "},"˛":{"ha":833,"x_min":182,"x_max":444,"o":"m 368 -354 q 222 -303 268 -354 q 182 -174 175 -253 q 343 6 190 -75 l 444 0 q 342 -75 376 -43 q 301 -146 307 -107 q 317 -210 296 -186 q 382 -235 339 -235 l 436 -235 l 436 -340 q 368 -354 407 -354 z "},"˜":{"ha":833,"x_min":97,"x_max":528,"o":"m 403 814 q 304 851 358 814 q 222 889 250 889 q 167 821 167 889 l 97 821 l 97 936 q 222 1008 142 1008 q 321 971 267 1008 q 403 933 375 933 q 458 1003 458 933 l 528 1003 l 528 888 q 403 814 474 814 z "},"˝":{"ha":833,"x_min":104,"x_max":519,"o":"m 390 764 l 326 764 l 326 833 l 401 1042 l 519 1042 l 519 958 l 390 764 m 168 764 l 104 764 l 104 833 l 179 1042 l 297 1042 l 297 958 l 168 764 z "},"̀":{"ha":625,"x_min":194,"x_max":429,"o":"m 429 764 l 365 764 l 194 958 l 194 1042 l 313 1042 l 429 833 l 429 764 z "},"́":{"ha":625,"x_min":194,"x_max":429,"o":"m 258 764 l 194 764 l 194 833 l 311 1042 l 429 1042 l 429 958 l 258 764 z "},"̂":{"ha":625,"x_min":97,"x_max":528,"o":"m 196 764 l 97 764 l 97 833 l 260 1042 l 365 1042 l 528 833 l 528 764 l 429 764 l 371 843 l 324 922 l 301 922 l 254 843 l 196 764 z "},"̃":{"ha":625,"x_min":97,"x_max":528,"o":"m 403 814 q 304 851 358 814 q 222 889 250 889 q 167 821 167 889 l 97 821 l 97 936 q 222 1008 142 1008 q 321 971 267 1008 q 403 933 375 933 q 458 1003 458 933 l 528 1003 l 528 888 q 403 814 474 814 z "},"̄":{"ha":625,"x_min":104,"x_max":521,"o":"m 521 822 l 104 822 l 104 942 l 521 942 l 521 822 z "},"̆":{"ha":625,"x_min":83,"x_max":542,"o":"m 313 764 q 142 842 201 764 q 83 1042 83 919 l 203 1042 q 313 883 203 883 q 422 1042 422 883 l 542 1042 q 482 842 542 921 q 313 764 422 764 z "},"̇":{"ha":625,"x_min":236,"x_max":389,"o":"m 389 822 l 236 822 l 236 983 l 389 983 l 389 822 z "},"̈":{"ha":625,"x_min":97,"x_max":528,"o":"m 528 819 l 375 819 l 375 981 l 528 981 l 528 819 m 250 819 l 97 819 l 97 981 l 250 981 l 250 819 z "},"̊":{"ha":625,"x_min":174,"x_max":451,"o":"m 410 805 q 390 784 410 805 q 313 764 369 764 q 215 805 256 764 q 174 903 174 846 q 215 1001 174 960 q 313 1042 256 1042 q 410 1001 369 1042 q 451 903 451 960 q 410 805 451 846 m 278 867 q 285 860 278 867 q 313 853 292 853 q 347 867 333 853 q 361 903 361 881 q 347 939 361 925 q 313 953 333 953 q 278 939 292 953 q 264 903 264 925 q 278 867 264 881 z "},"̋":{"ha":625,"x_min":104,"x_max":519,"o":"m 390 764 l 326 764 l 326 833 l 401 1042 l 519 1042 l 519 958 l 390 764 m 168 764 l 104 764 l 104 833 l 179 1042 l 297 1042 l 297 958 l 168 764 z "},"̌":{"ha":625,"x_min":97,"x_max":528,"o":"m 365 763 l 260 763 l 97 971 l 97 1040 l 196 1040 l 254 961 l 301 882 l 324 882 l 371 961 l 429 1040 l 528 1040 l 528 971 l 365 763 z "},"̒":{"ha":625,"x_min":194,"x_max":429,"o":"m 429 764 l 311 764 l 194 972 l 194 1042 l 258 1042 l 429 847 l 429 764 z "},"̦":{"ha":625,"x_min":194,"x_max":429,"o":"m 258 -347 l 194 -347 l 194 -278 l 311 -69 l 429 -69 l 429 -153 l 258 -347 z "},"̧":{"ha":625,"x_min":182,"x_max":442,"o":"m 260 -347 q 182 -333 217 -347 l 182 -256 l 260 -256 q 338 -200 338 -256 q 260 -144 338 -144 q 182 -151 224 -144 l 182 44 l 307 44 l 307 -53 q 405 -91 368 -53 q 442 -200 442 -129 q 395 -306 442 -265 q 260 -347 349 -347 z "},"̨":{"ha":625,"x_min":182,"x_max":444,"o":"m 368 -354 q 222 -303 268 -354 q 182 -174 175 -253 q 343 6 190 -75 l 444 0 q 342 -75 376 -43 q 301 -146 307 -107 q 317 -210 296 -186 q 382 -235 339 -235 l 436 -235 l 436 -340 q 368 -354 407 -354 z "},"̵":{"ha":625,"x_min":97,"x_max":528,"o":"m 528 338 l 97 338 l 97 449 l 528 449 l 528 338 z "},"̶":{"ha":625,"x_min":69,"x_max":556,"o":"m 556 338 l 69 338 l 69 449 l 556 449 l 556 338 z "},"̷":{"ha":625,"x_min":110,"x_max":515,"o":"m 179 413 l 110 413 l 110 507 l 446 694 l 515 694 l 515 596 l 179 413 z "},"̸":{"ha":625,"x_min":83,"x_max":542,"o":"m 165 0 l 83 0 l 83 69 l 460 694 l 542 694 l 542 625 l 165 0 z "},"Δ":{"ha":625,"x_min":69,"x_max":556,"o":"m 556 0 l 69 0 l 69 69 l 250 903 l 375 903 l 556 69 l 556 0 m 207 133 l 229 119 l 399 119 l 419 133 l 350 414 l 324 708 l 301 708 l 275 414 l 207 133 z "},"Ω":{"ha":625,"x_min":69,"x_max":556,"o":"m 285 0 l 69 0 l 69 125 l 133 125 l 147 147 q 69 451 69 243 q 313 917 69 917 q 556 451 556 917 q 478 147 556 243 l 492 125 l 556 125 l 556 0 l 340 0 l 340 119 q 409 198 388 119 q 431 451 431 276 q 397 712 431 626 q 313 797 364 797 q 194 451 194 797 q 214 196 194 272 q 285 119 233 119 l 285 0 z "},"π":{"ha":625,"x_min":69,"x_max":556,"o":"m 478 -7 q 388 65 414 -7 q 361 301 361 138 l 375 553 l 361 575 l 264 575 l 250 553 l 264 301 l 264 0 l 139 0 l 139 575 l 69 575 l 69 694 l 556 694 l 556 575 l 486 575 l 486 301 q 492 176 486 217 q 507 124 497 135 q 536 113 517 113 l 556 113 l 556 7 q 478 -7 518 -7 z "},"Ẁ":{"ha":625,"x_min":69,"x_max":556,"o":"m 344 972 l 281 972 l 110 1167 l 110 1250 l 228 1250 l 344 1042 l 344 972 m 229 0 l 111 0 l 69 833 l 69 903 l 185 903 l 194 569 l 181 236 l 203 236 l 265 514 l 360 514 l 422 236 l 444 236 l 431 569 l 440 903 l 556 903 l 556 833 l 514 0 l 396 0 l 354 143 l 324 306 l 301 306 l 271 143 l 229 0 z "},"ẁ":{"ha":625,"x_min":69,"x_max":556,"o":"m 374 764 l 310 764 l 139 958 l 139 1042 l 257 1042 l 374 833 l 374 764 m 215 0 l 111 0 l 69 625 l 69 694 l 183 694 l 192 457 l 176 219 l 199 219 l 265 403 l 360 403 l 426 219 l 449 219 l 433 457 l 442 694 l 556 694 l 556 625 l 514 0 l 410 0 l 360 125 l 324 254 l 301 254 l 267 126 l 215 0 z "},"Ẃ":{"ha":625,"x_min":69,"x_max":556,"o":"m 343 972 l 279 972 l 279 1042 l 396 1250 l 514 1250 l 514 1167 l 343 972 m 229 0 l 111 0 l 69 833 l 69 903 l 185 903 l 194 569 l 181 236 l 203 236 l 265 514 l 360 514 l 422 236 l 444 236 l 431 569 l 440 903 l 556 903 l 556 833 l 514 0 l 396 0 l 354 143 l 324 306 l 301 306 l 271 143 l 229 0 z "},"ẃ":{"ha":625,"x_min":69,"x_max":556,"o":"m 306 764 l 242 764 l 242 833 l 358 1042 l 476 1042 l 476 958 l 306 764 m 215 0 l 111 0 l 69 625 l 69 694 l 183 694 l 192 457 l 176 219 l 199 219 l 265 403 l 360 403 l 426 219 l 449 219 l 433 457 l 442 694 l 556 694 l 556 625 l 514 0 l 410 0 l 360 125 l 324 254 l 301 254 l 267 126 l 215 0 z "},"Ẅ":{"ha":625,"x_min":69,"x_max":556,"o":"m 528 1028 l 375 1028 l 375 1189 l 528 1189 l 528 1028 m 250 1028 l 97 1028 l 97 1189 l 250 1189 l 250 1028 m 229 0 l 111 0 l 69 833 l 69 903 l 185 903 l 194 569 l 181 236 l 203 236 l 265 514 l 360 514 l 422 236 l 444 236 l 431 569 l 440 903 l 556 903 l 556 833 l 514 0 l 396 0 l 354 143 l 324 306 l 301 306 l 271 143 l 229 0 z "},"ẅ":{"ha":625,"x_min":69,"x_max":556,"o":"m 528 819 l 375 819 l 375 981 l 528 981 l 528 819 m 250 819 l 97 819 l 97 981 l 250 981 l 250 819 m 215 0 l 111 0 l 69 625 l 69 694 l 183 694 l 192 457 l 176 219 l 199 219 l 265 403 l 360 403 l 426 219 l 449 219 l 433 457 l 442 694 l 556 694 l 556 625 l 514 0 l 410 0 l 360 125 l 324 254 l 301 254 l 267 126 l 215 0 z "},"Ẽ":{"ha":625,"x_min":79,"x_max":544,"o":"m 396 1006 q 297 1043 351 1006 q 215 1081 243 1081 q 160 1013 160 1081 l 90 1013 l 90 1128 q 215 1200 136 1200 q 314 1163 260 1200 q 396 1125 368 1125 q 451 1194 451 1125 l 521 1194 l 521 1079 q 396 1006 467 1006 m 544 0 l 79 0 l 79 903 l 544 903 l 544 783 l 204 783 l 204 518 l 503 518 l 503 399 l 204 399 l 204 119 l 544 119 l 544 0 z "},"ẽ":{"ha":625,"x_min":75,"x_max":547,"o":"m 403 814 q 304 851 358 814 q 222 889 250 889 q 167 821 167 889 l 97 821 l 97 936 q 222 1008 142 1008 q 321 971 267 1008 q 403 933 375 933 q 458 1003 458 933 l 528 1003 l 528 888 q 403 814 474 814 m 360 -7 q 138 85 201 -7 q 75 347 75 178 q 318 701 75 701 q 502 616 447 701 q 547 321 557 531 l 369 278 l 208 267 l 186 253 q 237 159 186 204 q 360 114 288 114 l 519 114 l 519 8 q 360 -7 431 -7 m 200 369 l 431 419 q 403 543 435 504 q 318 582 371 582 q 200 369 201 582 z "},"Ỳ":{"ha":625,"x_min":69,"x_max":556,"o":"m 344 972 l 281 972 l 110 1167 l 110 1250 l 228 1250 l 344 1042 l 344 972 m 375 0 l 250 0 l 250 329 l 69 833 l 69 903 l 174 903 l 251 676 l 301 451 l 324 451 l 374 676 l 451 903 l 556 903 l 556 833 l 375 331 l 375 0 z "},"ỳ":{"ha":625,"x_min":69,"x_max":556,"o":"m 374 764 l 310 764 l 139 958 l 139 1042 l 257 1042 l 374 833 l 374 764 m 283 -306 l 178 -306 l 178 -236 l 267 40 l 69 625 l 69 694 l 172 694 l 324 232 l 451 694 l 556 694 l 556 625 l 283 -306 z "},"Ỹ":{"ha":625,"x_min":69,"x_max":556,"o":"m 396 1006 q 297 1043 351 1006 q 215 1081 243 1081 q 160 1013 160 1081 l 90 1013 l 90 1128 q 215 1200 136 1200 q 314 1163 260 1200 q 396 1125 368 1125 q 451 1194 451 1125 l 521 1194 l 521 1079 q 396 1006 467 1006 m 375 0 l 250 0 l 250 329 l 69 833 l 69 903 l 174 903 l 251 676 l 301 451 l 324 451 l 374 676 l 451 903 l 556 903 l 556 833 l 375 331 l 375 0 z "},"ỹ":{"ha":625,"x_min":69,"x_max":556,"o":"m 403 814 q 304 851 358 814 q 222 889 250 889 q 167 821 167 889 l 97 821 l 97 936 q 222 1008 142 1008 q 321 971 267 1008 q 403 933 375 933 q 458 1003 458 933 l 528 1003 l 528 888 q 403 814 474 814 m 283 -306 l 178 -306 l 178 -236 l 267 40 l 69 625 l 69 694 l 172 694 l 324 232 l 451 694 l 556 694 l 556 625 l 283 -306 z "},"–":{"ha":625,"x_min":69,"x_max":556,"o":"m 556 328 l 69 328 l 69 447 l 556 447 l 556 328 z "},"—":{"ha":625,"x_min":69,"x_max":556,"o":"m 556 328 l 69 328 l 69 447 l 556 447 l 556 328 z "},"‘":{"ha":625,"x_min":229,"x_max":396,"o":"m 313 549 l 229 549 l 229 903 l 396 903 l 396 819 l 313 549 z "},"’":{"ha":625,"x_min":229,"x_max":396,"o":"m 396 549 l 229 549 l 229 632 l 313 903 l 396 903 l 396 549 z "},"‚":{"ha":625,"x_min":215,"x_max":410,"o":"m 326 -194 l 215 -194 l 215 -125 l 243 160 l 410 160 l 410 76 l 326 -194 z "},"“":{"ha":625,"x_min":97,"x_max":528,"o":"m 444 549 l 361 549 l 361 903 l 528 903 l 528 819 l 444 549 m 181 549 l 97 549 l 97 903 l 264 903 l 264 819 l 181 549 z "},"”":{"ha":625,"x_min":97,"x_max":528,"o":"m 528 549 l 361 549 l 361 632 l 444 903 l 528 903 l 528 549 m 264 549 l 97 549 l 97 632 l 181 903 l 264 903 l 264 549 z "},"„":{"ha":625,"x_min":69,"x_max":556,"o":"m 181 -194 l 69 -194 l 69 -125 l 97 160 l 264 160 l 264 76 l 181 -194 m 472 -194 l 361 -194 l 361 -125 l 389 160 l 556 160 l 556 76 l 472 -194 z "},"†":{"ha":625,"x_min":69,"x_max":556,"o":"m 372 139 l 253 139 l 253 575 l 231 589 l 161 575 l 69 575 l 69 694 l 161 694 l 231 681 l 253 694 l 253 903 l 372 903 l 372 694 l 394 681 l 464 694 l 556 694 l 556 575 l 464 575 l 394 589 l 372 575 l 372 139 z "},"‡":{"ha":625,"x_min":69,"x_max":556,"o":"m 372 139 l 253 139 l 253 311 l 231 325 l 161 311 l 69 311 l 69 431 l 161 431 l 231 417 l 253 431 l 253 575 l 231 589 l 161 575 l 69 575 l 69 694 l 161 694 l 231 681 l 253 694 l 253 903 l 372 903 l 372 694 l 394 681 l 464 694 l 556 694 l 556 575 l 464 575 l 394 589 l 372 575 l 372 431 l 394 417 l 464 431 l 556 431 l 556 311 l 464 311 l 394 325 l 372 311 l 372 139 z "},"•":{"ha":625,"x_min":132,"x_max":493,"o":"m 382 161 l 243 161 l 132 272 l 132 411 l 243 522 l 382 522 l 493 411 l 493 272 l 382 161 z "},"…":{"ha":625,"x_min":222,"x_max":403,"o":"m 403 0 l 222 0 l 222 167 l 403 167 l 403 0 z "},"‰":{"ha":625,"x_min":0,"x_max":625,"o":"m 241 538 q 223 509 241 538 q 139 481 204 481 q 37 538 74 481 q 0 696 0 594 q 37 853 0 796 q 139 910 74 910 q 241 853 204 910 q 278 696 278 796 q 241 538 278 594 m 486 833 l 360 529 l 294 563 l 336 729 l 406 903 l 486 903 l 486 833 m 97 696 q 139 572 97 572 q 181 696 181 572 q 139 818 181 818 q 97 696 97 818 m 333 -4 q 231 53 268 -4 q 194 210 194 110 q 231 367 194 310 q 333 424 268 424 q 397 382 383 424 l 418 382 q 486 424 444 424 q 588 367 551 424 q 625 210 625 310 q 588 53 625 110 q 486 -4 551 -4 q 418 38 444 -4 l 397 38 q 333 -4 383 -4 m 81 0 l 0 0 l 0 69 l 124 392 l 189 357 l 149 190 l 81 0 m 285 210 q 285 149 285 210 q 326 88 285 88 q 368 210 368 88 q 326 332 368 332 q 285 210 285 332 m 451 210 q 451 149 451 210 q 493 88 451 88 q 535 210 535 88 q 493 332 535 332 q 451 210 451 332 z "},"‹":{"ha":625,"x_min":69,"x_max":556,"o":"m 556 111 l 486 111 l 69 310 l 69 400 l 486 597 l 556 597 l 556 503 l 385 414 l 203 365 l 203 344 l 385 294 l 556 206 l 556 111 z "},"›":{"ha":625,"x_min":69,"x_max":556,"o":"m 139 111 l 69 111 l 69 206 l 240 294 l 422 344 l 422 365 l 240 414 l 69 503 l 69 597 l 139 597 l 556 400 l 556 310 l 139 111 z "},"⁄":{"ha":625,"x_min":69,"x_max":556,"o":"m 556 833 l 429 529 l 378 563 l 419 729 l 489 903 l 556 903 l 556 833 m 136 0 l 69 0 l 69 69 l 193 392 l 244 357 l 204 190 l 136 0 z "},"€":{"ha":625,"x_min":69,"x_max":556,"o":"m 461 -7 q 247 72 328 -7 q 139 292 165 150 l 69 292 l 69 411 l 126 411 l 139 432 l 139 471 l 126 492 l 69 492 l 69 611 l 139 611 q 248 831 165 753 q 465 910 331 910 q 556 896 517 910 l 556 790 l 467 790 q 271 618 306 790 l 285 597 l 378 611 l 485 611 l 485 492 l 244 492 l 244 411 l 485 411 l 485 292 l 378 292 l 285 306 l 271 285 q 332 155 283 194 q 461 113 381 115 l 556 113 l 556 7 q 461 -7 517 -7 z "},"₹":{"ha":625,"x_min":74,"x_max":560,"o":"m 460 0 l 354 0 l 115 410 l 115 478 l 179 478 q 287 494 256 478 q 326 569 318 510 l 306 583 l 201 569 l 74 569 l 74 689 l 201 689 l 310 675 l 331 689 l 331 783 l 74 783 l 74 903 l 560 903 l 560 783 l 456 783 l 456 758 l 442 703 l 463 689 l 560 689 l 560 569 l 460 569 l 438 556 q 394 423 438 476 q 269 363 350 369 l 269 342 l 376 206 l 460 69 l 460 0 z "},"ℓ":{"ha":625,"x_min":69,"x_max":556,"o":"m 422 0 q 294 19 351 0 q 201 67 238 39 q 139 142 165 96 q 99 229 113 189 q 79 326 86 269 q 71 417 72 382 q 69 503 69 453 q 76 617 69 563 q 98 727 82 671 q 139 824 114 783 q 207 891 164 865 q 304 917 250 917 q 414 888 368 917 q 483 809 460 858 q 517 707 507 760 q 528 594 528 654 q 336 193 528 343 l 261 297 q 403 594 403 403 q 310 797 403 797 q 194 503 194 797 q 199 381 194 432 q 218 278 203 331 q 259 192 233 225 q 329 140 285 160 q 436 119 374 119 l 556 119 l 556 14 q 422 0 504 0 z "},"™":{"ha":625,"x_min":35,"x_max":590,"o":"m 190 0 l 128 0 l 128 403 l 117 410 l 81 396 l 35 396 l 35 456 l 278 456 l 278 396 l 232 396 l 200 410 l 190 403 l 190 0 m 407 0 l 347 0 l 347 456 l 410 456 l 440 360 l 464 264 l 475 264 l 497 360 l 528 456 l 590 456 l 590 0 l 532 0 l 532 157 l 549 313 l 538 313 l 494 158 l 444 158 l 400 313 l 389 313 l 407 157 l 407 0 z "},"Ω":{"ha":625,"x_min":69,"x_max":556,"o":"m 285 0 l 69 0 l 69 125 l 133 125 l 147 147 q 69 451 69 243 q 313 917 69 917 q 556 451 556 917 q 478 147 556 243 l 492 125 l 556 125 l 556 0 l 340 0 l 340 119 q 409 198 388 119 q 431 451 431 276 q 397 712 431 626 q 313 797 364 797 q 194 451 194 797 q 214 196 194 272 q 285 119 233 119 l 285 0 z "},"℮":{"ha":625,"x_min":69,"x_max":554,"o":"m 363 -7 q 133 78 197 -7 q 69 347 69 163 q 133 611 69 521 q 317 701 196 701 q 554 281 575 701 l 194 281 l 196 65 q 363 31 258 31 q 526 51 454 31 l 526 15 q 363 -7 444 -7 m 196 619 l 194 314 l 438 314 l 438 619 q 317 665 400 665 q 196 619 236 665 z "},"←":{"ha":625,"x_min":69,"x_max":556,"o":"m 556 0 l 431 0 l 431 597 l 389 597 l 278 611 l 278 589 l 363 521 l 363 417 l 293 417 l 69 654 l 69 664 l 293 903 l 363 903 l 363 799 l 278 731 l 278 708 l 393 722 l 556 722 l 556 0 z "},"↑":{"ha":625,"x_min":69,"x_max":556,"o":"m 375 0 l 250 0 l 250 319 l 264 639 l 242 639 l 174 490 l 69 490 l 69 560 l 308 903 l 318 903 l 556 560 l 556 490 l 451 490 l 383 639 l 361 639 l 375 319 l 375 0 z "},"→":{"ha":625,"x_min":69,"x_max":556,"o":"m 194 0 l 69 0 l 69 722 l 232 722 l 347 708 l 347 731 l 263 799 l 263 903 l 332 903 l 556 664 l 556 654 l 332 417 l 263 417 l 263 521 l 347 589 l 347 611 l 236 597 l 194 597 l 194 0 z "},"↓":{"ha":625,"x_min":69,"x_max":556,"o":"m 318 0 l 308 0 l 69 343 l 69 413 l 174 413 l 242 264 l 264 264 l 250 583 l 250 903 l 375 903 l 375 583 l 361 264 l 383 264 l 451 413 l 556 413 l 556 343 l 318 0 z "},"↔":{"ha":625,"x_min":0,"x_max":625,"o":"m 258 69 l 189 69 l 0 340 l 0 350 l 189 625 l 258 625 l 258 521 l 174 417 l 174 394 l 286 404 l 328 404 l 451 394 l 451 417 l 367 521 l 367 625 l 436 625 l 625 350 l 625 340 l 436 69 l 367 69 l 367 174 l 451 275 l 451 297 l 328 288 l 286 288 l 174 297 l 174 275 l 258 174 l 258 69 z "},"↕":{"ha":625,"x_min":69,"x_max":556,"o":"m 318 0 l 308 0 l 69 301 l 69 371 l 174 371 l 242 250 l 264 250 l 250 431 l 250 472 l 264 653 l 242 653 l 174 532 l 69 532 l 69 601 l 308 903 l 318 903 l 556 601 l 556 532 l 451 532 l 383 653 l 361 653 l 375 472 l 375 431 l 361 250 l 383 250 l 451 371 l 556 371 l 556 301 l 318 0 z "},"↖":{"ha":625,"x_min":93,"x_max":533,"o":"m 436 0 l 333 0 l 333 469 l 208 663 l 192 649 l 221 489 l 135 429 l 96 486 l 93 903 l 101 908 l 493 765 l 533 707 l 447 647 l 307 732 l 289 718 l 436 532 l 436 0 z "},"↗":{"ha":625,"x_min":93,"x_max":533,"o":"m 293 0 l 190 0 l 190 532 l 338 718 l 319 732 l 179 647 l 93 707 l 133 765 l 525 908 l 533 903 l 531 486 l 492 429 l 406 489 l 435 649 l 418 663 l 293 469 l 293 0 z "},"↘":{"ha":625,"x_min":93,"x_max":533,"o":"m 533 6 l 525 0 l 133 143 l 93 201 l 179 261 l 319 176 l 338 190 l 190 376 l 190 908 l 293 908 l 293 439 l 418 246 l 435 260 l 406 419 l 492 479 l 531 422 l 533 6 z "},"↙":{"ha":625,"x_min":93,"x_max":533,"o":"m 493 143 l 101 0 l 93 6 l 96 422 l 135 479 l 221 419 l 192 260 l 208 246 l 333 439 l 333 908 l 436 908 l 436 376 l 289 190 l 307 176 l 447 261 l 533 201 l 493 143 z "},"∂":{"ha":625,"x_min":69,"x_max":556,"o":"m 556 343 q 313 -7 556 -7 q 69 343 69 -7 q 132 599 69 511 q 319 688 194 688 l 326 688 q 75 953 235 833 l 75 1028 l 169 1028 q 456 701 357 867 q 556 343 556 536 m 194 343 q 210 192 194 244 q 248 126 225 140 q 313 113 271 113 q 376 126 353 113 q 415 192 399 140 q 431 343 431 244 q 390 560 431 454 q 319 575 361 575 q 224 525 253 575 q 194 343 194 475 z "},"∅":{"ha":625,"x_min":39,"x_max":597,"o":"m 100 122 l 39 182 l 96 242 q 40 415 40 317 q 119 616 40 536 q 318 696 197 696 q 482 646 410 696 l 540 708 l 597 651 l 539 590 q 594 415 594 518 q 517 215 594 294 q 318 135 439 135 q 157 183 228 135 l 100 122 m 165 415 q 185 335 165 371 l 396 557 q 318 576 361 576 q 208 531 251 576 q 165 415 165 485 m 318 254 q 428 299 385 254 q 471 415 471 344 q 451 497 471 461 l 242 274 q 318 254 276 254 z "},"∆":{"ha":625,"x_min":69,"x_max":556,"o":"m 556 0 l 69 0 l 69 69 l 250 903 l 375 903 l 556 69 l 556 0 m 207 133 l 229 119 l 399 119 l 419 133 l 350 414 l 324 708 l 301 708 l 275 414 l 207 133 z "},"∏":{"ha":625,"x_min":69,"x_max":556,"o":"m 264 0 l 139 0 l 139 454 l 167 886 l 153 908 l 69 908 l 69 1028 l 556 1028 l 556 908 l 472 908 l 458 886 l 486 454 l 486 0 l 361 0 l 361 454 l 375 886 l 361 908 l 264 908 l 250 886 l 264 454 l 264 0 z "},"∑":{"ha":625,"x_min":69,"x_max":556,"o":"m 556 0 l 69 0 l 69 129 l 214 285 l 382 440 l 382 463 l 214 618 l 69 774 l 69 903 l 556 903 l 556 783 l 211 783 l 211 761 l 349 649 l 472 514 l 472 389 l 349 254 l 211 142 l 211 119 l 556 119 l 556 0 z "},"−":{"ha":625,"x_min":69,"x_max":556,"o":"m 556 392 l 69 392 l 69 511 l 556 511 l 556 392 z "},"√":{"ha":625,"x_min":69,"x_max":556,"o":"m 333 0 l 208 0 l 69 625 l 69 694 l 176 694 l 224 481 l 258 267 l 281 267 l 356 647 l 447 1028 l 556 1028 l 556 958 l 333 0 z "},"∞":{"ha":625,"x_min":68,"x_max":554,"o":"m 193 321 q 99 362 129 321 q 68 467 68 403 q 99 572 68 531 q 193 613 129 613 q 261 588 233 613 q 300 528 289 564 l 322 528 q 361 588 332 564 q 429 613 390 613 q 524 572 493 613 q 554 467 554 531 q 524 362 554 403 q 429 321 493 321 q 361 345 390 321 q 322 406 332 369 l 300 406 q 261 345 289 369 q 193 321 233 321 m 207 411 q 227 419 217 411 q 249 439 238 426 q 267 456 261 451 l 267 478 q 253 492 264 481 q 238 508 243 503 q 224 517 233 513 q 207 522 215 522 q 165 467 165 522 q 207 411 165 411 m 415 411 q 457 467 457 411 q 415 522 457 522 q 398 517 407 522 q 384 508 389 513 q 369 492 379 503 q 356 478 358 481 l 356 456 q 372 438 360 451 q 395 418 385 425 q 415 411 406 411 z "},"∫":{"ha":625,"x_min":71,"x_max":557,"o":"m 160 -354 q 71 -340 122 -354 l 71 -235 l 161 -235 q 209 -216 196 -232 q 225 -158 222 -200 q 262 279 236 -21 q 300 717 288 579 q 353 859 308 808 q 465 910 399 910 q 557 896 515 910 l 557 790 l 478 790 q 417 715 422 790 q 346 -161 389 350 q 290 -305 338 -256 q 160 -354 242 -354 z "},"≈":{"ha":625,"x_min":69,"x_max":556,"o":"m 417 472 q 299 510 371 472 q 208 547 228 547 q 139 479 154 547 l 69 479 l 69 594 q 208 667 114 667 q 326 629 254 667 q 417 592 397 592 q 486 661 471 592 l 556 661 l 556 546 q 417 472 501 472 m 417 193 q 299 231 371 193 q 208 268 228 268 q 139 200 154 268 l 69 200 l 69 315 q 208 388 114 388 q 326 350 254 388 q 417 313 397 313 q 486 382 471 313 l 556 382 l 556 267 q 417 193 501 193 z "},"≠":{"ha":625,"x_min":69,"x_max":556,"o":"m 244 56 l 139 56 l 139 125 l 176 250 l 163 271 l 107 257 l 69 257 l 69 376 l 213 376 l 254 519 l 240 540 l 171 526 l 69 526 l 69 646 l 293 646 l 351 833 l 457 833 l 457 764 l 419 653 l 433 632 l 489 646 l 556 646 l 556 526 l 383 526 l 339 383 l 353 363 l 422 376 l 556 376 l 556 257 l 303 257 l 244 56 z "},"≤":{"ha":625,"x_min":69,"x_max":556,"o":"m 556 208 l 486 208 l 69 407 l 69 497 l 486 694 l 556 694 l 556 600 l 385 511 l 203 464 l 203 442 l 385 392 l 556 303 l 556 208 m 556 0 l 69 0 l 69 119 l 556 119 l 556 0 z "},"≥":{"ha":625,"x_min":69,"x_max":556,"o":"m 139 208 l 69 208 l 69 303 l 240 392 l 422 442 l 422 464 l 240 511 l 69 600 l 69 694 l 139 694 l 556 497 l 556 407 l 139 208 m 556 0 l 69 0 l 69 119 l 556 119 l 556 0 z "},"◊":{"ha":625,"x_min":57,"x_max":543,"o":"m 363 0 l 238 0 l 57 417 l 57 486 l 238 903 l 363 903 l 543 486 l 543 417 l 363 0 m 239 313 l 289 160 l 311 160 l 361 313 l 422 451 l 361 590 l 311 743 l 289 743 l 239 590 l 178 451 l 239 313 z "},"":{"ha":2415,"x_min":153,"x_max":2263,"o":"m 153 0 l 153 972 l 453 972 l 453 0 l 153 0 m 515 689 l 515 972 l 815 972 l 815 689 l 515 689 m 876 0 l 876 972 l 1178 972 l 1178 0 l 876 0 m 1239 689 l 1239 972 l 1539 972 l 1539 689 l 1239 689 m 1600 0 l 1600 972 l 1901 972 l 1901 0 l 1600 0 m 1963 689 l 1963 972 l 2263 972 l 2263 689 l 1963 689 m 1963 343 l 1963 628 l 2263 628 l 2263 343 l 1963 343 z "},"ﬁ":{"ha":1000,"x_min":69,"x_max":931,"o":"m 931 0 l 69 0 l 69 119 l 222 119 l 222 575 l 200 589 l 146 575 l 69 575 l 69 694 l 217 694 q 233 833 219 779 q 282 929 247 888 q 380 989 317 971 q 540 1007 443 1007 q 757 993 631 1007 l 757 888 l 519 888 q 376 848 411 888 q 340 694 342 808 l 363 681 l 440 694 l 757 694 l 757 119 l 931 119 l 931 0 m 654 561 l 632 575 l 347 575 l 347 119 l 632 119 l 632 346 l 654 561 z "},"ﬂ":{"ha":1028,"x_min":69,"x_max":958,"o":"m 69 119 l 222 119 l 222 575 l 200 589 l 146 575 l 69 575 l 69 694 l 217 694 q 278 927 222 854 q 457 1000 333 1000 l 507 1000 l 757 1000 l 757 281 q 775 148 757 176 q 853 119 793 119 l 958 119 l 958 14 q 853 0 907 0 q 676 72 719 0 q 632 294 632 143 l 632 574 l 654 867 l 632 881 l 478 881 q 369 842 397 881 q 340 694 342 804 l 363 681 l 440 694 l 542 694 l 542 575 l 347 575 l 347 119 l 542 119 l 542 0 l 69 0 l 69 119 z "}}}
